<?xml version="1.0" encoding="UTF-8" standalone="no"?>
<svg
   xmlns:dc="http://purl.org/dc/elements/1.1/"
   xmlns:cc="http://creativecommons.org/ns#"
   xmlns:rdf="http://www.w3.org/1999/02/22-rdf-syntax-ns#"
   xmlns:svg="http://www.w3.org/2000/svg"
   xmlns="http://www.w3.org/2000/svg"
   xmlns:sodipodi="http://sodipodi.sourceforge.net/DTD/sodipodi-0.dtd"
   xmlns:inkscape="http://www.inkscape.org/namespaces/inkscape"
   version="1.1"
   id="Layer_1"
   x="0px"
   y="0px"
   viewBox="0 0 512 512"
   style="enable-background:new 0 0 512 512;"
   xml:space="preserve"
   sodipodi:docname="soup-fill.svg"
   inkscape:version="1.0.2 (e86c870879, 2021-01-15)"
   inkscape:export-filename="/home/ricardo/Documents/Projects/SopaParaTodosMaps/soup-fill.png"
   inkscape:export-xdpi="12"
   inkscape:export-ydpi="12"><metadata
   id="metadata73"><rdf:RDF><cc:Work
       rdf:about=""><dc:format>image/svg+xml</dc:format><dc:type
         rdf:resource="http://purl.org/dc/dcmitype/StillImage" /><dc:title></dc:title></cc:Work></rdf:RDF></metadata><defs
   id="defs71" /><sodipodi:namedview
   pagecolor="#ffffff"
   bordercolor="#666666"
   borderopacity="1"
   objecttolerance="10"
   gridtolerance="10"
   guidetolerance="10"
   inkscape:pageopacity="0"
   inkscape:pageshadow="2"
   inkscape:window-width="1774"
   inkscape:window-height="1035"
   id="namedview69"
   showgrid="true"
   inkscape:zoom="1.3921165"
   inkscape:cx="299.60939"
   inkscape:cy="282.35345"
   inkscape:window-x="0"
   inkscape:window-y="301"
   inkscape:window-maximized="0"
   inkscape:current-layer="Layer_1"><inkscape:grid
     type="xygrid"
     id="grid898" /></sodipodi:namedview>
<path
   style="fill:#ffffff;fill-opacity:1;stroke:#000000;stroke-width:1px;stroke-linecap:butt;stroke-linejoin:miter;stroke-opacity:1"
   d="M 20,280 C -4.0370085,388.16654 150.39211,501.16591 260,500 369.60789,498.83409 513.79514,372.87851 490,280 466.20486,187.12149 340,210 250,210 169.86123,210 40,190 20,280 Z"
   id="path900"
   sodipodi:nodetypes="sczcs" /><g
   id="g6">
	<g
   id="g4">
		<path
   d="M 424.322,214.566 C 379.24,203.661 319.461,197.654 256,197.654 c -63.461,0 -123.239,6.006 -168.322,16.911 -50.781,12.284 -76.529,29.123 -76.529,50.05 0,66.058 25.455,128.168 71.676,174.889 C 129.076,486.254 190.577,512 256,512 c 65.423,0 126.924,-25.746 173.174,-72.496 46.221,-46.721 71.676,-108.831 71.676,-174.889 0,-20.926 -25.748,-37.765 -76.528,-50.049 z M 256,491.602 c -113.627,0 -207.792,-85.834 -222.456,-196.753 1.821,1.08 3.731,2.143 5.772,3.182 40.638,20.692 123.666,33.546 216.684,33.546 93.017,0 176.045,-12.854 216.684,-33.546 2.041,-1.039 3.951,-2.103 5.772,-3.182 C 463.792,405.767 369.627,491.602 256,491.602 Z M 71.257,288.943 C 113.821,275.18 182.423,266.706 256,266.706 c 73.575,0 142.178,8.474 184.743,22.237 -42.565,13.763 -111.171,22.236 -184.743,22.236 -73.573,0 -142.178,-8.473 -184.743,-22.236 z M 467.776,277.486 C 425.604,258.186 345.418,246.308 256,246.308 c -89.418,0 -169.605,11.878 -211.777,31.178 -9.254,-5.407 -12.675,-10.093 -12.675,-12.87 0,-5.356 12.734,-18.566 60.926,-30.223 43.558,-10.537 101.632,-16.34 163.526,-16.34 61.894,0 119.968,5.802 163.526,16.34 48.192,11.658 60.926,24.868 60.926,30.223 0,2.778 -3.421,7.463 -12.676,12.87 z"
   id="path2" />
	</g>
</g>
<g
   id="g12">
	<g
   id="g10">
		<path
   d="m 233.336,155.401 c -21.737,0 -39.42,-17.684 -39.42,-39.42 0,-5.633 -4.566,-10.199 -10.199,-10.199 -5.633,0 -10.199,4.567 -10.199,10.199 0,32.984 26.835,59.818 59.818,59.818 5.633,0 10.199,-4.567 10.199,-10.199 0.001,-5.632 -4.566,-10.199 -10.199,-10.199 z"
   id="path8" />
	</g>
</g>
<g
   id="g18">
	<g
   id="g16">
		<path
   d="M252.967,49.073c-5.633,0-10.199,4.567-10.199,10.199c0,5.632,4.566,10.199,10.199,10.199    c21.737,0,39.421,17.684,39.421,39.42c0,5.632,4.567,10.199,10.199,10.199s10.199-4.567,10.199-10.199    C312.786,75.908,285.951,49.073,252.967,49.073z"
   id="path14" />
	</g>
</g>
<g
   id="g24">
	<g
   id="g22">
		<path
   d="M134.098,0c-5.633,0-10.199,4.567-10.199,10.199c0,5.632,4.566,10.199,10.199,10.199c21.737,0,39.42,17.684,39.42,39.42    c0,5.632,4.566,10.199,10.199,10.199s10.199-4.567,10.199-10.199C193.916,26.834,167.081,0,134.098,0z"
   id="path20" />
	</g>
</g>
<g
   id="g30">
	<g
   id="g28">
		<path
   d="M188.332,441.115c-31.29-12.281-58.833-32.958-79.649-59.797c-3.452-4.45-9.859-5.26-14.31-1.807    c-4.451,3.452-5.261,9.859-1.808,14.31c23.066,29.74,53.606,52.66,88.315,66.283c1.224,0.48,2.484,0.708,3.724,0.708    c4.072,0,7.919-2.456,9.497-6.476C196.158,449.091,193.576,443.173,188.332,441.115z"
   id="path26" />
	</g>
</g>
<g
   id="g36">
	<g
   id="g34">
		<path
   d="M89.655,351.372c-2.739-5.361-5.249-10.914-7.461-16.508c-2.071-5.238-7.996-7.804-13.235-5.733    c-5.238,2.07-7.804,7.997-5.734,13.236c2.451,6.196,5.231,12.348,8.265,18.287c1.804,3.53,5.38,5.561,9.091,5.561    c1.561,0,3.146-0.36,4.632-1.119C90.229,362.532,92.218,356.388,89.655,351.372z"
   id="path32" />
	</g>
</g>
<g
   id="g38">
</g>
<g
   id="g40">
</g>
<g
   id="g42">
</g>
<g
   id="g44">
</g>
<g
   id="g46">
</g>
<g
   id="g48">
</g>
<g
   id="g50">
</g>
<g
   id="g52">
</g>
<g
   id="g54">
</g>
<g
   id="g56">
</g>
<g
   id="g58">
</g>
<g
   id="g60">
</g>
<g
   id="g62">
</g>
<g
   id="g64">
</g>
<g
   id="g66">
</g>
</svg>
