<?xml version="1.0" encoding="utf-8"?>
<!-- Generator: Adobe Illustrator 19.1.1, SVG Export Plug-In . SVG Version: 6.00 Build 0)  -->
<svg version="1.1" id="Layer_1" xmlns="http://www.w3.org/2000/svg" xmlns:xlink="http://www.w3.org/1999/xlink" x="0px" y="0px"
	 viewBox="0 0 841.9 841.9" style="enable-background:new 0 0 841.9 841.9;" xml:space="preserve">
<style type="text/css">
	.st0{fill:#232323;}
	.st1{fill:#FFFFFF;}
	.st2{fill:none;stroke:#1D1E1C;stroke-miterlimit:10;}
	.st3{fill:#EF8E13;}
	.st4{fill:none;stroke:#000000;stroke-miterlimit:10;}
	.st5{fill:#5A74B6;}
	.st6{fill:none;stroke:#FFFFFF;stroke-miterlimit:10;}
</style>
<g>
	<g id="XMLID_2_">
		<g>
			<path class="st0" d="M303.2,274.5c0.9,0.1,1,0.3,0,0.7C303.2,275,303.2,274.8,303.2,274.5z"/>
		</g>
	</g>
	<g>
		<g id="XMLID_1_">
			<g>
				<path d="M164.3,557.5c0.9,0.1,1,0.3,0,0.7C164.3,558,164.3,557.7,164.3,557.5z"/>
			</g>
		</g>
	</g>
</g>
<g>
	<path class="st0" d="M435.3,565c13.8-45.6,28-89.2,40.2-133.4c24.5-89,47.8-178.3,71.9-267.4c9-33.1,26.9-60,58.4-75.8
		c24.5-12.3,50.5-14.6,75.1-2.1c7.5,3.8,20.3,11,25.6,26c0.8,2.4,6.7,19.6-2.7,32.8c-8.4,11.8-24,13.3-36.2,14.5
		c-10.7,1-11.1-1.2-32.2-1c-15.2,0.1-23,0-29.1,3.8c-6.7,4.2-11.6,11.7-15.7,23.2C573.5,234.3,490,502.6,490,502.6
		c-1.4,4.2-38.9,107.1-43.4,115.3c-12.8,23-32.3,57.9-73,80.3c-7.1,3.8-63.4,33.6-127.4,12.3c-83.8-27.9-123.6-124.5-111.6-192.7
		c1.6-9.1,3.9-16.6,6-22.3c7.5-4.3,13.9-5.8,18.1-6.2c2.4-0.3,4.3-0.3,8.2-0.3c7.3-0.1,13.3,0.3,17.6,0.7
		c41.4,3.6,72.2,9.6,72.2,9.6c23.4,4.4,49.7,10.8,78,20.4C374.8,533.1,408.4,549.5,435.3,565z"/>
	<g>
		<path class="st0" d="M532.6,643.3c-2.1-0.5-3.9-0.9-4.7,0c-1.4,1.6,1.6,6.2,4.8,11.4c9.3,14.8,4.9,9.2,11.7,19.3
			c7.3,10.9,10.9,16.3,15.7,21.9c3.6,4.2,6.8,8.7,10.5,12.9c0,0,1.7,2.5,5.2,7.6c1.2,1.8,2.1,3.1,2,4.8c-0.1,2-1.2,3.6-1.8,4.4
			c-0.9,1.2-2,2.2-4,3.3c-1.4,0.8-3.5,1.9-8.4,3.3c-4.7,1.4-5.8,1.3-8.1,2.7c-1.8,1-3.8,2.3-3.9,4.2c-0.1,2,2,3.7,3.3,4.4
			c1.1,0.6,2.3,0.6,4.5,0.8c1.3,0.1,2,0,2.4-0.2c0.2-0.1,0.4-0.1,0.6-0.2c0.4-0.1,0.5-0.3,0.7-0.3c0.2,0,0.3,0.3,0.4,0.5
			c0.3,0.6,1,0.8,2.1,1.1c0.9,0.3,1.7,0.3,1.8,0.3c2.7,0.1,4.9-0.5,4.9-0.5c2.3-0.6,6.4-1.4,12.3-2.4c1.5-0.4,3.7-0.9,6.3-1.3
			c0.6-0.1,3.3-0.5,7.3-0.5c6.4-0.1,7.4,0.7,10.5-0.2c1.4-0.4,3.6-1.1,5.2-3c3.8-4.3,1.9-11.1,1.4-13.1c-1.3-4.9-3-4.4-5.6-10.9
			c-1.7-4.2-2.4-7.9-3.2-12.5c-0.6-3.4-0.7-4.7-1.2-9.3c-1-8.2-1.7-10.8-2.4-15.7c-0.7-4.8-1.2-11.6-0.8-20.1c0.1-0.8,0.1-2-0.6-3
			c-2.9-4.4-13.9,3.3-28.3,1.1C562.6,652.8,556.4,648.7,532.6,643.3z"/>
		<path class="st1" d="M592.4,717.3c0-0.7-0.4-1.2-1-2.1c-1.5-2-2.8-4.1-4.2-6c-1-1.3-1.7-2.8-3.4-5.6c-3.1-5.4-5.2-10.1-12.5-23.9
			c-4.7-8.9-7.7-13.4-11.2-22.3c-1-2.6-1.1-5.2-2.3-6.4c-1-1-3.2-1.1-5.6-2c-10.3-3.6-11.1-4.1-11.6-3.6
			c-2.6,2.2,7.8,19.3,16.2,31.2c4.8,6.8,14.3,19.3,19.5,26.9c4.1,6,2.9,5.1,5.6,8.8c1.6,2.1,2.8,3.7,3,5.3c0.6,3.6-4.3,6.5-3.8,7.2
			c0.5,0.7,4.3-1.7,7.2-3.5C591.2,719.5,592.4,718.6,592.4,717.3z"/>
		<path class="st1" d="M570.1,655c-1.2,1.8-0.1,5.8,3.5,13.1c11.2,23.2,11.7,24.7,12.2,25.5c0.1,0.2,0.2,0.3,0.2,0.3
			c1.4,2.2,4,9,6.2,13.1c0,0,1.3,2.4,2.6,5c1.2,2.4,2.1,3.7,2.4,5.8c0.1,0.9,0.3,1.6,0.1,2.1c-1.3,2.5-7.1,5.2-9.5,6.5
			c-8.1,4.3-12.7,6.7-17.7,6.8c-0.9,0-3,0-4,1.3c-0.8,1-0.8,2.8-0.1,3.8c1.4,1.7,5,0.5,10.8-0.9c5.7-1.4,12-2.9,18.3-3.4
			c8.3-0.7,11.2,0.8,13.3-1.7c2.4-2.7,1.8-7.6,0.7-10.5c-0.9-2.4-2.2-3.9-2.9-4.7c-3.1-3.7-3.6-7.1-6.5-22.9
			c-2.7-14.4-2.5-11.3-3.3-16.7c-1.9-13.3-0.8-18.9-4.8-21.5c-0.1-0.1-0.2-0.1-0.5-0.3C584.1,652.1,572.9,650.9,570.1,655z"/>
		<path class="st0" d="M618.8,471.6c-3.2,16.8-4.2,31.1-4.3,41.7c-0.3,18.8,1.6,33.5,3,43.7c1.4,9.9,3,18.9,5.4,31.7
			c2.9,15.2,4.3,22.9,4.8,24.7c2.4,8.2,4.3,13.3,4.3,21.9c0.1,9.5-2.4,13.3-3.4,14.7c-2.3,3.1-5.7,5.3-11.5,7
			c-15.3,4.6-32.6,1.7-40.6,0c-12.1-1.1-22.3-3-30-4.8c-12.9-3-19.4-5.9-32.4-11.7c-4.2-1.9-6.3-3-8-5.4c-3.8-5.5-0.8-11.1,1.6-26.6
			c1.5-9.8,0.3-7.5,2.6-26.4c1.3-10.5,1.9-15.7,2.9-20.5c4.7-24.6,18.9-56,27.3-66.6c0.8-1.1,3.7-4.5,3.9-9.4c0.2-4-1.7-7.1-2.4-8.4
			c-5.5-9.5-9.7-19.7-15.1-29.3c-1.1-2-7.3-14-10.4-25c-5.8-20.6-8.7-51.6,16.7-59.8c11.2-3.6,26.3-2.6,35,6.2
			c4.7,4.7,7,11.8,8.2,15.2c1.7,4.9,2.2,8.5,3,14.9c4.4,34,4.4,33.8,4.3,35.7c-0.3,5.6,0,10.5,0.5,20.4c0.1,1.9,0.4,5.6,2.9,8.8
			c0.6,0.7,2.9,3.5,6.2,3.8c1.5,0.2,3-0.1,4.6-0.4c1.1-0.2,2-0.4,2.6-0.6c0.2,3.9,2.4,7.3,5.7,8.7
			C610.6,477.8,616,476.1,618.8,471.6z"/>
		<path class="st0" d="M622,371.2c-7.3,5.9-11.1,12.4-13,15.7c-3.3,5.7-4.7,10.5-6.3,15.7c-2.1,6.9-3,12.3-3.3,14.2
			c-1.9,12.2-0.9,21-0.6,23.2c0.9,6.8,1.3,10.3,3.9,13.6c2,2.6,3.9,3.4,4,5.6c0.1,2.6-2.3,4.2-6.2,8.4c-1.6,1.7-3.7,4.2-5.9,7.6
			c7.5,3,15,5.9,22.4,8.9c0.2-1.8,0.7-4,1.6-6.4c0.7-1.8,1.5-3.4,2.2-4.6c2.7-2.7,4.6-5,5.8-6.6c2.6-3.3,3-4.6,5.6-7.4
			c1.5-1.6,2.7-2.6,5-4.6c3.8-3.2,4.9-3.7,5.8-4c1-0.3,2.2-0.4,4.6-0.5c2.9-0.1,3.7,0.1,5.6,0c2.5-0.1,4.8-0.2,7-1.2
			c0.5-0.2,5.5-2.6,6.5-7.7c0.4-2.3-0.1-4.1-0.8-6.5c-0.2-0.8-0.5-1.8-1.4-2.6c-0.1-0.1-0.2-0.1-0.2-0.2c-0.8-1.4,7.2-7,8-7.6
			c1.9-1.3,4.6-3.1,8.2-5c0.5-6.7,0.3-18.3-6.2-29.9c-8.7-15.4-27.6-28.8-41.7-24.5C628.6,365.8,625.2,368.6,622,371.2z"/>
		<path class="st1" d="M540,511.2c-2.2,4.2-3.3,8-3.9,10.3c-5.2,9.8-7.9,17.2-9.2,21.6c-0.4,1.1-0.9,3-1.5,5.3
			c-1.3,4.9-2.2,9.2-3.4,14.9c-2.5,12.1-5,24.3-5.7,39c-0.2,3.3-0.4,10.2-1.1,21c-0.2,3.3-1.5,6.2-0.5,7.9
			c2.5,4.4,10.8,5.3,18.5,8.2c18.1,6.8,32.7,8.8,42.5,10.1c23.1,3,33.3,0.8,38.1-0.5c0.9-0.2,3.1-0.2,5.2-1.6
			c4.1-2.9,4.3-9.1,4.3-12.1c-2.2-9.5-4.8-21.5-7.3-35.6c-3.6-20.3-5.3-35.6-5.8-40c-2.2-19.4-3.4-30.9-2.9-46.5
			c0.5-14.2,2.3-25.8,3.8-34c0.3-2.3-1-4.4-3-5c-1.7-0.6-3.7,0-4.9,1.5c-2.1,0.5-4.1,1.1-6.2,1.6c-2.3-0.2-6.2-0.9-10.3-3.2
			c-1.9-1.1-5.3-3-7.5-6.6c-2.7-4.5-2.3-9.3-2.1-11.1c1.4-17.6-3.3-45.9-4.7-53.3c-2.5-13.4-5.3-27.3-14.9-30.6
			c-4.2-1.5-9.6-0.9-13.3,1.9c-10,7.5-5.3,28.9-3.3,37.9c0.2,1.1,2.2,7.6,6,20.7c2.8,9.4,4,13.4,4.6,15.5
			c5.1,16.7,5.7,17.1,6.4,18.9c0.6,1.6,0.9,2.9,0.9,3.2c0.4,1.8,3.5,8.4,3.8,9.3C564.9,485.4,548.6,494.2,540,511.2z"/>
		<path class="st1" d="M532.3,374c-2.2,0.5-5.4,1.6-8,4.4c-1.8,1.9-4.1,5.7-3.6,16.7c0.2,4.4,0.7,8.5,3.6,19.7
			c2,7.9,3.8,13.9,5.1,18.1c8.6,19.8,14.7,34.1,17.4,41.1c0.7,1.8,2.4,6.5,5,6.6c1.2,0.1,2.4-0.8,3-1.8c1.5-2.4-0.1-5.8-1.6-9.3
			c-2-4.7-3.4-9.6-5.4-14.3c-2.8-6.3-4.3-10.9-6.8-18.5c-3.7-11.1-5.5-20-6.4-24.9c-1.7-8.7-2.9-14.6-3-22.7
			C531.4,382.7,531.9,377.6,532.3,374z"/>
		<path class="st0" d="M538.9,526.5c-1.9-0.8-3.9,0.2-5.1,0.8c-4,2-5.4,6.3-5.8,7.7c-0.6,1.9-1.2,3.7-0.6,5.9c0.6,2,2.1,4.1,4.3,4.7
			c4.2,1.3,7.8-3.3,8.4-4.2c0.1-0.2,3.3-4.4,2.1-9.7C542,530.5,541.3,527.5,538.9,526.5z"/>
		<path class="st0" d="M527.9,564.1c-2.5-0.8-5.1,0.3-6.7,1.6c-2.2,1.9-2.6,4.5-3,7.3c-0.4,2.8-0.6,4.8,0.6,6.5
			c1.8,2.5,5.8,3.3,8.9,2c4.3-1.8,4.9-6.8,4.9-7.5C533.1,570.5,531.8,565.3,527.9,564.1z"/>
		<path class="st0" d="M524.7,602.1c-2-0.8-4,0.2-5.1,0.8c-4,2-5.4,6.1-5.9,7.4c-0.6,1.8-1.2,3.6-0.6,5.7c0.6,1.9,2.1,3.9,4.4,4.6
			c4.2,1.2,7.9-3.2,8.5-4c0.1-0.2,3.3-4.3,2.1-9.3C527.9,606,527.2,603,524.7,602.1z"/>
		<path class="st1" d="M633.7,372c-5.5,2.8-9,6.4-10.7,8.2c-2.7,2.8-4.3,5.3-6,8c-1.2,1.9-3.9,6.3-6.4,12.5
			c-1.5,3.6-4.4,11.4-5.6,21.7c-0.4,3.7-0.5,6.3-0.6,11.7c0,1.7-0.2,10.7,1.7,14.4c0.6,1.3,2.7,4.3,2.9,4.6c0,0,0.3,0.4,0.4,0.5
			s0,0.1,0,0.1c0,0,0,0,0,0c1.3,1.6,2.5,2,3,3.7c0.6,1.7,0.3,4.1-2.5,8.2c-4.9,7.3-11.7,11.4-11.4,11.8c0.2,0.3,4.1-2.6,7.1-1.6
			c0.5,0.2,1.4,0.4,2.4,0.9c1.3,0.7,2.3,1.5,2.9,2.1c1.3-4.9,3.3-8.1,4.9-10.1c1.5-1.9,4.3-4.8,6.7-7.8c3.5-4.3,3-4.3,5-6.4
			c4.3-4.7,8.5-7,9.7-7.5c3.5-1.8,5.3-2.8,7.5-2.7c2.6,0,4.7,1.1,8.2,0.4c1-0.2,1.8-0.5,2.3-0.7c2.9-1.1,4.8-1.9,5.6-3.8
			c0.9-2,0.4-4.7-0.9-6.4c-0.8-1.1-1.3-0.9-1.6-1.6c-0.9-2.2,2.9-5.7,6.7-9.3c1.9-1.8,3.9-3.6,7.1-5.6c3.8-2.4,4.6-2.1,5.8-3.3
			c5-4.8,0.2-17.3-0.2-18.3c-2.5-6.4-7.8-10.4-18-18.3c-9.3-7.3-12.9-8.2-16.2-8.2C639.8,368.8,636.9,370.3,633.7,372z"/>
		<path class="st0" d="M643.6,410.5c-4,0.2-6.5,2.9-6.9,3.4c-0.5,0.6-3.5,4-2.3,8.3c1.2,4.2,5.3,5.7,5.9,5.9
			c5.2,1.7,9.6-2.2,10.2-2.7c0.6-0.5,4.5-4.1,3.5-8.2c-0.6-2.6-3-4-4.4-4.9C648.5,411.7,646.4,410.4,643.6,410.5z"/>
		<path class="st0" d="M625,385.6c-2.2-1.6-5.2,0.2-5.6,0.4c-1.7,1-2.4,2.6-2.9,3.7c-0.4,0.9-0.7,1.7-0.5,2.7c0,0.1,0.3,1.5,1.5,2.3
			c1.9,1.3,4.9,0.2,6.5-1.1c0.6-0.5,2.6-2,2.6-4.5C626.6,388.8,626.6,386.7,625,385.6z"/>
		<path class="st0" d="M604.4,423.4c0.7-0.6,2.2,0.7,7.9,4c4.1,2.3,5,2.7,5.8,2.9c3.1,0.8,5.9,0.1,7.4-0.3c2-0.5,4.3-1.1,6.3-3
			c2.2-2.1,2.7-4.5,3.6-4.4c0.7,0.1,1.4,1.9,1.2,3.5c-0.7,5.3-10.3,7.9-11.5,8.2c-1.1,0.3-2.8,0.7-5.2,0.7c-3.8-0.1-6.5-1.3-9.4-2.6
			c-2.6-1.2-4.1-2.1-5.3-4C604.3,426.8,603.5,424.1,604.4,423.4z"/>
		<path class="st0" d="M636.6,359c1.6-5.5,4.3-12.9,8.7-21.1c4.1-7.7,8.1-12.8,12.5-18.5c8.7-11.3,15.7-17.6,17.7-19.4
			c4.3-3.8,6.5-5.8,8.4-6.7c11.8-5.8,26.4,1.3,33,4.5c3.5,1.7,16.1,8.7,26.7,23.7c7.3,10.3,9,19.5,11.4,30.2c0,0,3.3,14.6-0.5,21.3
			c-1.5,2.7-3.5,5.2-3.5,5.2c-1.2,1.5-2.1,2.4-2.5,2.7c-1.6,1.7-2.1,12.6-5.2,17.2c-2.6,3.9-7.9,4.6-12.5,5.2
			c-3.1,0.4-4.1,0-18.5-0.5c-3.5-0.1-5.3,0.2-7.2,1.3c-2.5,1.5-3,3-4.6,4.1c-1.7,1.1-2.4,0.3-5.1,1.1c-2.3,0.7-2.6,1.5-8.9,6.1
			c-2.9,2.1-4.1,2.9-6,3.4c-1.4,0.4-3.7,1-5.1-0.1c-1.5-1.2-1.4-3.6-1.3-5.3c0.3-11.2-12.2-24.7-13.9-26.6
			c-6.1-6.6-12.5-10.1-18.1-13.1c-5.4-2.9-10.2-4.7-13.7-5.9C631.1,364.8,633.9,361.9,636.6,359z"/>
		<path class="st0" d="M537.1,363.6c5.9,1.9,11.7,3.9,17.6,5.8c5.6-5.5,8-11,9.1-14.2c2.9-8.5,1.4-15.5-0.9-27.2
			c-1-4.9-2.3-9.2-5.1-13.6c-0.7-1-5.5-8.5-8.6-7.4c-1.9,0.6-2.3,4.2-2.4,6c-1.2,5-3.1,12.3-6.2,21c-6.8,19.1-14.4,30.9-11.5,32.8
			C529.8,367.5,531.9,367.3,537.1,363.6z"/>
		<path class="st1" d="M550.2,316.7c2.3,0,4.1,5.9,6.4,13.6c0,0,2.1,6.9,2.5,15.8c0.1,1.5,0.1,3-0.3,4.7c-0.3,1.2-0.3,1.6-2.3,5.7
			c-1.4,3-1.2,3.5-2.2,4.3c-1.3,1.1-2.5,0.8-4.9,1.2c-4.5,0.8-5.4,3.4-6.8,2.9c-2-0.7-1.4-6-0.4-19.2c0.5-7.1,0.5-7.7,0.6-8.1
			c0,0,0-0.2,0-0.3C546,316.8,550.2,316.7,550.2,316.7z"/>
		<path class="st1" d="M533.8,364.9c-2.1,3.1-6.5,4.7-7.9,3.4c-0.9-0.8-0.2-2.7,3.9-12.8c4.4-10.9,5.2-12.4,5.7-12.3
			c0.7,0.2-0.6,4.1-0.6,12.7C534.9,360.7,535.3,362.7,533.8,364.9z"/>
		<path class="st1" d="M650.8,357c-2.9-2.1-3.2-3.3-3.3-3.8c-0.2-1.5,0.8-2.8,1.1-3.3c4.7-6.5,4.6-14.4,15.8-27.8
			c3.9-4.7,7.4-7.9,9.8-10.1c7.3-6.6,10.9-9.9,14.4-11.2c8.7-3.2,17.5,0.9,24.5,4.2c3.2,1.5,15.9,7.8,23.5,20.8
			c5.1,8.7,7.9,20.4,8.4,22.5c0.1,0.4,0.1,0.6,0.2,0.7c1.5,6.5,3.2,13.7,0.4,19.7c-1.5,3.2-3,3.2-5.4,8.1c-1.4,2.8-1.7,4.6-1.8,5.2
			c-0.5,2.9,0.2,3.7-0.3,5.9c-0.6,2.8-2.3,5-3.8,6.2c-1.3,1.1-3.5,2.2-9.5,2.5c-10.7,0.4-16.9-2.9-20.4,0.3
			c-0.4,0.3-1.5,1.4-3.3,2.7c-2.1,1.5-3.3,2.4-4.4,2.2c-1.6-0.3-2-2.8-3.3-6.5c-2.2-6.5-4.4-7.1-3.8-8.7c1-2.7,16.8-1,17.7-4.1
			c0.4-1.2-1.4-3.2-3.5-4.1c-5.5-2.2-10.1,5-16.9,3.3c-0.4-0.1-4.8-1.3-5.4-4.1c-1.6-6.4,17.4-15.1,16.3-17.2
			c-0.5-1-4.9-0.2-8.7,1.6c-5.8,2.8-6.3,6.4-10.4,7.1c-3.6,0.6-8.3-1.3-9-4.1c-1.4-5.4,12.8-12,11.2-15.8c-0.5-1.2-2.5-1.7-3.8-1.6
			c-5.2,0.3-6.2,9-14.2,12.3c-1.7,0.7-2.9,0.8-3.5,0.8C656,360.9,653.6,359.1,650.8,357z"/>
		<path class="st1" d="M642.3,360.8c-2.2,0.6-2.7,4.4-2.7,4.9c3,0.9,6.6,2.3,10.4,4.4c8.3,4.6,13.2,10.1,15.5,12.8
			c8.8,10.2,12.4,21.1,13.9,27.5c2.8-1.2,5.6-2.4,8.4-3.5c-0.3-2.1-0.9-5.2-2.2-8.7c-4-10.9-11.3-17.4-16.6-22.1
			c-3.7-3.2-9.6-7.7-17.7-11.4c-2.3-1.4-4.3-2.4-5.7-3C643.7,360.8,643,360.6,642.3,360.8z"/>
		<g>
			<path class="st0" d="M620.7,399L620.7,399c-2.9,1.8-7,4.6-11.1,8.4c-4.2,4-6.2,6-5.9,8.4c0.6,4.1,7.3,7.7,13.3,7.2
				c4.8-0.4,7.9-3.2,9.6-4.8c7-6.6,6.3-15.4,5.9-18.1"/>
			<path class="st1" d="M623.2,397.6L623.2,397.6c-2,1.5-4.7,3.7-7.5,6.9c-2.8,3.2-4.2,4.9-4,6.9c0.4,3.3,4.9,6.3,9,5.9
				c3.3-0.3,5.3-2.7,6.5-3.9c4.8-5.4,4.2-12.6,4-14.8"/>
		</g>
		<path class="st0" d="M643.9,396.1c-2.4-1.8-5.7,0.2-6.1,0.5c-1.8,1.2-2.6,3-3.1,4.2c-0.4,1-0.8,2-0.6,3.1c0,0.1,0.3,1.7,1.6,2.7
			c2.1,1.5,5.3,0.2,7.1-1.3c0.7-0.5,2.8-2.3,2.8-5.2C645.7,399.8,645.6,397.4,643.9,396.1z"/>
		<path class="st3" d="M642,414.1c-2.7,0.1-4.4,2-4.7,2.3c-0.3,0.4-2.3,2.7-1.6,5.6c0.8,2.8,3.6,3.8,3.9,3.9
			c3.5,1.1,6.4-1.5,6.8-1.8c0.4-0.4,3-2.8,2.4-5.5c-0.4-1.7-2-2.7-2.9-3.3C645.3,414.8,644,414,642,414.1z"/>
	</g>
	<g id="XMLID_4_">
		<g>
			<path class="st1" d="M690.5,108.1c12.7,16.8,8.4,34.1-11.8,39.6c-9.8,2.7-21.1,0.4-31.7,0.5c-13.2,0-26.7-1.6-39.5,0.7
				c-12.9,2.4-22,12.1-26.2,24.8c-17.2,52.1-77.1,266.9-129,398.9l-7.9-3.1c1.3-3.3,2.6-7.7,4.3-13.4
				c12.9-42.4,84.5-288.2,96.7-354.9c0.9-5.1,4-22.4,13-43.4c5.5-12.6,10.6-24.6,21-36.2c2.5-2.8,32.8-36,73.7-31.7
				C659.4,90.6,679,92.9,690.5,108.1z"/>
			<path class="st1" d="M444.4,569.5l7.9,3.1c-1.9,4.8-3.8,9.5-5.6,14.1c-13.4,32.7-33.9,76.5-78.7,100.9
				c-34.6,18.9-69.3,18.4-80.7,17.8c-45.3-2.3-70-16.9-87.6-32.3c-10-8.7-22.3-23.9-32.6-41.6c-16.4-28.4-21.4-54.1-22.3-61
				c-0.3-2-1.8-13.9-1.8-13.9c-0.2-0.8-2.5-13.4,0.4-41.3c0.4-3.4,1-9.1,5.3-13.3c3.7-3.5,9.1-5.1,15.6-4.7c19.4,1.3,39,2.1,58,5.8
				c67.9,13.4,133.9,32.7,195.2,65.6C435.9,578.9,439.8,581.3,444.4,569.5z"/>
		</g>
	</g>
	<path class="st3" d="M181.7,523.2c3.3-10,81,5.7,144.9,27.7c9.7,3.3,86.6,30.1,83.8,42.4c-0.9,4-10.1,5.4-17.9,6
		c-35.9-6.2-66.1-13.1-89.3-19c-41-10.4-63.2-18.5-85.8-30.9C201.5,540.6,179.8,528.7,181.7,523.2z"/>
	<path class="st5" d="M185.9,527.8c-1.1-0.9-2.2-2.1-2-3.1c1.7-6.2,57.6,4.2,62,5c29.4,5.6,50.5,12.1,72.6,19
		c45.5,14.2,69.3,16.9,89.9,38.5c1.9,2,3.5,3.8,4.5,5c-0.5,1.1-1.3,2.6-2.8,3.9c-2.8,2.6-6.4,4.3-18.4,2.8
		c-6.3-0.8-12.3-0.1-20.9-1.2c-5.8-0.8-10.1-1.7-12.1-2.1c-38.4-8.3-65.9-16.8-65.9-16.8c-62.8-19.9-80.6-30.8-92.7-39.7
		C193.9,534.7,189,530.6,185.9,527.8z"/>
	<path class="st0" d="M340,544.5c-11.6-4.4-58.5-21.9-125.1-32c-54.9-8.3-58.9-3.4-59.6-1.5c-2.1,5.8,13.1,16.3,23.5,23.5
		c10.4,7.2,24.8,15.6,67.8,31.3c17.1,6.2,32.6,11.8,54.4,17.9c13.5,3.8,29.8,8.2,51.4,11.9c15.5,2.6,36.2,5.3,61.1,6
		c6-1.4,12.5-3.8,13.4-8.2C429.7,578.7,365.5,554.2,340,544.5z"/>
	<path class="st3" d="M193.6,527.7c2-6.7,63.2,4.2,113.9,19c53.8,15.7,113.8,41.1,111.7,48c-2.1,6.9-66.8-4.9-120.6-21.2
		C249,558.4,191.6,534.4,193.6,527.7z"/>
	<path class="st0" d="M297.3,519.9c0,0.8-0.4,3.1-0.2,6c0.5,6.8,3.5,12.1,6.1,15.8c0.9,0.3,2.1,0.7,3.6,0.6
		c7.6-0.6,12-13.7,15.1-21.7c6.6-17.2,14.2-29.6,23.5-44.7c11.5-18.7,17.7-22.1,19.9-35.6c0.9-5.6,2.4-15.3-3.5-22.7
		c-5.6-7-15-8.7-18.2-9.1c-2.1-0.3-5-0.6-8.4,0.3c-6.5,1.7-12,6.9-15.5,15.1C306.7,454.8,299.1,486.9,297.3,519.9z"/>
	<path class="st0" d="M238.6,390.3c-2.2-5-6.2-14-2.4-23.5c4.9-12.3,18.6-15.4,19.9-15.7c2.6-0.5,9.6-1.6,16.9,1.8
		c6.5,3,10.3,8.2,15.1,16.9c9.3,16.8,14.4,32.6,18.1,45.9c2.1,7.6,4.5,16.6,6.6,29c1.7,10,4.3,25.9,3.6,46.5
		c-0.4,12.5-2.2,29.6-7.8,49.5c-2.1,2.3-5.1,4.9-7.8,4.2c-6-1.4-5.9-17.2-8.4-34.4c-4.1-20-9.1-36.3-13.3-48.3
		c-3.1-8.8-6.1-17.1-11.5-27.8c-4.3-8.4-8.8-17.4-16.9-27.8C244.1,398.1,241.5,396.8,238.6,390.3z"/>
	<path class="st0" d="M320.1,323.3c-0.1-0.2-0.3-0.7-0.6-1.2c-1.8-3.8-2.8-6.8-3-7.2c-1.3-3.5-8.9-12.7-19-11.9
		c-6.6,0.5-12.4,4.9-14.5,10c-2.4,5.9-1.8,12.5-0.3,18.6c2.4,10.1,7.1,19.4,11.7,28.7c7.2,14.4,14.4,28.8,21.6,43.3
		c15.6-22.2,29.1-41.7,40.9-58.8c3.9-5.6,10.7-15.4,7.9-25.7c-2.2-8.3-9.4-12.2-10.3-12.7c-9.6-5.1-21.2-1-27.8,5.4
		C322.5,315.9,320.8,320.7,320.1,323.3z"/>
	<path class="st3" d="M309.8,496.8c0.2-45-11.2-87.1-32.2-126.6c-2.1-3.9-6.1-7.5-10.1-9.5c-6.7-3.4-15.3-0.4-19.9,5.5
		c-5.1,6.6-5.1,14.6,0.7,22.3c16.2,21.6,29.6,44.6,38.6,70.1c8.2,23.2,12.1,47.2,14,71.6c0.2,2.1,2.1,4.1,3.2,6.1
		c1.1-2.1,3-4.2,3.2-6.4C308.5,518.9,309.1,507.8,309.8,496.8z"/>
	<path class="st3" d="M303.3,525.1c-0.1,2-0.5,4-0.2,5.9c0.4,2.5,1.4,5,2.1,7.5c1.6-2,3.9-3.7,4.8-5.9c5.6-13.7,10-28,16.7-41.1
		c8.2-15.8,18.1-30.7,27.7-45.7c7.8-12.1,2.8-26.5-10.6-29.2c-8.8-1.7-16.6,3.7-20.9,15C311.5,461.6,304.9,492.8,303.3,525.1z"/>
	<path class="st3" d="M320.7,332c0,0,0.6,1.2-1.6-2.2c-2.1-3.5-9.6-13.2-16.8-13.1c-4.2,0.1-8.9,2.8-10.5,7.1c-1.7,4.2-1.2,9,0,13.4
		c1.9,7.4,5.4,14.2,8.9,20.9c5.5,10.5,11,21.1,16.4,31.6c9.8-14,19.5-28,29.3-42.1c3.8-5.5,7.7-11.2,8.6-17.8
		c0.9-6.2-2.9-14.3-8.6-16.2c-6.8-2.2-15.9,5.5-20.8,11.9S320.7,332,320.7,332z"/>
	<path class="st1" d="M560.9,737.6c-0.1-0.1-0.3-0.3-1.8,0c-1.7,0.3-2.6,0.5-2.6,0.8c-0.1,0.7,2.5,2.3,3.8,1.4
		C561,739.3,561.3,738,560.9,737.6z"/>
</g>
</svg>
