<?xml version="1.0" encoding="utf-8"?>
<!-- Generator: Adobe Illustrator 19.1.1, SVG Export Plug-In . SVG Version: 6.00 Build 0)  -->
<svg version="1.1" id="Layer_1" xmlns="http://www.w3.org/2000/svg" xmlns:xlink="http://www.w3.org/1999/xlink" x="0px" y="0px"
	 viewBox="0 0 841.9 841.9" style="enable-background:new 0 0 841.9 841.9;" xml:space="preserve">
<style type="text/css">
	.st0{fill:#232323;}
	.st1{fill:#FFFFFF;}
	.st2{fill:none;stroke:#1D1E1C;stroke-miterlimit:10;}
	.st3{fill:#EF8E13;}
	.st4{fill:none;stroke:#000000;stroke-miterlimit:10;}
	.st5{fill:#5A74B6;}
	.st6{fill:none;stroke:#FFFFFF;stroke-miterlimit:10;}
</style>
<g>
	<g id="XMLID_2_">
		<g>
		</g>
	</g>
	<g>
		<g id="XMLID_1_">
			<g>
			</g>
		</g>
	</g>
</g>
<g>
	<path class="st0" d="M401.9,431.8c9.5-31.3,19.3-61.3,27.6-91.7c16.9-61.2,32.9-122.5,49.4-183.8c6.2-22.8,18.5-41.2,40.1-52.1
		c16.9-8.5,34.7-10,51.6-1.4c5.1,2.6,14,7.6,17.6,17.9c0.6,1.6,4.6,13.5-1.9,22.6c-5.8,8.1-16.5,9.2-24.9,10
		c-7.4,0.7-7.6-0.8-22.1-0.7c-10.4,0.1-15.8,0-20,2.6c-4.6,2.9-8,8-10.8,16c-11.9,33.4-69.2,217.8-69.2,217.8
		c-1,2.9-26.7,73.6-29.9,79.2c-8.8,15.8-22.2,39.8-50.2,55.2c-4.9,2.6-43.6,23.1-87.5,8.4c-57.6-19.2-84.9-85.6-76.7-132.5
		c1.1-6.2,2.7-11.4,4.1-15.4c5.2-3,9.6-4,12.4-4.3c1.6-0.2,2.9-0.2,5.6-0.2c5-0.1,9.1,0.2,12.1,0.5c28.4,2.5,49.6,6.6,49.6,6.6
		c16.1,3,34.2,7.4,53.6,14C360.3,409.9,383.4,421.1,401.9,431.8z"/>
	<g>
		<path class="st0" d="M468.8,485.6c-1.4-0.3-2.7-0.6-3.2,0c-1,1.1,1.1,4.3,3.3,7.8c6.4,10.2,3.4,6.3,8,13.3
			c5,7.5,7.5,11.2,10.8,15.1c2.5,2.9,4.7,6,7.2,8.8c0,0,1.2,1.8,3.6,5.3c0.8,1.2,1.5,2.1,1.4,3.3c-0.1,1.4-0.8,2.5-1.2,3
			c-0.6,0.8-1.4,1.5-2.8,2.3c-1,0.6-2.4,1.3-5.8,2.3c-3.2,0.9-4,0.9-5.6,1.9c-1.2,0.7-2.6,1.6-2.7,2.9c-0.1,1.4,1.4,2.5,2.3,3
			c0.8,0.4,1.6,0.4,3.1,0.5c0.9,0,1.4,0,1.7-0.1c0.2,0,0.3-0.1,0.4-0.1c0.3-0.1,0.3-0.2,0.4-0.2c0.1,0,0.2,0.2,0.3,0.3
			c0.2,0.4,0.7,0.6,1.5,0.8c0.6,0.2,1.1,0.2,1.2,0.2c1.8,0.1,3.4-0.3,3.4-0.3c1.6-0.4,4.4-1,8.4-1.7c1-0.3,2.5-0.6,4.4-0.9
			c0.4-0.1,2.3-0.3,5-0.3c4.4-0.1,5.1,0.5,7.2-0.1c1-0.3,2.4-0.8,3.6-2.1c2.6-2.9,1.3-7.6,1-9c-0.9-3.4-2-3-3.9-7.5
			c-1.2-2.9-1.6-5.4-2.2-8.6c-0.4-2.4-0.4-3.3-0.8-6.4c-0.7-5.6-1.2-7.4-1.7-10.8c-0.5-3.3-0.9-7.9-0.6-13.8
			c0.1-0.6,0.1-1.4-0.4-2.1c-2-3-9.6,2.3-19.5,0.8C489.5,492.1,485.1,489.3,468.8,485.6z"/>
		<path class="st1" d="M509.9,536.5c0-0.5-0.3-0.9-0.7-1.4c-1-1.3-1.9-2.8-2.9-4.1c-0.7-0.9-1.2-1.9-2.3-3.9
			c-2.1-3.7-3.6-7-8.6-16.5c-3.2-6.1-5.3-9.2-7.7-15.3c-0.7-1.8-0.8-3.6-1.6-4.4c-0.7-0.7-2.2-0.8-3.8-1.3c-7-2.5-7.6-2.8-8-2.5
			c-1.8,1.5,5.3,13.3,11.1,21.4c3.3,4.6,9.8,13.2,13.4,18.5c2.8,4.1,2,3.5,3.8,6c1.1,1.4,1.9,2.6,2.1,3.6c0.4,2.5-3,4.5-2.6,5
			c0.3,0.5,2.9-1.1,5-2.4C509.1,538,509.9,537.3,509.9,536.5z"/>
		<path class="st1" d="M494.6,493.6c-0.8,1.2-0.1,4,2.4,9c7.7,16,8.1,17,8.4,17.5c0.1,0.1,0.1,0.2,0.1,0.2c1,1.5,2.8,6.2,4.3,9
			c0,0,0.9,1.7,1.8,3.5c0.8,1.6,1.4,2.5,1.6,4c0.1,0.6,0.2,1.1,0.1,1.4c-0.9,1.8-4.9,3.6-6.5,4.5c-5.6,3-8.7,4.6-12.1,4.7
			c-0.6,0-2.1,0-2.8,0.9c-0.5,0.7-0.6,2,0,2.6c0.9,1.2,3.4,0.4,7.4-0.6c3.9-0.9,8.3-2,12.6-2.3c5.7-0.5,7.7,0.5,9.2-1.2
			c1.6-1.8,1.2-5.2,0.5-7.2c-0.6-1.7-1.5-2.7-2-3.2c-2.1-2.5-2.4-4.9-4.5-15.7c-1.9-9.9-1.7-7.8-2.2-11.5c-1.3-9.2-0.6-13-3.3-14.8
			c-0.1,0-0.2-0.1-0.3-0.2C504.2,491.6,496.5,490.8,494.6,493.6z"/>
		<path class="st0" d="M528.1,367.6c-2.2,11.6-2.9,21.4-3,28.6c-0.2,12.9,1.1,23.1,2.1,30.1c0.9,6.8,2.1,13,3.7,21.8
			c2,10.5,2.9,15.7,3.3,17c1.6,5.7,2.9,9.2,3,15.1c0,6.5-1.6,9.1-2.4,10.1c-1.6,2.1-3.9,3.6-7.9,4.8c-10.5,3.2-22.4,1.2-27.9,0
			c-8.3-0.8-15.3-2.1-20.6-3.3c-8.9-2.1-13.3-4-22.3-8c-2.9-1.3-4.4-2-5.5-3.7c-2.6-3.8-0.6-7.6,1.1-18.3c1.1-6.7,0.2-5.1,1.8-18.1
			c0.9-7.2,1.3-10.8,2-14.1c3.2-16.9,13-38.5,18.8-45.8c0.6-0.7,2.6-3.1,2.7-6.4c0.1-2.8-1.1-4.9-1.7-5.8
			c-3.8-6.5-6.7-13.6-10.4-20.2c-0.8-1.4-5-9.6-7.2-17.2c-4-14.2-6-35.4,11.5-41.1c7.7-2.5,18.1-1.8,24.1,4.3
			c3.2,3.2,4.8,8.1,5.6,10.5c1.2,3.4,1.5,5.8,2,10.3c3,23.4,3,23.2,3,24.5c-0.2,3.8,0,7.2,0.3,14c0.1,1.3,0.2,3.9,2,6
			c0.4,0.5,2,2.4,4.3,2.6c1,0.1,2.1-0.1,3.2-0.3c0.7-0.1,1.4-0.3,1.8-0.4c0.1,2.6,1.6,5,3.9,6C522.4,371.8,526.1,370.6,528.1,367.6z
			"/>
		<path class="st0" d="M530.3,298.5c-5,4.1-7.6,8.5-8.9,10.8c-2.2,3.9-3.3,7.2-4.4,10.8c-1.5,4.7-2.1,8.4-2.3,9.7
			c-1.3,8.4-0.6,14.5-0.4,16c0.6,4.7,0.9,7.1,2.7,9.3c1.4,1.8,2.7,2.3,2.8,3.9c0.1,1.8-1.6,2.9-4.3,5.8c-1.1,1.2-2.5,2.9-4.1,5.3
			c5.1,2,10.3,4.1,15.4,6.1c0.2-1.2,0.5-2.8,1.1-4.4c0.5-1.3,1-2.3,1.5-3.2c1.8-1.8,3.2-3.4,4-4.6c1.8-2.3,2.1-3.2,3.9-5.1
			c1-1.1,1.8-1.8,3.5-3.2c2.6-2.2,3.4-2.5,4-2.7c0.7-0.2,1.5-0.2,3.2-0.3c2-0.1,2.5,0,3.9,0c1.7-0.1,3.3-0.1,4.8-0.8
			c0.3-0.1,3.8-1.8,4.4-5.3c0.3-1.6-0.1-2.8-0.6-4.5c-0.2-0.5-0.4-1.2-1-1.8c-0.1-0.1-0.1-0.1-0.1-0.1c-0.5-1,4.9-4.8,5.5-5.3
			c1.3-0.9,3.2-2.1,5.7-3.5c0.4-4.6,0.2-12.6-4.3-20.6c-6-10.6-19-19.8-28.6-16.8C534.8,294.9,532.4,296.8,530.3,298.5z"/>
		<path class="st1" d="M473.9,394.8c-1.5,2.9-2.3,5.5-2.7,7.1c-3.6,6.7-5.4,11.8-6.3,14.8c-0.2,0.8-0.6,2.1-1.1,3.6
			c-0.9,3.3-1.5,6.3-2.3,10.2c-1.7,8.3-3.4,16.7-3.9,26.8c-0.1,2.3-0.3,7-0.7,14.4c-0.1,2.3-1.1,4.3-0.4,5.4c1.7,3,7.4,3.6,12.7,5.6
			c12.5,4.7,22.5,6,29.2,6.9c15.9,2.1,22.9,0.5,26.2-0.4c0.6-0.2,2.2-0.1,3.6-1.1c2.8-2,3-6.2,2.9-8.3c-1.5-6.5-3.3-14.8-5-24.5
			c-2.5-14-3.7-24.5-4-27.5c-1.5-13.4-2.4-21.3-2-32c0.3-9.7,1.5-17.8,2.6-23.3c0.2-1.5-0.7-3-2.1-3.5c-1.2-0.4-2.5,0-3.4,1
			c-1.4,0.4-2.8,0.7-4.3,1.1c-1.6-0.2-4.2-0.6-7.1-2.2c-1.3-0.7-3.6-2-5.2-4.5c-1.9-3.1-1.6-6.4-1.5-7.6c0.9-12.1-2.3-31.6-3.2-36.6
			c-1.7-9.2-3.7-18.7-10.3-21.1c-2.9-1-6.6-0.6-9.2,1.3c-6.9,5.1-3.6,19.8-2.2,26c0.2,0.8,1.5,5.3,4.1,14.2
			c1.9,6.4,2.7,9.2,3.2,10.7c3.5,11.5,3.9,11.7,4.4,13c0.4,1.1,0.6,2,0.6,2.2c0.3,1.2,2.4,5.8,2.6,6.4
			C491,377.1,479.8,383.1,473.9,394.8z"/>
		<path class="st1" d="M468.6,300.4c-1.5,0.3-3.7,1.1-5.5,3c-1.2,1.3-2.9,3.9-2.5,11.5c0.1,3,0.5,5.9,2.5,13.5
			c1.4,5.4,2.6,9.5,3.5,12.4c5.9,13.6,10.1,23.4,11.9,28.2c0.5,1.2,1.6,4.4,3.5,4.5c0.8,0,1.7-0.6,2.1-1.2c1.1-1.7-0.1-4-1.1-6.4
			c-1.4-3.2-2.3-6.6-3.7-9.8c-1.9-4.3-3-7.5-4.7-12.7c-2.5-7.6-3.7-13.7-4.4-17.1c-1.2-6-2-10-2.1-15.6
			C468,306.5,468.3,302.9,468.6,300.4z"/>
		<path class="st0" d="M473.2,405.3c-1.3-0.6-2.7,0.1-3.5,0.5c-2.7,1.4-3.7,4.4-4,5.3c-0.4,1.3-0.8,2.6-0.4,4.1
			c0.4,1.3,1.4,2.8,3,3.3c2.9,0.9,5.4-2.3,5.8-2.9c0.1-0.1,2.2-3.1,1.4-6.7C475.3,408.1,474.8,406,473.2,405.3z"/>
		<path class="st0" d="M465.6,431.1c-1.7-0.6-3.5,0.2-4.6,1.1c-1.5,1.3-1.8,3.1-2,5c-0.3,1.9-0.4,3.3,0.4,4.5c1.2,1.7,4,2.2,6.1,1.4
			c2.9-1.2,3.3-4.7,3.4-5.2C469.1,435.5,468.2,432,465.6,431.1z"/>
		<path class="st0" d="M463.4,457.2c-1.4-0.5-2.7,0.1-3.5,0.5c-2.8,1.4-3.7,4.2-4,5.1c-0.4,1.2-0.8,2.5-0.4,3.9
			c0.4,1.3,1.5,2.7,3,3.1c2.9,0.8,5.4-2.2,5.9-2.7c0.1-0.1,2.3-2.9,1.4-6.4C465.6,459.9,465.1,457.9,463.4,457.2z"/>
		<path class="st1" d="M538.3,299.1c-3.8,1.9-6.2,4.4-7.3,5.6c-1.8,2-2.9,3.6-4.1,5.5c-0.8,1.3-2.7,4.3-4.4,8.6
			c-1,2.5-3,7.8-3.9,14.9c-0.3,2.5-0.3,4.4-0.4,8c0,1.2-0.1,7.3,1.2,9.9c0.4,0.9,1.9,3,2,3.1c0,0,0.2,0.3,0.3,0.3s0,0,0,0
			c0,0,0,0,0,0c0.9,1.1,1.7,1.4,2.1,2.5c0.4,1.2,0.2,2.8-1.7,5.6c-3.4,5-8.1,7.8-7.9,8.1c0.2,0.2,2.8-1.8,4.9-1.1
			c0.4,0.1,1,0.3,1.6,0.6c0.9,0.5,1.6,1,2,1.4c0.9-3.4,2.3-5.5,3.4-6.9c1-1.3,3-3.3,4.6-5.4c2.4-3,2.1-2.9,3.5-4.4
			c3-3.2,5.9-4.8,6.6-5.2c2.4-1.3,3.6-1.9,5.2-1.9c1.8,0,3.2,0.8,5.6,0.2c0.7-0.2,1.2-0.4,1.6-0.5c2-0.8,3.3-1.3,3.9-2.6
			c0.6-1.4,0.3-3.2-0.6-4.4c-0.6-0.7-0.9-0.6-1.1-1.1c-0.6-1.5,2-3.9,4.6-6.4c1.3-1.2,2.7-2.5,4.9-3.9c2.6-1.7,3.1-1.4,4-2.2
			c3.4-3.3,0.2-11.9-0.1-12.6c-1.7-4.4-5.3-7.1-12.4-12.6c-6.4-5-8.9-5.7-11.1-5.6C542.5,296.9,540.5,298,538.3,299.1z"/>
		<path class="st0" d="M545.1,325.6c-2.8,0.1-4.5,2-4.8,2.3c-0.3,0.4-2.4,2.8-1.6,5.7c0.8,2.9,3.7,3.9,4,4c3.6,1.2,6.6-1.5,7-1.9
			c0.4-0.4,3.1-2.8,2.4-5.6c-0.4-1.8-2-2.8-3-3.4C548.5,326.4,547.1,325.5,545.1,325.6z"/>
		<path class="st0" d="M532.3,308.4c-1.5-1.1-3.6,0.1-3.8,0.3c-1.2,0.7-1.6,1.8-2,2.5c-0.3,0.6-0.5,1.2-0.4,1.9c0,0,0.2,1,1,1.6
			c1.3,0.9,3.4,0.1,4.5-0.7c0.4-0.3,1.8-1.4,1.8-3.1C533.5,310.7,533.4,309.2,532.3,308.4z"/>
		<path class="st0" d="M518.2,334.5c0.5-0.4,1.5,0.5,5.5,2.7c2.8,1.6,3.5,1.8,4,2c2.2,0.6,4,0.1,5.1-0.2c1.4-0.3,3-0.7,4.4-2.1
			c1.5-1.5,1.8-3.1,2.5-3c0.5,0.1,1,1.3,0.8,2.4c-0.5,3.6-7.1,5.4-7.9,5.6c-0.7,0.2-1.9,0.5-3.5,0.5c-2.6,0-4.5-0.9-6.5-1.8
			c-1.8-0.8-2.8-1.4-3.6-2.7C518.1,336.7,517.6,334.9,518.2,334.5z"/>
		<path class="st0" d="M540.3,290.1c1.1-3.8,2.9-8.8,6-14.5c2.8-5.3,5.6-8.8,8.6-12.7c6-7.7,10.8-12.1,12.2-13.4
			c3-2.6,4.4-4,5.8-4.6c8.1-4,18.1,0.9,22.7,3.1c2.4,1.2,11.1,6,18.3,16.3c5,7.1,6.2,13.4,7.9,20.8c0,0,2.2,10-0.4,14.7
			c-1,1.8-2.4,3.6-2.4,3.6c-0.8,1-1.5,1.6-1.7,1.9c-1.1,1.2-1.5,8.6-3.6,11.8c-1.8,2.7-5.4,3.1-8.6,3.6c-2.1,0.3-2.8,0-12.7-0.4
			c-2.4-0.1-3.6,0.1-4.9,0.9c-1.7,1-2,2.1-3.2,2.8c-1.1,0.8-1.6,0.2-3.5,0.8c-1.6,0.4-1.8,1-6.1,4.2c-2,1.4-2.8,2-4.1,2.4
			c-0.9,0.3-2.5,0.7-3.5-0.1c-1-0.8-0.9-2.5-0.9-3.7c0.2-7.7-8.4-17-9.5-18.3c-4.2-4.6-8.6-6.9-12.4-9c-3.7-2-7-3.3-9.4-4.1
			C536.6,294.2,538.4,292.2,540.3,290.1z"/>
		<path class="st0" d="M471.9,293.3c4,1.3,8.1,2.7,12.1,4c3.9-3.8,5.5-7.6,6.2-9.7c2-5.8,1-10.7-0.6-18.7c-0.7-3.4-1.6-6.3-3.5-9.3
			c-0.5-0.7-3.8-5.8-5.9-5.1c-1.3,0.4-1.6,2.9-1.7,4.1c-0.8,3.4-2.1,8.5-4.3,14.5c-4.7,13.1-9.9,21.3-7.9,22.6
			C466.9,296,468.3,295.9,471.9,293.3z"/>
		<path class="st1" d="M480.9,261.1c1.6,0,2.8,4.1,4.4,9.3c0,0,1.4,4.7,1.7,10.9c0,1,0,2-0.2,3.2c-0.2,0.8-0.2,1.1-1.6,3.9
			c-1,2-0.9,2.4-1.5,3c-0.9,0.7-1.7,0.5-3.3,0.8c-3.1,0.5-3.7,2.3-4.7,2c-1.4-0.5-0.9-4.2-0.3-13.2c0.4-4.9,0.4-5.3,0.4-5.6
			c0,0,0-0.1,0-0.2C478,261.2,480.9,261.1,480.9,261.1z"/>
		<path class="st1" d="M469.6,294.2c-1.4,2.1-4.5,3.2-5.4,2.3c-0.6-0.6-0.2-1.8,2.7-8.8c3.1-7.5,3.6-8.6,3.9-8.5
			c0.5,0.1-0.4,2.8-0.4,8.7C470.4,291.3,470.6,292.7,469.6,294.2z"/>
		<path class="st1" d="M550,288.8c-2-1.5-2.2-2.2-2.2-2.6c-0.1-1,0.5-1.9,0.7-2.2c3.2-4.5,3.2-9.9,10.9-19.1
			c2.7-3.2,5.1-5.4,6.7-6.9c5-4.5,7.5-6.8,9.9-7.7c6-2.2,12,0.6,16.9,2.9c2.2,1,10.9,5.4,16.2,14.3c3.5,6,5.5,14,5.8,15.5
			c0.1,0.2,0.1,0.4,0.1,0.4c1,4.5,2.2,9.4,0.3,13.5c-1,2.2-2.1,2.2-3.7,5.6c-0.9,2-1.2,3.2-1.2,3.6c-0.3,2,0.1,2.5-0.2,4.1
			c-0.4,1.9-1.6,3.5-2.6,4.3c-0.9,0.8-2.4,1.5-6.6,1.7c-7.4,0.3-11.6-2-14,0.2c-0.3,0.2-1,1-2.2,1.9c-1.5,1.1-2.3,1.6-3,1.5
			c-1.1-0.2-1.4-1.9-2.2-4.5c-1.5-4.5-3-4.9-2.6-6c0.7-1.9,11.5-0.7,12.2-2.8c0.2-0.8-1-2.2-2.4-2.8c-3.8-1.5-6.9,3.4-11.6,2.2
			c-0.3-0.1-3.3-0.9-3.7-2.8c-1.1-4.4,12-10.4,11.2-11.8c-0.3-0.7-3.4-0.1-6,1.1c-4,1.9-4.3,4.4-7.1,4.9c-2.5,0.4-5.7-0.9-6.2-2.8
			c-0.9-3.7,8.8-8.3,7.7-10.9c-0.4-0.8-1.7-1.2-2.6-1.1c-3.6,0.2-4.3,6.2-9.7,8.4c-1.2,0.5-2,0.5-2.4,0.6
			C553.7,291.5,552,290.2,550,288.8z"/>
		<path class="st1" d="M544.2,291.4c-1.5,0.4-1.8,3-1.9,3.4c2.1,0.6,4.5,1.6,7.1,3c5.7,3.1,9.1,7,10.7,8.8c6.1,7,8.5,14.5,9.5,18.9
			c1.9-0.8,3.9-1.6,5.8-2.4c-0.2-1.4-0.6-3.5-1.5-6c-2.7-7.5-7.8-12-11.4-15.2c-2.6-2.2-6.6-5.3-12.2-7.9c-1.6-1-2.9-1.6-3.9-2.1
			C545.2,291.4,544.7,291.3,544.2,291.4z"/>
		<g>
			<path class="st0" d="M529.4,317.7L529.4,317.7c-2,1.2-4.8,3.1-7.6,5.8c-2.9,2.7-4.3,4.1-4.1,5.8c0.4,2.8,5,5.3,9.1,5
				c3.3-0.2,5.4-2.2,6.6-3.3c4.8-4.5,4.3-10.6,4.1-12.4"/>
			<path class="st1" d="M531.1,316.7L531.1,316.7c-1.4,1-3.2,2.6-5.1,4.7c-1.9,2.2-2.9,3.4-2.7,4.7c0.3,2.3,3.4,4.3,6.2,4.1
				c2.2-0.2,3.7-1.8,4.5-2.7c3.3-3.7,2.9-8.7,2.7-10.2"/>
		</g>
		<path class="st0" d="M545.3,315.7c-1.7-1.3-3.9,0.2-4.2,0.3c-1.3,0.8-1.8,2.1-2.1,2.9c-0.3,0.7-0.6,1.3-0.4,2.2
			c0,0.1,0.2,1.2,1.1,1.8c1.4,1.1,3.7,0.1,4.9-0.9c0.5-0.4,1.9-1.6,1.9-3.5C546.5,318.2,546.5,316.6,545.3,315.7z"/>
		<path class="st3" d="M544,328c-1.9,0.1-3,1.4-3.2,1.6c-0.2,0.3-1.6,1.8-1.1,3.8c0.5,1.9,2.5,2.6,2.7,2.7c2.4,0.8,4.4-1,4.7-1.3
			c0.3-0.2,2.1-1.9,1.6-3.8c-0.3-1.2-1.4-1.9-2-2.3C546.3,328.5,545.4,328,544,328z"/>
	</g>
	<g id="XMLID_3_">
		<g>
			<path class="st1" d="M411.2,425.7c8.8-29.1,58.1-198.1,66.4-243.9c0.6-3.5,2.7-15.4,9-29.9c3.8-8.7,7.3-16.9,14.4-24.9
				c1.7-1.9,22.6-24.8,50.7-21.8c4.3,0.5,17.8,2.1,25.7,12.5c8.8,11.5,5.7,23.4-8.1,27.2c-6.8,1.9-14.5,0.3-21.8,0.3
				c-9.1,0-18.4-1.1-27.2,0.5c-8.8,1.6-15.1,8.3-18,17.1c-11.8,35.8-53,183.4-88.7,274.2l-5.4-2.1
				C409.1,432.6,410,429.6,411.2,425.7z"/>
			<path class="st1" d="M255.5,389.3c46.7,9.2,92,22.5,134.2,45.1c12.7,6.8,15.4,8.5,18.5,0.4l5.4,2.1c-1.3,3.3-2.6,6.5-3.9,9.7
				c-9.2,22.5-23.3,52.6-54.1,69.4c-23.8,13-47.6,12.6-55.5,12.2c-31.1-1.6-48.1-11.6-60.2-22.2c-6.8-6-15.4-16.4-22.4-28.6
				c-11.3-19.5-14.7-37.2-15.3-41.9c-0.2-1.4-1.3-9.6-1.3-9.6c-0.1-0.6-1.7-9.2,0.3-28.4c0.2-2.4,0.7-6.3,3.7-9.1
				c2.5-2.4,6.3-3.5,10.7-3.2C229,386.2,242.4,386.7,255.5,389.3z"/>
		</g>
	</g>
	<path class="st3" d="M227.6,403c2.3-6.9,55.7,3.9,99.6,19.1c6.7,2.3,59.5,20.7,57.6,29.2c-0.6,2.8-6.9,3.7-12.3,4.1
		c-24.7-4.3-45.5-9-61.4-13.1c-28.2-7.2-43.4-12.7-58.9-21.2C241.3,415,226.3,406.8,227.6,403z"/>
	<path class="st5" d="M230.5,406.2c-0.7-0.6-1.5-1.4-1.3-2.1c1.2-4.3,39.6,2.9,42.6,3.5c20.2,3.8,34.7,8.3,49.9,13.1
		c31.3,9.8,47.6,11.6,61.8,26.5c1.3,1.4,2.4,2.6,3.1,3.5c-0.3,0.7-0.9,1.8-1.9,2.7c-2,1.8-4.4,2.9-12.7,1.9
		c-4.4-0.5-8.5-0.1-14.4-0.8c-4-0.5-6.9-1.2-8.3-1.5c-26.4-5.7-45.3-11.5-45.3-11.5c-43.2-13.7-55.4-21.2-63.7-27.3
		C236,410.9,232.7,408.1,230.5,406.2z"/>
	<path class="st0" d="M336.4,417.7c-8-3-40.2-15.1-86-22c-37.8-5.7-40.5-2.3-41-1c-1.4,4,9,11.2,16.1,16.1c7.2,5,17,10.7,46.6,21.5
		c11.7,4.3,22.4,8.1,37.4,12.3c9.3,2.6,20.5,5.7,35.3,8.2c10.6,1.8,24.9,3.6,42,4.1c4.1-1,8.6-2.6,9.2-5.6
		C398.1,441.1,353.9,424.4,336.4,417.7z"/>
	<path class="st3" d="M235.8,406.1c1.4-4.6,43.4,2.9,78.3,13.1c37,10.8,78.2,28.3,76.8,33c-1.4,4.8-45.9-3.3-82.9-14.6
		C273.9,427.2,234.4,410.7,235.8,406.1z"/>
	<path class="st0" d="M307.1,400.8c0,0.6-0.3,2.1-0.1,4.1c0.4,4.6,2.4,8.3,4.2,10.8c0.6,0.2,1.5,0.5,2.5,0.4
		c5.2-0.4,8.2-9.4,10.4-14.9c4.6-11.9,9.8-20.3,16.2-30.7c7.9-12.8,12.1-15.2,13.7-24.5c0.6-3.8,1.7-10.5-2.4-15.6
		c-3.8-4.8-10.3-6-12.5-6.2c-1.4-0.2-3.5-0.4-5.8,0.2c-4.5,1.2-8.3,4.7-10.6,10.4C313.5,356,308.3,378,307.1,400.8z"/>
	<path class="st0" d="M266.8,311.6c-1.5-3.4-4.2-9.6-1.7-16.2c3.3-8.5,12.8-10.6,13.7-10.8c1.8-0.4,6.6-1.1,11.6,1.2
		c4.5,2.1,7.1,5.6,10.4,11.6c6.4,11.5,9.9,22.4,12.4,31.5c1.4,5.2,3.1,11.4,4.6,19.9c1.2,6.9,3,17.8,2.5,31.9
		c-0.3,8.6-1.5,20.4-5.4,34c-1.5,1.6-3.5,3.4-5.4,2.9c-4.1-1-4.1-11.8-5.8-23.6c-2.8-13.8-6.2-24.9-9.1-33.2
		c-2.1-6-4.2-11.8-7.9-19.1c-2.9-5.8-6.1-11.9-11.6-19.1C270.5,317,268.8,316.2,266.8,311.6z"/>
	<path class="st0" d="M322.8,265.6c-0.1-0.2-0.2-0.5-0.4-0.8c-1.3-2.6-2-4.6-2.1-5c-0.9-2.4-6.1-8.7-13.1-8.2
		c-4.5,0.4-8.5,3.4-10,6.9c-1.6,4.1-1.2,8.6-0.2,12.8c1.7,7,4.9,13.4,8,19.7c5,9.9,9.9,19.8,14.9,29.7c10.7-15.2,20-28.7,28.1-40.4
		c2.7-3.8,7.3-10.6,5.4-17.6c-1.5-5.7-6.4-8.4-7.1-8.7c-6.6-3.5-14.6-0.7-19.1,3.7C324.4,260.6,323.2,263.8,322.8,265.6z"/>
	<path class="st3" d="M315.7,384.9c0.2-31-7.7-59.8-22.1-87c-1.4-2.7-4.2-5.1-6.9-6.5c-4.6-2.3-10.5-0.3-13.7,3.8
		c-3.5,4.5-3.5,10.1,0.5,15.4c11.1,14.8,20.4,30.6,26.6,48.2c5.6,15.9,8.3,32.4,9.6,49.2c0.1,1.5,1.4,2.8,2.2,4.2
		c0.8-1.5,2.1-2.9,2.2-4.4C314.8,400.1,315.2,392.5,315.7,384.9z"/>
	<path class="st3" d="M311.2,404.3c-0.1,1.3-0.3,2.7-0.1,4c0.3,1.7,1,3.4,1.5,5.1c1.1-1.3,2.6-2.5,3.3-4.1
		c3.9-9.4,6.8-19.3,11.5-28.2c5.6-10.9,12.4-21.1,19.1-31.4c5.3-8.3,1.9-18.2-7.3-20.1c-6-1.2-11.4,2.6-14.4,10.3
		C316.9,360.7,312.3,382.1,311.2,404.3z"/>
	<path class="st3" d="M323.2,271.6c0,0,0.4,0.8-1.1-1.5c-1.5-2.4-6.6-9.1-11.6-9c-2.9,0.1-6.1,2-7.2,4.9c-1.1,2.9-0.8,6.2,0,9.2
		c1.3,5.1,3.7,9.7,6.1,14.4c3.8,7.2,7.5,14.5,11.3,21.7c6.7-9.6,13.4-19.3,20.1-28.9c2.6-3.8,5.3-7.7,5.9-12.2
		c0.6-4.3-2-9.9-5.9-11.1c-4.7-1.5-11,3.8-14.3,8.2C323.2,271.6,323.2,271.6,323.2,271.6z"/>
	<g>
		<path class="st6" d="M635.7,641.6c0.1,0,0.3,0,0.4,0c-0.2-4.1-0.3-8.2-0.7-12.3c-0.7-6.8-2.2-13.3-5.4-19.4
			c-2.3-4.3-5.2-7.9-9.7-10.1c-4.5-2.1-9.2-2.1-14-1.7c-1.6,0.1-3.2,0.5-4.7,1.1c-2,0.8-2.9,2.3-2.6,4.5c0.3,2.1,0.6,4.2,1.1,6.2
			c1.2,4.9,1.9,9.8,1.7,14.8c-0.2,4.8-0.5,9.7-0.3,14.5c0.5,10.4,1.6,20.8,2.1,31.2c0.3,5.6,0.1,11.2-0.1,16.8
			c-0.1,2.3-0.5,4.7-2,6.7c-0.6,0.8-0.7,1.6-0.3,2.3c0.5,0.8,1.1,1.7,1.9,2.2c2.2,1.5,4.7,1.5,7.2,1.1c4.5-0.8,7.9-3.4,10.7-6.8
			c8-9.8,12.4-21.2,14.4-33.6c0.4-2.8,0.3-5.6,0.3-8.5C635.8,647.6,635.7,644.6,635.7,641.6z M582.9,645.2
			C582.9,645.2,582.9,645.2,582.9,645.2c-0.1-0.7-0.1-1.4-0.1-2.2c-0.3-7.5-0.4-14.9-1.8-22.3c-0.9-4.7-1.7-9.4-3.9-13.8
			c-1.6-3.3-3.4-6.4-6.5-8.6c-4.1-2.9-11.9-4.1-16.3,1.1c-1.6,1.9-2.8,4-3.6,6.3c-1.9,5.7-2.6,11.5-2.8,17.5
			c-0.2,6.1,0,12.1-0.1,18.2c-0.1,10.2,0.3,20.3,1.7,30.4c0.8,6.1,1.9,12.1,4.1,17.8c1.6,4.1,3.5,8,6.9,10.9c4,3.5,9.2,3.7,12.9,0.5
			c4.3-3.6,6.7-8.3,7.3-13.9c0.6-5.8,0.7-11.7,1.3-17.6c0.6-5.7,1-11.3,0.9-17C582.9,650.1,582.9,647.6,582.9,645.2z M653,638.4
			c0,1,0,2,0,3c-0.2,10.2,0.3,20.3,1.7,30.4c0.8,6,1.9,12,4.1,17.7c1.6,4.2,3.6,8.1,7.1,11.1c3.9,3.3,9.1,3.5,12.7,0.4
			c4.3-3.6,6.8-8.3,7.3-13.9c0.5-5.5,0.8-11.1,1.2-16.6c0.3-4.9,0.8-9.7,0.9-14.6c0.1-5,0-10-0.2-15c-0.2-8.1-0.7-16.1-2.4-24.1
			c-1.2-5.7-3.1-11.1-6.7-15.8c-6.2-8.1-17.7-6.9-21.9,2.3c-0.9,2-1.6,4.3-2.1,6.5C652.6,619.3,652.7,628.9,653,638.4z M143.7,638.4
			c0,0.8,0,1.7,0,2.5c-0.2,10.3,0.3,20.5,1.7,30.7c0.9,6.3,2,12.5,4.3,18.4c1.6,3.9,3.5,7.6,6.8,10.5c3.9,3.3,9.1,3.6,12.7,0.5
			c4.3-3.7,6.8-8.3,7.4-14c0.5-5.5,0.8-11,1.2-16.5c0.3-4.7,0.8-9.5,0.9-14.2c0.1-5.2-0.1-10.4-0.2-15.6c-0.2-8.4-0.8-16.8-2.6-25.1
			c-1.2-5.3-3.1-10.3-6.5-14.7c-6.3-8.1-17.8-6.9-21.9,2.5c-1.4,3.1-2.2,6.6-2.8,10C143.4,621.8,143.4,630.1,143.7,638.4z
			 M255.5,687.7C255.6,687.7,255.6,687.7,255.5,687.7c0,2.8,0,5.5,0,8.3c0,1.2,0.4,2.3,1.5,2.8c1.9,1,3.9,1,5.8,0.1
			c1.7-0.8,2.2-2.5,2.2-4.2c-0.2-4.9-0.3-9.7-0.7-14.6c-0.6-7.5-1.3-14.9-1.9-22.3c-0.5-6.9-0.7-13.8-1.4-20.7
			c-1.2-12.2-2.6-24.4-4-36.6c0-0.3-0.1-0.7-0.3-0.8c-1.6-1.6-5.6-1.4-6.9,0.5c-1,1.5-1.9,3.1-2.6,4.8c-2.5,6.3-4.3,12.8-5.5,19.4
			c-3.7,19.6-7.2,39.2-10.8,58.8c-0.7,3.6-1.7,7.1-2.7,10.7c-0.4,1.3-0.5,2.3,0.8,2.9c1.3,0.7,2.8,0.9,4.3,1.3
			c0.8,0.2,1.4-0.2,1.6-1c0.9-2.8,1.9-5.7,2.7-8.6c0.9-3.5,1.4-7.1,2.4-10.6c0.8-3,0.5-2.5,3.4-2.2c0.2,0,0.5,0,0.7,0.1
			c3.4,0.7,6.9,1.4,10.3,2.2c0.9,0.2,1.3,0.8,1.3,1.8C255.5,682.3,255.5,685,255.5,687.7z M358.7,677.5c4.3,0.7,8.5,1.3,12.7,2
			c0.2,0,0.5,0.4,0.6,0.7c0.3,1.3,0.5,2.6,0.7,3.9c0.4,4.1,0.8,8.3,1.1,12.4c0.2,1.9,1,2.9,2.8,3.4c0.7,0.2,1.3,0.3,2,0.3
			c1.9,0.1,3-0.8,3.1-2.8c0.1-1.1,0-2.2-0.1-3.3c-0.8-5-1.6-9.9-2.4-14.9c-0.4-2.5-1.1-4.9-1.2-7.4c-0.3-11.1-1.9-22.1-3.3-33.1
			c-1-8.1-2-16.3-2.1-24.5c0-2.4-1.1-3.7-3.6-3.9c-1.4-0.1-2.9,0-4.3-0.1c-1.1-0.1-1.7,0.3-1.9,1.3c-0.5,2.6-1.1,5.2-1.4,7.9
			c-0.5,4.3-0.7,8.7-1.4,13c-1.9,11.7-3.9,23.3-6.2,34.9c-1.9,9.6-4.4,19.1-6.6,28.7c-0.1,0.6,0,1.4,0.3,1.9c1.2,2,5.4,3.2,7-0.2
			c0.4-0.9,0.8-1.8,1-2.8c0.6-3.3,1.1-6.5,1.7-9.8C357.8,682.5,358.2,680.1,358.7,677.5z M445.2,677.5c4.4,0.7,8.5,1.3,12.6,1.9
			c0.3,0.1,0.7,0.5,0.8,0.8c0.6,5,1.3,10.1,1.7,15.1c0.3,3.3,1.2,4.5,4.5,4.8c2.3,0.2,3.4-0.8,3.6-3.1c0-0.6,0-1.1,0-1.7
			c-0.2-1.7-0.5-3.5-0.8-5.2c-1.1-7-2.5-13.9-3.1-20.9c-1-11.3-2.5-22.5-3.6-33.8c-0.7-7.1-1.2-14.2-1.7-21.4
			c-0.2-2.4-1.1-3.6-3.5-3.9c-1.5-0.1-3,0-4.4-0.1c-1-0.1-1.6,0.3-1.8,1.2c-0.5,2.4-1.1,4.7-1.4,7.1c-0.7,6-1.1,12-2.1,18
			c-1.9,11.6-4,23.2-6.4,34.7c-1.7,8.3-3.9,16.5-5.8,24.8c-0.1,0.6,0.1,1.4,0.4,1.9c1.7,2.6,5.7,2.4,7.1-0.4
			c0.4-0.7,0.7-1.5,0.8-2.2c0.5-2.6,1-5.3,1.4-7.9C444.1,684.1,444.6,680.9,445.2,677.5z M198.6,661c-0.1,0-0.2,0-0.3,0
			c0,3,0,6.1,0,9.1c-0.1,6.6-0.2,13.3-0.3,19.9c0,2-0.1,4,0,6c0.2,3.2,2.4,4.8,5.3,3.9c2-0.6,3.1-2.4,3.2-5.1c0-2.6,0-5.1-0.1-7.7
			c-0.3-10.9-0.6-21.9-1-32.8c0-0.9,0.2-1.4,1-1.8c3.5-2,6.5-4.7,8.9-7.9c3.9-5.3,6-11.3,6.6-17.9c0.7-7.4-0.5-14.5-4.7-20.9
			c-3.9-5.9-9.5-8.9-16.6-8.9c-2.3,0-3.9,1.2-5.1,3c-0.2,0.3-0.2,0.7-0.1,1.1c0.4,2.5,0.9,5,1.2,7.4c1.6,11.8,2,23.6,2.1,35.5
			C198.6,649.7,198.6,655.3,198.6,661z M403.4,654.7c1.4-0.5,1.9-0.1,2.1,1c1.5,7.1,3.2,14.1,4.6,21.2c1.3,6.4,2.6,12.8,5.3,18.9
			c0.6,1.4,1.4,2.8,2.3,4c1,1.4,2.6,1.7,3.8,1.1c1.2-0.6,2-2.2,1.6-3.8c-0.3-1.2-0.7-2.4-1.3-3.6c-2.3-4.6-4.2-9.4-5.3-14.5
			c-2-9.1-3.8-18.1-5.6-27.2c-0.1-0.4,0.1-0.9,0.3-1.3c1.2-2.4,2.7-4.7,3.8-7.2c1-2.3,2-4.6,2.2-7c0.4-4.6,0.3-9.2,0.2-13.8
			c-0.1-2.5-1-4.8-2.8-6.8c-3.8-4.3-8.7-5.5-14.2-5.3c-1.3,0.1-2.4,0.8-2.8,2.1c-0.4,1.2-0.7,2.5-0.7,3.7c0.1,8.3,0.2,16.5,0.5,24.8
			c0.4,10.5,1,21,1.3,31.5c0.2,8.1,0.2,16.2,0.3,24.3c0,2,1.2,3.2,3.2,3.2c0.6,0,1.1,0,1.7,0c0.2,0,0.6-0.1,0.6-0.2
			c0.4-1.4,1.5-2.6,1.2-4.4c-0.7-4.2-1.5-8.4-1.8-12.7c-0.4-7.1-0.4-14.3-0.5-21.4C403.4,659.1,403.4,656.9,403.4,654.7z M119,675.6
			c-0.3,2.3-0.5,4.7-1,7c-0.8,3.5-1.7,7.1-4,10c-2.2,2.8-4.3,3.4-7.3,2.1c-1.4-0.6-2.9-1.1-4.3-1.3c-2.2-0.4-3.7,0.9-4,3.1
			c-0.2,1.9,0.4,3.1,2.3,4c5.2,2.5,13.6,3.2,19.4-2.7c4.5-4.6,6.6-10.4,7.3-16.6c1.1-9.9-0.8-19.4-5.1-28.4
			c-2.8-5.7-5.7-11.4-8.5-17.2c-2.7-5.5-4.5-11.2-5.1-17.4c-0.4-4.4,0-8.7,3.1-12.2c0.8-0.9,1.8-1.5,2.8-2.1c0.4-0.2,1,0,1.6,0.1
			c1.4,0.3,2.9,0.6,4.3,0.9c0.3,0.1,0.7,0,0.9-0.2c2.7-2.1,2.7-4,0-6.2c-0.1-0.1-0.1-0.1-0.2-0.1c-3.9-3.1-9.9-2.7-13.9,0.8
			c-5,4.3-7.1,9.9-7.2,16.2c-0.2,7.6,1.9,14.6,5,21.4c2.7,5.9,5.7,11.6,8.5,17.5C116.6,661.1,118.7,668.1,119,675.6z M723.9,675.6
			c-0.4,2.4-0.5,4.8-1.1,7.1c-0.8,3.5-1.7,7-4,9.9c-1.9,2.4-4,3.5-7.3,2.1c-1.4-0.6-2.9-1.1-4.4-1.3c-2.1-0.3-3.6,1-3.9,3.2
			c-0.2,1.9,0.4,3.1,2.3,4c5.8,2.8,14.5,3.1,20.3-3.7c3.8-4.5,5.8-9.8,6.4-15.5c1.1-10-0.8-19.5-5.1-28.5
			c-2.7-5.6-5.6-11.2-8.4-16.8c-2.3-4.5-3.9-9.2-4.8-14.1c-0.6-3.7-1.1-7.4,0.1-11c0.9-2.7,2.2-5.1,4.8-6.6c0.8-0.4,1.5-0.4,2.4-0.1
			c1.3,0.5,2.8,0.6,4.2,0.8c0.2,0,0.6-0.1,0.8-0.2c2.7-2.1,2.6-4,0-6.2c-0.1-0.1-0.2-0.1-0.3-0.2c-4-3-9.9-2.6-13.8,0.9
			c-5.5,4.7-7.3,10.9-7.2,17.8c0.1,5.8,1.4,11.4,3.7,16.6c2.8,6.4,6,12.7,9,19C721,660,723.5,667.5,723.9,675.6z M314.1,673.7
			c-0.2,0-0.3,0-0.5,0c0,1.4,0,2.7,0,4.1c-0.1,7,0,13.9,1.4,20.8c0.5,2.3,3.1,3.6,5.2,2.5c1.4-0.8,2.3-1.9,2.2-3.7
			c-0.2-5.1-0.6-10.2-0.7-15.3c-0.2-7.5-0.2-14.9-0.4-22.4c0-1.1,0.3-1.5,1.3-1.8c7.6-2.5,12.8-7.1,13.5-15.5
			c0.4-4.4,0.4-8.9,0.4-13.4c0-3.5-0.9-7-2.4-10.2c-1.7-3.7-4.5-5.9-8.5-6.4c-2.5-0.3-5-0.2-7.5-0.3c-2.3,0-4.7,2.6-4.3,4.9
			c1,5.2,1.1,10.5,0.9,15.8c-0.1,5.4-0.2,10.7-0.6,16c-0.2,2.9-1.5,5.7-0.2,8.6c0.1,0.2,0,0.5,0,0.7
			C314.1,663.3,314.1,668.5,314.1,673.7z M523.1,606.2c1.1,0,2.1,0,3.1,0c1,0,1.9,0.1,2.9,0.1c2-0.1,3.6-1.4,3.9-3.2
			c0.5-2.7-1.6-5.2-4.7-5c-5.9,0.4-11.9,0.9-17.8,1.6c-1.8,0.2-3.7,0.9-5.3,1.7c-2.3,1.1-2.4,3.8-0.4,5.2c1,0.7,2.3,1.1,3.5,1.2
			c1.9,0.1,3.8-0.3,5.7-0.5c0.9-0.1,1.3,0.1,1.4,1c0.3,2.9,0.7,5.9,0.8,8.8c0.1,7.2-0.1,14.4,0.1,21.6c0.2,7.5,0.7,14.9,1.2,22.4
			c0.4,6.9,0.5,13.9-0.1,20.8c-0.3,3.8-0.4,7.7-0.6,11.5c-0.1,1.8,0.3,3.5,1.3,5c0.9,1.5,2.2,2.1,4,2c1.6-0.2,2.7-1.1,3.1-2.6
			c0.4-1.4,0.7-2.8,0.7-4.2c-0.2-5.7-0.6-11.3-0.8-17c-0.4-8.6-0.8-17.2-1-25.9c-0.2-6.1-0.2-12.3-0.3-18.5
			c-0.1-6.7-0.1-13.3-0.2-20C523.6,610.2,523.3,608.2,523.1,606.2z"/>
		<path d="M635.7,641.6c0,3,0,6.1,0,9.1c0,2.8,0.1,5.7-0.3,8.5c-2,12.4-6.4,23.8-14.4,33.6c-2.8,3.4-6.2,6-10.7,6.8
			c-2.5,0.4-5,0.4-7.2-1.1c-0.8-0.5-1.4-1.4-1.9-2.2c-0.4-0.7-0.3-1.5,0.3-2.3c1.4-2,1.9-4.4,2-6.7c0.2-5.6,0.4-11.2,0.1-16.8
			c-0.5-10.4-1.6-20.8-2.1-31.2c-0.3-4.8,0.1-9.7,0.3-14.5c0.2-5-0.5-9.9-1.7-14.8c-0.5-2-0.9-4.1-1.1-6.2c-0.3-2.1,0.6-3.7,2.6-4.5
			c1.5-0.6,3.1-1,4.7-1.1c4.8-0.4,9.5-0.4,14,1.7c4.5,2.2,7.5,5.8,9.7,10.1c3.2,6.1,4.7,12.6,5.4,19.4c0.4,4.1,0.5,8.2,0.7,12.3
			C636,641.5,635.9,641.6,635.7,641.6z M608.1,606.9c0,0.5,0,0.9,0,1.3c0.1,4.5,0.2,9,0.4,13.5c0.4,8,0.9,16,1.3,23.9
			c0.4,8.3,1,16.6,1.2,24.9c0.2,6.2,0.1,12.5,0.1,18.7c0,0.4,0,0.8,0.1,1.5c0.7-0.6,1.3-1,1.9-1.4c3.7-3.1,6.4-7,8.4-11.4
			c4.2-8.8,5.7-18.3,6.4-28c0.6-7,0.1-14-1-20.9c-0.9-6.1-3.2-11.7-7.1-16.5C617,608.7,613,607,608.1,606.9z"/>
		<path d="M582.9,645.2c0,2.5,0,5,0,7.4c0.1,5.7-0.3,11.3-0.9,17c-0.6,5.8-0.7,11.7-1.3,17.6c-0.5,5.6-3,10.2-7.3,13.9
			c-3.7,3.2-9,2.9-12.9-0.5c-3.4-3-5.3-6.8-6.9-10.9c-2.2-5.7-3.2-11.8-4.1-17.8c-1.4-10.1-1.9-20.2-1.7-30.4
			c0.1-6.1-0.1-12.1,0.1-18.2c0.2-5.9,0.9-11.8,2.8-17.5c0.8-2.3,1.9-4.4,3.6-6.3c4.4-5.1,12.3-4,16.3-1.1c3.1,2.2,4.8,5.4,6.5,8.6
			c2.2,4.3,3,9.1,3.9,13.8c1.4,7.4,1.5,14.9,1.8,22.3C582.8,643.7,582.8,644.4,582.9,645.2C582.9,645.2,582.9,645.2,582.9,645.2z
			 M575.7,651.8c0.2-7-0.4-14.2-1.2-21.5c-0.6-5.5-1.3-11-3.1-16.3c-1-2.8-1.9-5.7-4-8c-3.2-3.5-6.8-2.9-8.4,1.5
			c-1.2,3.4-2.2,6.9-2.7,10.4c-1.5,9.9-1.9,19.8-1.4,29.8c0.4,8.3,1.6,16.5,2.7,24.8c0.7,5.3,1.9,10.5,3.9,15.4c0.9,2.3,2,4.5,4,6
			c1.8,1.5,3.6,1.4,4.9-0.6c0.9-1.5,1.8-3.1,2.1-4.8c0.9-3.9,1.6-7.9,2.1-11.9C575.6,668.5,576,660.3,575.7,651.8z"/>
		<path d="M653,638.4c-0.2-9.6-0.4-19.1,1.7-28.5c0.5-2.2,1.1-4.4,2.1-6.5c4.2-9.2,15.7-10.4,21.9-2.3c3.6,4.7,5.5,10.1,6.7,15.8
			c1.7,7.9,2.2,16,2.4,24.1c0.1,5,0.3,10,0.2,15c-0.1,4.9-0.6,9.7-0.9,14.6c-0.4,5.5-0.7,11.1-1.2,16.6c-0.5,5.6-3,10.2-7.3,13.9
			c-3.6,3.1-8.8,2.9-12.7-0.4c-3.5-3-5.5-6.9-7.1-11.1c-2.2-5.7-3.2-11.7-4.1-17.7c-1.4-10.1-1.9-20.2-1.7-30.4
			C653,640.4,653,639.4,653,638.4z M680.9,652.1c0.1,0,0.2,0,0.3,0c-0.4-6.5-0.7-13.1-1.3-19.6c-0.5-6.3-1.3-12.5-3.3-18.5
			c-1-3-2-5.9-4.2-8.2c-3.1-3.1-6.5-2.5-8,1.5c-1,2.6-1.9,5.2-2.3,7.9c-0.8,5-1.4,10.1-1.6,15.1c-0.3,6.5-0.6,13-0.2,19.4
			c0.4,7.4,1.5,14.9,2.5,22.3c0.7,5.4,1.9,10.8,4,15.9c0.9,2.3,2,4.5,4,6.1c1.8,1.5,3.6,1.4,4.9-0.6c0.9-1.5,1.8-3.1,2.1-4.8
			c0.9-4,1.6-8,2.1-12C680.7,668.4,681.2,660.3,680.9,652.1z"/>
		<path d="M143.7,638.4c-0.3-8.3-0.3-16.6,1-24.9c0.6-3.4,1.4-6.9,2.8-10c4.1-9.4,15.6-10.6,21.9-2.5c3.4,4.3,5.3,9.3,6.5,14.7
			c1.9,8.3,2.5,16.7,2.6,25.1c0.1,5.2,0.3,10.4,0.2,15.6c-0.1,4.7-0.6,9.5-0.9,14.2c-0.4,5.5-0.7,11-1.2,16.5
			c-0.5,5.6-3,10.3-7.4,14c-3.6,3.1-8.8,2.8-12.7-0.5c-3.3-2.8-5.2-6.5-6.8-10.5c-2.3-5.9-3.4-12.1-4.3-18.4
			c-1.4-10.2-1.9-20.5-1.7-30.7C143.7,640.1,143.7,639.3,143.7,638.4z M171.6,652.8c0.3-7.9-0.4-16.5-1.5-25.1
			c-0.7-6-1.9-11.9-4.2-17.5c-0.8-1.9-1.9-3.7-3.5-5.1c-2.8-2.3-5.7-1.7-7.1,1.6c-1,2.4-2,4.9-2.4,7.5c-0.8,5.5-1.6,11-1.9,16.5
			c-0.3,6.8-0.4,13.6,0,20.4c0.3,6.1,1.1,12.2,2,18.2c0.8,5.1,2,10.2,3.2,15.2c0.8,3.1,2.1,6.1,4.2,8.5c2.4,2.7,4.7,2.4,6.4-0.7
			c0.4-0.7,0.8-1.5,1-2.3c0.7-2.7,1.5-5.5,1.9-8.3C171.1,672.4,171.9,663,171.6,652.8z"/>
		<path d="M255.5,687.7c0-2.7-0.1-5.4,0-8c0-1-0.3-1.6-1.3-1.8c-3.4-0.7-6.9-1.5-10.3-2.2c-0.2,0-0.5,0-0.7-0.1
			c-2.9-0.3-2.6-0.8-3.4,2.2c-1,3.5-1.5,7.1-2.4,10.6c-0.7,2.9-1.7,5.7-2.7,8.6c-0.2,0.8-0.8,1.2-1.6,1c-1.4-0.4-3-0.6-4.3-1.3
			c-1.3-0.6-1.2-1.6-0.8-2.9c1-3.5,2-7.1,2.7-10.7c3.7-19.6,7.2-39.2,10.8-58.8c1.2-6.6,3-13.2,5.5-19.4c0.7-1.7,1.6-3.3,2.6-4.8
			c1.3-1.8,5.3-2,6.9-0.5c0.2,0.2,0.3,0.6,0.3,0.8c1.3,12.2,2.8,24.4,4,36.6c0.7,6.9,0.9,13.8,1.4,20.7c0.6,7.4,1.4,14.9,1.9,22.3
			c0.4,4.9,0.5,9.7,0.7,14.6c0.1,1.8-0.4,3.4-2.2,4.2c-1.9,0.9-3.9,0.9-5.8-0.1c-1.1-0.6-1.5-1.7-1.5-2.8
			C255.6,693.2,255.6,690.4,255.5,687.7C255.6,687.7,255.6,687.7,255.5,687.7z M250.8,620.3c-0.3,0.9-0.6,1.7-0.8,2.5
			c-1.9,9-3.8,18-5.5,27.1c-1.1,5.7-1.7,11.5-2.5,17.3c-0.2,1,0.2,1.4,1.1,1.5c2.8,0.4,5.7,0.8,8.5,1.1c1.2,0.1,2.4,0,3.7-0.1
			C253.9,653.2,252.3,636.8,250.8,620.3z"/>
		<path d="M358.7,677.5c-0.5,2.6-1,5-1.4,7.5c-0.6,3.3-1.1,6.5-1.7,9.8c-0.2,1-0.6,1.9-1,2.8c-1.6,3.4-5.9,2.2-7,0.2
			c-0.3-0.5-0.4-1.3-0.3-1.9c2.2-9.6,4.7-19.1,6.6-28.7c2.3-11.6,4.3-23.2,6.2-34.9c0.7-4.3,0.8-8.7,1.4-13c0.3-2.6,0.9-5.3,1.4-7.9
			c0.2-1,0.8-1.4,1.9-1.3c1.4,0.1,2.9,0,4.3,0.1c2.5,0.2,3.6,1.5,3.6,3.9c0.1,8.2,1.1,16.3,2.1,24.5c1.4,11,3,22,3.3,33.1
			c0.1,2.5,0.8,5,1.2,7.4c0.8,5,1.6,9.9,2.4,14.9c0.2,1.1,0.2,2.2,0.1,3.3c-0.1,1.9-1.2,2.9-3.1,2.8c-0.7,0-1.4-0.1-2-0.3
			c-1.9-0.5-2.7-1.5-2.8-3.4c-0.4-4.1-0.7-8.3-1.1-12.4c-0.1-1.3-0.4-2.6-0.7-3.9c-0.1-0.3-0.4-0.7-0.6-0.7
			C367.2,678.8,363.1,678.2,358.7,677.5z M370.7,674.9c0.2-16.5-1.9-32.5-3.6-48.5c-0.1,0.1-0.2,0.3-0.2,0.4
			c-1.4,8.1-2.9,16.1-4.3,24.2c-1.1,6.7-2.1,13.3-3.1,20c-0.3,1.8-0.3,2,1.5,2.3C364.3,673.9,367.5,674.3,370.7,674.9z"/>
		<path d="M445.2,677.5c-0.6,3.4-1.2,6.6-1.8,9.8c-0.5,2.6-0.9,5.3-1.4,7.9c-0.2,0.8-0.5,1.5-0.8,2.2c-1.4,2.8-5.4,3-7.1,0.4
			c-0.3-0.5-0.5-1.3-0.4-1.9c1.9-8.3,4.1-16.5,5.8-24.8c2.4-11.5,4.5-23.1,6.4-34.7c1-5.9,1.3-12,2.1-18c0.3-2.4,0.9-4.8,1.4-7.1
			c0.2-0.9,0.8-1.3,1.8-1.2c1.5,0.1,3,0,4.4,0.1c2.4,0.2,3.3,1.5,3.5,3.9c0.5,7.1,1,14.3,1.7,21.4c1.1,11.3,2.6,22.5,3.6,33.8
			c0.6,7.1,2,14,3.1,20.9c0.3,1.7,0.5,3.5,0.8,5.2c0.1,0.6,0.1,1.1,0,1.7c-0.2,2.3-1.3,3.2-3.6,3.1c-3.3-0.2-4.3-1.5-4.5-4.8
			c-0.4-5-1.1-10.1-1.7-15.1c0-0.3-0.5-0.8-0.8-0.8C453.7,678.8,449.6,678.2,445.2,677.5z M457.2,674.9c0.1-16.5-1.9-32.4-3.6-48.4
			c-0.2,0.3-0.3,0.7-0.3,1c-2.4,14.7-4.9,29.3-7.3,44c-0.2,1,0.1,1.5,1,1.6C450.4,673.7,453.8,674.3,457.2,674.9z"/>
		<path d="M198.6,661c0-5.6,0-11.3,0-16.9c-0.1-11.9-0.5-23.7-2.1-35.5c-0.3-2.5-0.8-5-1.2-7.4c-0.1-0.4-0.1-0.8,0.1-1.1
			c1.2-1.8,2.9-3,5.1-3c7.1,0,12.7,3,16.6,8.9c4.2,6.3,5.4,13.4,4.7,20.9c-0.6,6.5-2.6,12.6-6.6,17.9c-2.4,3.3-5.4,5.9-8.9,7.9
			c-0.8,0.4-1,0.9-1,1.8c0.3,10.9,0.7,21.9,1,32.8c0.1,2.6,0.1,5.1,0.1,7.7c0,2.7-1.2,4.5-3.2,5.1c-2.9,0.9-5.1-0.7-5.3-3.9
			c-0.1-2,0-4,0-6c0.1-6.6,0.2-13.3,0.3-19.9c0-3,0-6.1,0-9.1C198.4,661,198.5,661,198.6,661z M203.9,605.6
			c-0.1,0.1-0.3,0.1-0.4,0.2c0.5,13.1,1.1,26.1,1.7,39.5c2.8-2.8,5-5.6,6.5-8.9c2.7-5.6,2.9-11.6,2.3-17.7c-0.3-3.3-1.7-6-3.9-8.2
			C208.2,608.6,206,607.2,203.9,605.6z"/>
		<path d="M403.4,654.7c0,2.2,0,4.4,0,6.7c0.1,7.2,0.1,14.3,0.5,21.4c0.2,4.2,1,8.5,1.8,12.7c0.3,1.8-0.8,3-1.2,4.4
			c0,0.1-0.4,0.2-0.6,0.2c-0.6,0-1.1,0-1.7,0c-2,0-3.2-1.2-3.2-3.2c-0.1-8.1,0-16.2-0.3-24.3c-0.3-10.5-0.9-21-1.3-31.5
			c-0.3-8.3-0.4-16.5-0.5-24.8c0-1.2,0.3-2.5,0.7-3.7c0.4-1.3,1.5-2,2.8-2.1c5.5-0.2,10.4,1.1,14.2,5.3c1.7,1.9,2.7,4.2,2.8,6.8
			c0.1,4.6,0.2,9.2-0.2,13.8c-0.2,2.4-1.3,4.8-2.2,7c-1.1,2.5-2.5,4.8-3.8,7.2c-0.2,0.4-0.4,0.9-0.3,1.3c1.8,9.1,3.7,18.2,5.6,27.2
			c1.1,5,3,9.8,5.3,14.5c0.6,1.1,1,2.4,1.3,3.6c0.4,1.6-0.4,3.2-1.6,3.8c-1.2,0.6-2.8,0.2-3.8-1.1c-0.9-1.2-1.7-2.6-2.3-4
			c-2.7-6-4-12.4-5.3-18.9c-1.5-7.1-3.1-14.1-4.6-21.2C405.3,654.6,404.7,654.2,403.4,654.7z M403.9,647.7c0.2,0.1,0.4,0.1,0.6,0.2
			c0.7-0.8,1.6-1.5,2.1-2.5c1-2.1,2-4.2,2.7-6.4c1.9-6.1,2.6-12.3,0.9-18.7c-0.5-2-1.6-3.7-3.6-4.5c-2.3-0.9-3.1-0.3-3,2.2
			c0.1,6,0.3,11.9,0.4,17.9C403.9,639.9,403.9,643.8,403.9,647.7z"/>
		<path d="M119,675.6c-0.3-7.5-2.5-14.5-5.6-21.2c-2.7-5.9-5.8-11.6-8.5-17.5c-3.1-6.8-5.2-13.8-5-21.4c0.2-6.4,2.3-12,7.2-16.2
			c4-3.5,10-3.8,13.9-0.8c0.1,0,0.1,0.1,0.2,0.1c2.7,2.2,2.7,4,0,6.2c-0.2,0.2-0.6,0.3-0.9,0.2c-1.4-0.3-2.9-0.6-4.3-0.9
			c-0.5-0.1-1.2-0.3-1.6-0.1c-1,0.6-2.1,1.2-2.8,2.1c-3.1,3.5-3.5,7.7-3.1,12.2c0.6,6.1,2.4,11.9,5.1,17.4
			c2.8,5.7,5.8,11.4,8.5,17.2c4.3,9,6.3,18.5,5.1,28.4c-0.7,6.2-2.8,12-7.3,16.6c-5.8,5.9-14.2,5.2-19.4,2.7c-1.9-0.9-2.5-2.2-2.3-4
			c0.3-2.2,1.8-3.5,4-3.1c1.5,0.2,2.9,0.7,4.3,1.3c3.1,1.3,5.1,0.7,7.3-2.1c2.3-2.9,3.2-6.5,4-10C118.5,680.3,118.7,677.9,119,675.6
			z"/>
		<path d="M723.9,675.6c-0.4-8.1-2.9-15.6-6.4-22.9c-3.1-6.3-6.2-12.6-9-19c-2.3-5.3-3.7-10.8-3.7-16.6c-0.1-6.9,1.8-13.1,7.2-17.8
			c4-3.4,9.9-3.8,13.8-0.9c0.1,0.1,0.2,0.1,0.3,0.2c2.7,2.1,2.7,4,0,6.2c-0.2,0.2-0.5,0.3-0.8,0.2c-1.4-0.2-2.9-0.4-4.2-0.8
			c-0.9-0.3-1.6-0.3-2.4,0.1c-2.6,1.4-4,3.9-4.8,6.6c-1.2,3.7-0.7,7.4-0.1,11c0.9,4.9,2.5,9.6,4.8,14.1c2.8,5.6,5.7,11.2,8.4,16.8
			c4.4,9,6.2,18.5,5.1,28.5c-0.6,5.7-2.6,11-6.4,15.5c-5.8,6.7-14.5,6.4-20.3,3.7c-1.9-0.9-2.5-2.2-2.3-4c0.2-2.1,1.7-3.5,3.9-3.2
			c1.5,0.2,3,0.7,4.4,1.3c3.3,1.4,5.4,0.3,7.3-2.1c2.3-2.9,3.2-6.4,4-9.9C723.4,680.4,723.5,678,723.9,675.6z"/>
		<path d="M314.1,673.7c0-5.2,0-10.4,0-15.6c0-0.2,0.1-0.5,0-0.7c-1.3-2.9,0-5.8,0.2-8.6c0.3-5.3,0.4-10.7,0.6-16
			c0.1-5.3,0.1-10.5-0.9-15.8c-0.4-2.3,2-4.9,4.3-4.9c2.5,0,5.1-0.1,7.5,0.3c4,0.5,6.8,2.8,8.5,6.4c1.5,3.2,2.4,6.7,2.4,10.2
			c0,4.5,0,9-0.4,13.4c-0.7,8.4-5.9,13-13.5,15.5c-1,0.3-1.4,0.7-1.3,1.8c0.2,7.5,0.2,14.9,0.4,22.4c0.1,5.1,0.5,10.2,0.7,15.3
			c0.1,1.7-0.8,2.9-2.2,3.7c-2.1,1.1-4.8-0.2-5.2-2.5c-1.4-6.9-1.5-13.8-1.4-20.8c0-1.4,0-2.7,0-4.1
			C313.8,673.7,314,673.7,314.1,673.7z M321.5,652.7c1.7-0.2,2.9-0.9,3.7-2c1-1.6,2.1-3.4,2.6-5.2c1.8-6.6,2-13.3,1.4-20.1
			c-0.4-4.3-3.8-6.8-7.7-6C321.5,630.5,321.5,641.5,321.5,652.7z"/>
		<path d="M523.1,606.2c0.2,2,0.4,4.1,0.5,6.1c0.1,6.7,0.1,13.3,0.2,20c0.1,6.2,0.1,12.3,0.3,18.5c0.3,8.6,0.6,17.2,1,25.9
			c0.2,5.7,0.6,11.3,0.8,17c0,1.4-0.3,2.9-0.7,4.2c-0.4,1.5-1.5,2.4-3.1,2.6c-1.7,0.2-3-0.5-4-2c-1-1.5-1.4-3.2-1.3-5
			c0.2-3.8,0.3-7.7,0.6-11.5c0.6-6.9,0.5-13.9,0.1-20.8c-0.4-7.5-1-14.9-1.2-22.4c-0.2-7.2,0-14.4-0.1-21.6c0-2.9-0.5-5.9-0.8-8.8
			c-0.1-0.9-0.5-1.1-1.4-1c-1.9,0.3-3.8,0.6-5.7,0.5c-1.2,0-2.5-0.5-3.5-1.2c-2.1-1.4-1.9-4.1,0.4-5.2c1.7-0.8,3.5-1.5,5.3-1.7
			c5.9-0.7,11.8-1.2,17.8-1.6c3.1-0.2,5.2,2.2,4.7,5c-0.3,1.8-1.9,3.2-3.9,3.2c-1,0-1.9-0.1-2.9-0.1
			C525.2,606.1,524.3,606.2,523.1,606.2z"/>
	</g>
	<path class="st1" d="M488.3,550.4c-0.1-0.1-0.2-0.2-1.2,0c-1.2,0.2-1.8,0.3-1.8,0.6c-0.1,0.5,1.7,1.6,2.6,1
		C488.3,551.5,488.5,550.7,488.3,550.4z"/>
</g>
</svg>
