<?xml version="1.0" encoding="UTF-8" standalone="no"?>
<svg
   xmlns:dc="http://purl.org/dc/elements/1.1/"
   xmlns:cc="http://creativecommons.org/ns#"
   xmlns:rdf="http://www.w3.org/1999/02/22-rdf-syntax-ns#"
   xmlns:svg="http://www.w3.org/2000/svg"
   xmlns="http://www.w3.org/2000/svg"
   xmlns:sodipodi="http://sodipodi.sourceforge.net/DTD/sodipodi-0.dtd"
   xmlns:inkscape="http://www.inkscape.org/namespaces/inkscape"
   version="1.1"
   id="Layer_1"
   x="0px"
   y="0px"
   viewBox="0 0 29.999999 29.999999"
   xml:space="preserve"
   sodipodi:docname="taca_sopa_30x30.svg"
   width="30"
   height="30"
   inkscape:version="1.0.2 (e86c870879, 2021-01-15)"><metadata
   id="metadata31"><rdf:RDF><cc:Work
       rdf:about=""><dc:format>image/svg+xml</dc:format><dc:type
         rdf:resource="http://purl.org/dc/dcmitype/StillImage" /><dc:title></dc:title></cc:Work></rdf:RDF></metadata><defs
   id="defs29" /><sodipodi:namedview
   pagecolor="#ffffff"
   bordercolor="#666666"
   borderopacity="1"
   objecttolerance="10"
   gridtolerance="10"
   guidetolerance="10"
   inkscape:pageopacity="0"
   inkscape:pageshadow="2"
   inkscape:window-width="2037"
   inkscape:window-height="1225"
   id="namedview27"
   showgrid="true"
   inkscape:zoom="19.156669"
   inkscape:cx="8.928809"
   inkscape:cy="15.541397"
   inkscape:window-x="0"
   inkscape:window-y="27"
   inkscape:window-maximized="0"
   inkscape:current-layer="Layer_1"><inkscape:grid
     type="xygrid"
     id="grid856" /></sodipodi:namedview>
<style
   type="text/css"
   id="style2">
	.st0{fill:#232323;}
	.st1{fill:#FFFFFF;}
	.st2{fill:none;stroke:#1D1E1C;stroke-miterlimit:10;}
	.st3{fill:#EF8E13;}
	.st4{fill:none;stroke:#000000;stroke-miterlimit:10;}
	.st5{fill:#5A74B6;}
	.st6{fill:none;stroke:#FFFFFF;stroke-miterlimit:10;}
</style>

<g
   id="g24"
   transform="matrix(0.05511279,0,0,0.05511279,-9.3904305,-8.6967334)">
	<g
   id="XMLID_2_">
		<g
   id="g6">
			<path
   class="st0"
   d="m 714,419.7 c 0.4,8.7 -2.3,15.3 -7.5,28.4 -12.9,32.5 -31.7,53.1 -51.9,76.1 -6.4,7.2 -13.2,14.1 -21.1,21.4 -10.2,9.3 -55.9,50.4 -110.7,67.2 -28.3,8.7 -54.7,12.6 -87.8,10.8 C 405.9,622 300.6,602.7 229.7,510 215.1,490.9 188.3,450.9 177.3,397.8 c -6.5,-31.5 -6.3,-62.1 -6.2,-70.4 0.1,-5.8 0.2,-9.5 0.5,-12.4 0.1,-1.3 0.4,-5.3 1.3,-10.9 2,-12.4 3,-18.7 4.9,-27.1 0.9,-3.8 1.3,-5.8 1.9,-7.5 0,0 3.9,-12.9 11.9,-23.7 10.7,-14.5 58.1,-9.3 76,-7.5 62.6,6.4 145.2,23.6 145.4,23.6 0,0 0.1,0 0.4,0 0.1,0 0.1,0.1 0.1,0.1 98.8,30.6 194.5,56.8 258,100.5 19.3,13.3 41.3,32.1 42.5,57.2 z"
   id="path4" />
		</g>
	</g>
	<g
   id="g22">
		<g
   id="XMLID_1_">
			<g
   id="g11">
				<path
   class="st1"
   d="m 691,424 c 0.4,7.6 -2,13.4 -6.9,24.9 -11.8,28.4 -29.2,46.5 -47.9,66.6 -5.8,6.3 -12.1,12.4 -19.4,18.8 -9.4,8.2 -51.5,44.1 -101.9,58.8 -26.2,7.6 -50.4,11 -80.9,9.4 -111.9,-5.8 -179.8,-87.7 -189.2,-99.4 0,0 -40.6,-50.6 -53.2,-113.1 -2.7,-13.4 -4,-27 -4.7,-37.2 -0.7,-10.3 -0.7,-17.3 -0.7,-17.3 0.1,-12.3 2.4,-25.2 6.9,-51.1 1.6,-9.4 3.1,-16.5 8.9,-22.2 6.2,-5.9 15.3,-8.6 26.2,-7.9 32.5,2.2 65.3,3.4 97.1,9.7 95.1,18.8 239,52.8 326.8,109.9 16.4,10.8 37.8,27.5 38.9,50.1 z"
   id="path9" />
			</g>
			<g
   id="g15">
				<path
   class="st2"
   d="M 651.9,374 C 564.2,316.9 420.3,282.9 325.1,264.1 c -31.8,-6.3 -64.6,-7.6 -97.1,-9.7 -10.9,-0.7 -20,1.9 -26.2,7.9 -5.8,5.7 -7.3,12.8 -8.9,22.2 -4.5,25.9 -6.7,38.8 -6.9,51.1 0,0 0,7 0.7,17.3 0.7,10.2 2,23.9 4.7,37.2 12.6,62.5 53.2,113.1 53.2,113.1 9.4,11.7 77.3,93.6 189.2,99.4 30.5,1.6 54.7,-1.8 80.9,-9.4 50.5,-14.7 92.5,-50.6 101.9,-58.8 7.3,-6.4 13.7,-12.5 19.4,-18.8 18.6,-20.1 36,-38.2 47.9,-66.6 4.9,-11.5 7.3,-17.3 6.9,-24.9 -0.9,-22.7 -22.3,-39.4 -38.9,-50.1 z"
   id="path13" />
			</g>
		</g>
		<path
   class="st0"
   d="m 516.9,338.8 c -1.6,-0.6 -3.7,-1.4 -6.1,-2.3 C 409.9,299 339.4,288.7 307.5,285.2 c -34.8,-3.9 -84.4,-9.4 -88.9,4.2 -2.9,8.7 14.2,21.8 28.5,32.6 27.5,20.7 52.9,30.3 113.4,52.4 28.6,10.4 54.5,19.8 91,29.9 22.7,6.3 49.8,13.8 86,19.9 25.9,4.4 60.7,8.9 102.2,10 10,-2.4 21,-6.4 22.4,-13.7 5,-24.6 -102.6,-65.4 -145.2,-81.7 z"
   id="path18" />
		<path
   class="st3"
   d="m 271.8,310.6 c 3.3,-11.2 105.8,7 190.7,31.8 90.1,26.3 190.4,68.9 187,80.4 C 646,434.4 537.7,414.6 447.6,387.3 364.5,362.1 268.5,321.8 271.8,310.6 Z"
   id="path20" />
	</g>
</g></svg>
