<?xml version="1.0" encoding="UTF-8" standalone="no"?>
<svg
   xmlns:dc="http://purl.org/dc/elements/1.1/"
   xmlns:cc="http://creativecommons.org/ns#"
   xmlns:rdf="http://www.w3.org/1999/02/22-rdf-syntax-ns#"
   xmlns:svg="http://www.w3.org/2000/svg"
   xmlns="http://www.w3.org/2000/svg"
   xmlns:sodipodi="http://sodipodi.sourceforge.net/DTD/sodipodi-0.dtd"
   xmlns:inkscape="http://www.inkscape.org/namespaces/inkscape"
   version="1.1"
   id="Layer_1"
   x="0px"
   y="0px"
   viewBox="57 98.5 668.67841 668.67842"
   enable-background="new 57 98.5 955.8 994.1"
   xml:space="preserve"
   sodipodi:docname="icone_01.svg"
   width="668.67841"
   height="668.67841"
   inkscape:version="1.0.2 (e86c870879, 2021-01-15)"><metadata
   id="metadata305"><rdf:RDF><cc:Work
       rdf:about=""><dc:format>image/svg+xml</dc:format><dc:type
         rdf:resource="http://purl.org/dc/dcmitype/StillImage" /><dc:title></dc:title></cc:Work></rdf:RDF></metadata><defs
   id="defs303" /><sodipodi:namedview
   pagecolor="#ffffff"
   bordercolor="#666666"
   borderopacity="1"
   objecttolerance="10"
   gridtolerance="10"
   guidetolerance="10"
   inkscape:pageopacity="0"
   inkscape:pageshadow="2"
   inkscape:window-width="1707"
   inkscape:window-height="1106"
   id="namedview301"
   showgrid="false"
   fit-margin-top="0"
   fit-margin-left="0"
   fit-margin-right="0"
   fit-margin-bottom="0"
   inkscape:zoom="0.73936226"
   inkscape:cx="311.29999"
   inkscape:cy="301.20593"
   inkscape:window-x="816"
   inkscape:window-y="279"
   inkscape:window-maximized="0"
   inkscape:current-layer="Layer_1" />
<g
   id="Logo"
   transform="translate(-166.6,-127.83284)">
	<g
   id="g39">
		<path
   fill="#232323"
   d="m 674.9,767 c -150.4,-0.2 -300.9,-1.1 -451.3,-2.7 0,-132.1 0,-264.1 0,-396.2 0,-34.4 15.3,-50.8 27.9,-60 11,-8 22.8,-10 29.4,-10.7 18.3,-0.4 36.6,-0.9 54.8,-1.3 89.1,-0.4 178.3,-0.9 267.4,-1.3 1.1,-0.1 11.1,-1.4 23.6,0.9 7.4,1.3 26.1,5.4 37.9,21.8 0.2,0.2 0.4,0.5 0.6,0.9 5.7,8.6 7.8,17.4 8.8,24.5 0.4,2.7 0.5,4.7 0.5,5.4 0.5,9.6 1.6,25.8 3.5,52.1 14.7,1.8 29.4,3.6 44.1,5.3 8.1,1.1 20.9,3.7 34.8,10.7 26.5,13.2 41.1,34.1 58.8,60.2 8.6,12.7 15.6,25.4 29.4,50.8 11.3,20.8 17,31.1 22.7,44.1 7.7,17.4 18.3,41.4 22.7,72.2 2.2,15.4 2,35.7 1.3,76.2 -0.3,19.7 -0.9,35.8 -1.3,46.8 -71.7,0.3 -143.6,0.3 -215.6,0.3 z"
   id="path2" />
		<path
   fill="#ffffff"
   d="M 650.9,745.2 H 260.1 c 0,-128.4 0,-256.8 0,-385.1 -0.1,-1.7 -1,-14.2 8.8,-23.9 10.1,-10 23.1,-8.6 24.7,-8.4 106.3,0 212.6,0 318.9,0 9.7,0.2 26.5,2 34.8,13.8 5.6,8 4.4,16.5 4,34.8 -0.3,12.4 -0.2,29.8 1.5,51.1 8.8,-0.4 18.1,-0.5 27.9,-0.3 19.6,0.5 29.4,0.5 38.8,2.7 20.4,4.8 34.1,17.3 38.8,21.4 2.6,2.3 5,4.6 8.8,8.7 14.6,15.7 23.8,29.9 42,58.2 19.9,30.9 21.5,33.8 24.1,38.8 5.2,10.3 10.1,21.5 15.9,34.9 5.2,12 7.9,17.9 9.5,22.6 6.7,20.1 7.6,46.2 8,58.8 0.9,27.7 1.2,51.2 1.3,69.5 -72.3,0.7 -144.6,1.5 -217,2.4 z"
   id="path4" />
		<path
   fill="#232323"
   d="m 806.5,567.5 c -42.8,0 -85.6,0 -128.4,0 -0.3,-37.1 -0.6,-74.3 -0.9,-111.4 11.1,-2.1 32,-4.3 53.1,5.8 17.7,8.4 27,21.5 42.8,44.1 9.6,13.8 22.3,34.3 33.4,61.5 z"
   id="path6" />
		<g
   id="g12">
			<path
   fill="#ffffff"
   d="m 329.5,705 c 30.7,-25.2 78.5,-22.5 107.3,3.3 24.2,21.6 26.6,51.8 27,59.3 -27.3,-0.7 -55.1,-1.2 -83.2,-1.4 -27.1,-0.2 -53.7,-0.2 -80,0 0.3,-6.7 2.5,-39.5 28.9,-61.2 z"
   id="path8" />
			<circle
   fill="#232323"
   cx="381.29999"
   cy="762.79999"
   r="61.599998"
   id="circle10" />
		</g>
		<g
   id="g18">
			<path
   fill="#ffffff"
   d="m 643.2,701.7 c 29.8,-22.6 71.9,-17.4 98.5,3.5 28.1,22.1 31.3,55.7 31.7,62 -27.2,0.2 -54.6,0.3 -82.2,0.3 -26.3,-0.1 -52.5,-0.2 -78.3,-0.6 -0.1,-4.9 0.4,-42.6 30.3,-65.2 z"
   id="path14" />
			<circle
   fill="#232323"
   cx="690.79999"
   cy="765.40002"
   r="61.599998"
   id="circle16" />
		</g>
		<g
   id="g29">
			<g
   id="g27">
				<g
   id="XMLID_14_">
					<g
   id="g22">
						<path
   fill="#ef8e13"
   d="m 571.2,483.9 c 2.3,2.5 3.1,5.2 4.6,10.6 3.9,13.2 2.9,24.4 2.1,36.6 -0.2,3.8 -0.7,7.7 -1.5,12 -1,5.5 -5.5,29.8 -18.9,49.1 -7,10 -14.4,18 -25.5,26 -40.5,29.5 -87.2,20.1 -93.7,18.6 0,0 -28.3,-6.2 -50.3,-24.4 -4.7,-3.9 -9,-8.3 -12.1,-11.6 -3.1,-3.4 -5.1,-5.8 -5.1,-5.8 -3.4,-4.3 -6.3,-9.4 -12,-19.7 -2.1,-3.7 -3.6,-6.6 -3.1,-10.2 0.5,-3.8 2.9,-7.3 6.9,-10.1 11.9,-8.4 23.7,-17.2 36.5,-23.9 38.4,-20.2 97.9,-48.9 144.5,-53.7 8.7,-0.8 20.8,-1 27.6,6.5 z"
   id="path20" />
					</g>
				</g>
				<path
   fill="#ffffff"
   d="m 490.3,507.7 c -0.7,0.2 -1.7,0.6 -2.8,0.9 -45.6,15.3 -73,31.6 -85.1,39.3 -13.2,8.4 -32,20.5 -29.7,26.5 1.4,3.8 11.1,3.6 19.1,3.3 15.4,-0.5 26.9,-4.3 54.2,-13.7 12.9,-4.4 24.5,-8.4 40,-15.2 9.7,-4.2 21.2,-9.2 35.5,-17.3 10.2,-5.8 23.6,-14 38.3,-25.3 2.8,-3.6 5.5,-8.1 3.9,-11.1 -5.2,-9.8 -54.1,6.3 -73.4,12.6 z"
   id="path25" />
			</g>
		</g>
		<g
   id="g37">
			<path
   fill="#ef8e15"
   d="m 435.8,497.2 c -27.9,-22 -59.6,-35.3 -94.3,-41.5 -3.4,-0.6 -7.6,0.2 -10.8,1.7 -5.3,2.5 -7.7,9.3 -6.2,15 1.6,6.4 6.6,10.3 14.2,10.4 21.2,0.4 42.1,3.2 62.3,10 18.4,6.2 35.2,15.4 51.3,26 1.4,0.9 3.6,0.7 5.4,1 -0.8,-1.7 -1.1,-3.9 -2.4,-5.1 -6.4,-5.9 -13,-11.6 -19.5,-17.5 z"
   id="path31" />
			<path
   fill="#ef8e15"
   d="m 450.2,515 c 1.2,1 2.2,2.2 3.6,3 1.8,1 3.8,1.6 5.7,2.3 -0.4,-2 -0.4,-4.2 -1.4,-5.8 -5.8,-10.1 -12.6,-19.8 -17.4,-30.3 -5.9,-12.8 -10.3,-26.2 -14.9,-39.4 -3.7,-10.7 -15.1,-14.6 -23.3,-7.6 -5.4,4.6 -5.8,12.1 -0.8,20.3 13.1,21.6 29.2,40.9 48.5,57.5 z"
   id="path33" />
			<path
   fill="#ef8e15"
   d="m 338.6,410.5 c 0,0 1,0.2 -2.1,-0.1 -3.2,-0.3 -12.8,-0.5 -16.3,4.1 -2,2.7 -2.5,6.9 -0.7,10 1.8,3.1 5.1,5.1 8.3,6.5 5.5,2.4 11.4,3.5 17.3,4.6 9.2,1.7 18.4,3.4 27.6,5.1 -4,-12.9 -8,-25.7 -11.9,-38.6 -1.5,-5 -3.2,-10.2 -6.9,-14 -3.4,-3.5 -10.3,-5.1 -14.2,-2.5 -4.7,3.2 -4.3,12.6 -2.7,18.7 1.6,6.2 1.6,6.2 1.6,6.2 z"
   id="path35" />
		</g>
	</g>
</g>
<g
   id="PeB"
   display="none"
   transform="translate(-166.6,-195.84406)">
	<g
   display="inline"
   id="g125">
		<path
   fill="#1d1d1b"
   d="m 536.6,787.4 c 16.9,-55.7 34.3,-109.1 49.2,-163.1 30,-108.8 58.5,-218.1 88,-327 11,-40.5 33,-73.4 71.4,-92.7 30,-15.1 61.8,-17.9 91.8,-2.5 9.1,4.6 24.9,13.5 31.4,31.8 1,2.9 8.1,24 -3.3,40.2 -10.3,14.5 -29.3,16.3 -44.3,17.7 -13.1,1.3 -13.6,-1.4 -39.3,-1.3 -18.6,0.1 -28.1,0.1 -35.6,4.7 -8.3,5.2 -14.2,14.3 -19.2,28.4 -21.1,59.4 -123.1,387.6 -123.1,387.6 -1.7,5.2 -47.5,131 -53.1,141 -15.7,28.1 -39.5,70.8 -89.3,98.2 -8.6,4.7 -77.5,41.1 -155.8,15 C 202.8,931.2 154.3,813 168.8,729.5 c 2,-11.1 4.8,-20.3 7.4,-27.3 9.2,-5.3 17,-7 22.1,-7.6 2.9,-0.4 5.2,-0.3 10,-0.4 9,-0.2 16.2,0.4 21.5,0.9 50.6,4.4 88.3,11.8 88.3,11.8 28.6,5.4 60.8,13.2 95.4,24.9 49.1,16.7 90.2,36.7 123.1,55.6 z"
   id="path42" />
		<g
   id="g94">
			<path
   fill="#1d1d1b"
   d="m 655.6,883.2 c -2.5,-0.6 -4.8,-1.1 -5.7,0 -1.7,2 2,7.6 5.9,13.9 11.4,18.1 6,11.2 14.3,23.6 8.9,13.3 13.3,20 19.2,26.8 4.4,5.1 8.4,10.6 12.8,15.7 0,0 2.1,3.1 6.4,9.3 1.5,2.2 2.6,3.8 2.5,5.9 -0.1,2.5 -1.5,4.4 -2.2,5.4 -1.1,1.5 -2.5,2.7 -4.9,4.1 -1.7,1 -4.3,2.3 -10.3,4.1 -5.7,1.7 -7.1,1.6 -10,3.3 -2.1,1.3 -4.7,2.8 -4.8,5.2 -0.1,2.5 2.4,4.5 4.1,5.4 1.4,0.7 2.8,0.8 5.5,0.9 1.6,0.1 2.4,0 3,-0.2 0.3,-0.1 0.5,-0.1 0.7,-0.2 0.5,-0.2 0.6,-0.4 0.8,-0.3 0.3,0.1 0.4,0.4 0.5,0.6 0.4,0.7 1.3,1 2.6,1.4 1.1,0.3 2,0.4 2.2,0.4 3.3,0.1 6,-0.6 6,-0.6 2.9,-0.8 7.9,-1.7 15,-3 1.8,-0.5 4.5,-1.1 7.7,-1.6 0.8,-0.1 4.1,-0.6 9,-0.6 7.8,-0.1 9.1,0.9 12.8,-0.2 1.8,-0.5 4.3,-1.4 6.4,-3.7 4.6,-5.2 2.4,-13.6 1.7,-16 -1.6,-6 -3.6,-5.4 -6.9,-13.3 -2.1,-5.1 -2.9,-9.6 -3.9,-15.3 -0.8,-4.2 -0.8,-5.8 -1.5,-11.3 -1.2,-10 -2.1,-13.2 -3,-19.2 -0.8,-5.8 -1.5,-14.1 -1,-24.6 0.1,-1 0.2,-2.5 -0.7,-3.7 -3.6,-5.3 -17,4.1 -34.7,1.4 -12.7,-2 -20.4,-7 -49.5,-13.6 z"
   id="path44" />
			<path
   fill="#ffffff"
   d="m 728.7,973.7 c 0,-0.9 -0.5,-1.5 -1.3,-2.5 -1.8,-2.4 -3.4,-5 -5.2,-7.4 -1.2,-1.6 -2.1,-3.4 -4.1,-6.9 -3.7,-6.6 -6.4,-12.4 -15.3,-29.3 -5.8,-10.9 -9.5,-16.4 -13.8,-27.3 -1.3,-3.2 -1.4,-6.3 -2.9,-7.8 -1.3,-1.3 -3.9,-1.4 -6.8,-2.4 -12.5,-4.4 -13.5,-5 -14.2,-4.4 -3.2,2.7 9.5,23.6 19.8,38.1 5.9,8.3 17.5,23.6 23.9,32.9 5,7.3 3.5,6.2 6.8,10.7 1.9,2.6 3.4,4.6 3.7,6.5 0.7,4.4 -5.3,7.9 -4.6,8.9 0.6,0.8 5.2,-2 8.9,-4.2 3.7,-2.2 5.1,-3.4 5.1,-4.9 z"
   id="path46" />
			<path
   fill="#ffffff"
   d="m 701.5,897.5 c -1.5,2.1 -0.1,7 4.2,16 13.7,28.4 14.3,30.3 14.9,31.2 0.1,0.2 0.2,0.3 0.2,0.4 1.8,2.7 4.9,11.1 7.6,16.1 0,0 1.6,3 3.2,6.1 1.5,2.9 2.6,4.5 2.9,7.1 0.1,1.1 0.4,2 0.1,2.6 -1.6,3.1 -8.6,6.3 -11.6,7.9 -10,5.3 -15.5,8.3 -21.6,8.3 -1,0 -3.7,-0.1 -4.9,1.6 -1,1.3 -1,3.5 -0.1,4.7 1.7,2.1 6.1,0.6 13.2,-1.1 7,-1.7 14.7,-3.5 22.4,-4.2 10.2,-0.8 13.6,0.9 16.3,-2.1 2.9,-3.3 2.2,-9.3 0.9,-12.9 -1.1,-3 -2.7,-4.8 -3.6,-5.8 -3.7,-4.5 -4.3,-8.7 -8,-28 -3.3,-17.6 -3.1,-13.8 -4,-20.4 -2.3,-16.3 -1,-23.1 -5.9,-26.2 -0.1,-0.1 -0.3,-0.2 -0.6,-0.3 -8.5,-4.5 -22.2,-6 -25.6,-1 z"
   id="path48" />
			<path
   fill="#1d1d1b"
   d="m 761,673.2 c -3.9,20.6 -5.1,38.1 -5.3,50.9 -0.4,22.9 2,41 3.7,53.5 1.7,12.1 3.7,23.2 6.6,38.7 3.5,18.6 5.2,28 5.9,30.3 2.9,10.1 5.2,16.3 5.3,26.8 0.1,11.6 -2.9,16.2 -4.2,18 -2.8,3.8 -7,6.5 -14,8.6 -18.7,5.7 -39.9,2.1 -49.7,0 -14.8,-1.4 -27.2,-3.7 -36.7,-5.9 -15.8,-3.7 -23.7,-7.2 -39.6,-14.3 -5.1,-2.3 -7.8,-3.6 -9.8,-6.6 -4.6,-6.7 -1,-13.6 2,-32.5 1.9,-12 0.4,-9.1 3.2,-32.2 1.6,-12.8 2.4,-19.2 3.5,-25.1 5.8,-30.1 23.1,-68.5 33.4,-81.4 1,-1.3 4.6,-5.5 4.8,-11.4 0.2,-4.9 -2,-8.7 -3,-10.3 -6.7,-11.6 -11.9,-24.1 -18.4,-35.9 -1.4,-2.5 -8.9,-17.1 -12.8,-30.6 -7.1,-25.2 -10.7,-63.1 20.5,-73.2 13.7,-4.4 32.2,-3.2 42.9,7.6 5.7,5.8 8.5,14.4 10,18.6 2.1,6 2.6,10.4 3.6,18.2 5.3,41.6 5.4,41.4 5.3,43.7 -0.4,6.8 0,12.9 0.6,25 0.1,2.4 0.4,6.9 3.6,10.7 0.7,0.9 3.5,4.2 7.6,4.7 1.8,0.2 3.7,-0.1 5.7,-0.5 1.3,-0.2 2.4,-0.5 3.2,-0.7 0.2,4.7 2.9,8.9 6.9,10.6 5.2,2.2 11.8,0 15.2,-5.3 z"
   id="path50" />
			<path
   fill="#1d1d1b"
   d="m 765,550.3 c -9,7.2 -13.6,15.2 -15.9,19.2 -4,7 -5.8,12.8 -7.7,19.2 -2.6,8.4 -3.7,15 -4.1,17.3 -2.3,14.9 -1.1,25.7 -0.7,28.4 1,8.3 1.6,12.6 4.8,16.6 2.5,3.1 4.8,4.1 4.9,6.9 0.1,3.2 -2.8,5.1 -7.6,10.3 -1.9,2.1 -4.5,5.2 -7.3,9.3 9.1,3.6 18.3,7.2 27.4,10.8 0.3,-2.2 0.9,-4.9 2,-7.9 0.8,-2.2 1.8,-4.1 2.7,-5.7 3.3,-3.3 5.6,-6.1 7.1,-8.1 3.1,-4.1 3.7,-5.7 6.9,-9.1 1.8,-1.9 3.2,-3.2 6.2,-5.7 4.6,-3.9 6.1,-4.5 7.1,-4.9 1.2,-0.4 2.7,-0.4 5.7,-0.6 3.6,-0.1 4.5,0.1 6.9,0 3.1,-0.1 5.8,-0.2 8.6,-1.5 0.6,-0.3 6.7,-3.2 7.9,-9.5 0.5,-2.8 -0.1,-5 -1,-8 -0.3,-1 -0.7,-2.2 -1.7,-3.2 -0.2,-0.2 -0.2,-0.2 -0.2,-0.2 -0.9,-1.7 8.7,-8.6 9.8,-9.3 2.3,-1.6 5.7,-3.8 10.1,-6.2 0.6,-8.2 0.4,-22.4 -7.6,-36.6 -10.6,-18.8 -33.8,-35.3 -50.9,-30 -5.3,2 -9.6,5.5 -13.4,8.5 z"
   id="path52" />
			<path
   fill="#ffffff"
   d="m 664.6,721.5 c -2.6,5.2 -4,9.7 -4.8,12.5 -6.4,12 -9.6,21 -11.3,26.4 -0.4,1.4 -1.1,3.7 -1.9,6.5 -1.6,5.9 -2.7,11.3 -4.1,18.2 -3,14.8 -6.1,29.8 -7,47.6 -0.2,4.1 -0.5,12.5 -1.3,25.7 -0.3,4.1 -1.9,7.6 -0.7,9.7 3.1,5.4 13.2,6.5 22.7,10 22.2,8.3 40,10.7 52,12.3 28.2,3.7 40.7,1 46.6,-0.7 1.1,-0.3 3.8,-0.2 6.3,-2 5,-3.6 5.3,-11.1 5.2,-14.8 -2.7,-11.6 -5.9,-26.3 -8.9,-43.5 -4.4,-24.8 -6.5,-43.5 -7.1,-48.9 -2.6,-23.8 -4.2,-37.8 -3.6,-56.9 0.6,-17.3 2.8,-31.6 4.7,-41.5 0.4,-2.8 -1.2,-5.4 -3.7,-6.2 -2.1,-0.7 -4.5,0 -6,1.8 -2.5,0.7 -5.1,1.3 -7.6,2 -2.8,-0.3 -7.5,-1.1 -12.5,-3.9 -2.3,-1.3 -6.5,-3.6 -9.2,-8.1 -3.3,-5.5 -2.8,-11.4 -2.6,-13.6 1.7,-21.5 -4.1,-56.2 -5.8,-65.2 -3.1,-16.4 -6.5,-33.4 -18.3,-37.5 -5.2,-1.8 -11.8,-1.1 -16.3,2.3 -12.2,9.1 -6.4,35.3 -4,46.3 0.3,1.4 2.6,9.4 7.3,25.3 3.4,11.5 4.9,16.4 5.7,19 6.3,20.5 7,20.9 7.8,23.1 0.7,2 1.1,3.5 1.2,3.9 0.5,2.2 4.3,10.3 4.7,11.3 3,7.4 -17,18.2 -27.5,38.9 z"
   id="path54" />
			<path
   fill="#ffffff"
   d="m 655.3,553.8 c -2.6,0.6 -6.6,1.9 -9.8,5.3 -2.2,2.3 -5.1,6.9 -4.4,20.4 0.2,5.3 0.9,10.4 4.4,24.1 2.5,9.6 4.7,16.9 6.2,22.1 10.5,24.2 18,41.7 21.2,50.2 0.8,2.2 2.9,7.9 6.1,8.1 1.5,0.1 2.9,-1 3.7,-2.2 1.9,-3 -0.1,-7.1 -2,-11.3 -2.5,-5.7 -4.1,-11.8 -6.6,-17.5 -3.4,-7.7 -5.3,-13.4 -8.4,-22.6 -4.5,-13.6 -6.7,-24.4 -7.9,-30.5 -2.1,-10.6 -3.5,-17.8 -3.7,-27.8 0,-7.6 0.6,-13.9 1.2,-18.3 z"
   id="path56" />
			<path
   fill="#1d1d1b"
   d="m 663.3,740.3 c -2.4,-1 -4.8,0.2 -6.2,1 -4.9,2.5 -6.6,7.8 -7.1,9.4 -0.8,2.3 -1.5,4.6 -0.7,7.3 0.7,2.4 2.6,5 5.3,5.8 5.1,1.6 9.6,-4.1 10.3,-5.1 0.2,-0.2 4,-5.4 2.5,-11.8 -0.3,-1.6 -1.1,-5.4 -4.1,-6.6 z"
   id="path58" />
			<path
   fill="#1d1d1b"
   d="m 649.9,786.3 c -3,-1 -6.3,0.3 -8.2,1.9 -2.7,2.3 -3.2,5.5 -3.6,8.9 -0.5,3.4 -0.8,5.8 0.7,8 2.2,3.1 7.1,4 10.9,2.4 5.2,-2.2 5.9,-8.3 6,-9.2 0.5,-4.3 -1.1,-10.5 -5.8,-12 z"
   id="path60" />
			<path
   fill="#1d1d1b"
   d="m 646,832.8 c -2.4,-1 -4.9,0.2 -6.3,0.9 -4.9,2.4 -6.6,7.4 -7.2,9.1 -0.8,2.2 -1.5,4.4 -0.7,7 0.7,2.3 2.6,4.8 5.3,5.6 5.1,1.5 9.7,-3.9 10.4,-4.9 0.2,-0.2 4,-5.2 2.6,-11.4 -0.3,-1.6 -1.1,-5.2 -4.1,-6.3 z"
   id="path62" />
			<path
   fill="#ffffff"
   d="m 779.2,551.3 c -6.8,3.4 -11,7.8 -13,10 -3.3,3.5 -5.2,6.5 -7.4,9.8 -1.5,2.3 -4.8,7.7 -7.9,15.3 -1.8,4.4 -5.3,13.9 -6.9,26.6 -0.5,4.5 -0.6,7.8 -0.7,14.3 0,2.1 -0.2,13.1 2.1,17.6 0.8,1.6 3.3,5.3 3.5,5.6 0,0 0.4,0.5 0.4,0.6 l 0.1,0.1 v 0 c 1.6,2 3,2.4 3.7,4.5 0.7,2.1 0.3,5 -3,10 -6,8.9 -14.3,13.9 -14,14.4 0.3,0.4 5,-3.2 8.7,-2 0.7,0.2 1.8,0.5 2.9,1.1 1.6,0.8 2.8,1.8 3.5,2.6 1.6,-6 4.1,-9.9 6,-12.3 1.9,-2.3 5.3,-5.9 8.2,-9.6 4.3,-5.3 3.7,-5.2 6.2,-7.9 5.3,-5.7 10.4,-8.5 11.8,-9.2 4.3,-2.2 6.5,-3.4 9.2,-3.3 3.2,0.1 5.7,1.4 10,0.4 1.2,-0.3 2.1,-0.6 2.8,-0.9 3.6,-1.4 5.9,-2.3 6.9,-4.7 1.1,-2.4 0.5,-5.7 -1.1,-7.8 -1,-1.3 -1.6,-1.1 -2,-2 -1.1,-2.7 3.6,-7 8.2,-11.3 2.4,-2.2 4.8,-4.4 8.7,-6.9 4.7,-3 5.6,-2.5 7.1,-4 6.1,-5.9 0.3,-21.2 -0.2,-22.4 -3.1,-7.9 -9.5,-12.7 -22,-22.4 -11.4,-8.9 -15.8,-10.1 -19.8,-10 -4.4,-0.1 -8.1,1.8 -12,3.8 z"
   id="path64" />
			<path
   fill="#1d1d1b"
   d="m 791.3,598.5 c -5,0.2 -8,3.6 -8.5,4.2 -0.6,0.7 -4.3,4.9 -2.8,10.2 1.4,5.2 6.5,7 7.2,7.2 6.4,2.1 11.8,-2.7 12.5,-3.3 0.7,-0.7 5.5,-5 4.3,-10 -0.8,-3.2 -3.6,-4.9 -5.3,-6 -1.3,-0.9 -3.9,-2.4 -7.4,-2.3 z"
   id="path66" />
			<path
   fill="#1d1d1b"
   d="m 768.6,568 c -2.7,-1.9 -6.4,0.3 -6.8,0.5 -2.1,1.3 -2.9,3.2 -3.5,4.5 -0.5,1.1 -0.9,2.1 -0.7,3.3 0,0.1 0.4,1.8 1.8,2.8 2.4,1.6 6,0.2 8,-1.3 0.7,-0.6 3.2,-2.5 3.2,-5.5 0,-0.4 0,-2.9 -2,-4.3 z"
   id="path68" />
			<path
   fill="#1d1d1b"
   d="m 743.4,614.3 c 0.9,-0.7 2.7,0.8 9.7,4.8 5,2.9 6.2,3.3 7.1,3.5 3.9,1 7.2,0.1 9.1,-0.3 2.5,-0.6 5.3,-1.3 7.8,-3.7 2.8,-2.6 3.3,-5.5 4.4,-5.3 0.9,0.2 1.7,2.3 1.5,4.3 -0.8,6.5 -12.6,9.6 -14.1,10 -1.3,0.3 -3.4,0.9 -6.3,0.8 -4.7,-0.1 -8,-1.5 -11.5,-3.2 -3.2,-1.5 -5.1,-2.5 -6.5,-4.8 -1.3,-2 -2.2,-5.4 -1.2,-6.1 z"
   id="path70" />
			<path
   fill="#1d1d1b"
   d="m 782.8,535.4 c 2,-6.7 5.2,-15.7 10.7,-25.7 5.1,-9.4 9.9,-15.6 15.3,-22.7 10.6,-13.8 19.2,-21.5 21.7,-23.8 5.3,-4.7 7.9,-7 10.3,-8.2 14.5,-7.1 32.2,1.6 40.3,5.6 4.3,2.1 19.7,10.7 32.7,29 8.9,12.6 11,23.8 14,37 0,0 4,17.8 -0.7,26.1 -1.8,3.3 -4.3,6.3 -4.3,6.3 -1.5,1.8 -2.6,2.9 -3,3.3 -2,2.1 -2.6,15.4 -6.3,21 -3.2,4.8 -9.7,5.6 -15.3,6.3 -3.7,0.5 -5,0 -22.7,-0.7 -4.3,-0.2 -6.4,0.2 -8.8,1.6 -3.1,1.8 -3.6,3.7 -5.6,5 -2,1.4 -2.9,0.4 -6.2,1.3 -2.8,0.8 -3.1,1.8 -10.9,7.4 -3.5,2.6 -5.1,3.5 -7.4,4.2 -1.7,0.5 -4.5,1.2 -6.2,-0.1 -1.9,-1.4 -1.7,-4.4 -1.6,-6.5 0.3,-13.7 -14.9,-30.2 -17,-32.5 -7.5,-8.1 -15.3,-12.3 -22.1,-16 -6.6,-3.5 -12.5,-5.8 -16.8,-7.2 3.2,-3.5 6.6,-7.1 9.9,-10.7 z"
   id="path72" />
			<path
   fill="#1d1d1b"
   d="m 661.2,541.1 c 7.2,2.4 14.3,4.7 21.5,7.1 6.9,-6.8 9.8,-13.5 11.1,-17.3 3.5,-10.4 1.8,-19 -1.1,-33.2 -1.2,-6 -2.8,-11.3 -6.3,-16.6 -0.8,-1.3 -6.8,-10.3 -10.5,-9 -2.3,0.8 -2.8,5.1 -3,7.3 -1.4,6.1 -3.8,15.1 -7.6,25.7 -8.4,23.4 -17.6,37.8 -14.1,40.2 1,0.5 3.5,0.3 10,-4.2 z"
   id="path74" />
			<path
   fill="#ffffff"
   d="m 677.2,483.7 c 2.8,0 5,7.3 7.9,16.6 0,0 2.6,8.4 3,19.4 0.1,1.9 0.1,3.6 -0.4,5.7 -0.3,1.5 -0.4,2 -2.8,7 -1.7,3.6 -1.5,4.3 -2.7,5.3 -1.6,1.3 -3,0.9 -5.9,1.4 -5.5,0.9 -6.6,4.2 -8.4,3.5 -2.4,-0.8 -1.7,-7.4 -0.5,-23.5 0.6,-8.6 0.6,-9.4 0.7,-10 0,0 0,-0.2 0.1,-0.4 3.8,-24.8 9,-25 9,-25 z"
   id="path76" />
			<path
   fill="#ffffff"
   d="m 657.1,542.6 c -2.5,3.7 -8,5.7 -9.7,4.2 -1.1,-1 -0.3,-3.3 4.7,-15.7 5.4,-13.4 6.3,-15.2 6.9,-15.1 0.9,0.2 -0.7,5.1 -0.7,15.5 0.1,6 0.6,8.5 -1.2,11.1 z"
   id="path78" />
			<path
   fill="#ffffff"
   d="m 800.1,533 c -3.5,-2.6 -3.9,-4 -4,-4.7 -0.2,-1.9 0.9,-3.4 1.3,-4 5.7,-7.9 5.7,-17.6 19.3,-34 4.8,-5.8 9,-9.6 12,-12.3 8.9,-8.1 13.4,-12.1 17.7,-13.7 10.7,-3.9 21.4,1.1 30,5.2 3.9,1.8 19.5,9.6 28.8,25.5 6.3,10.7 9.7,25 10.3,27.5 0.1,0.4 0.2,0.7 0.2,0.8 1.8,8 3.9,16.8 0.5,24.1 -1.8,4 -3.7,3.9 -6.6,10 -1.7,3.5 -2.1,5.6 -2.2,6.4 -0.6,3.6 0.2,4.5 -0.4,7.3 -0.7,3.4 -2.9,6.2 -4.7,7.6 -1.6,1.3 -4.2,2.7 -11.7,3 -13.1,0.5 -20.6,-3.6 -25,0.3 -0.5,0.4 -1.8,1.7 -4,3.3 -2.6,1.9 -4,2.9 -5.3,2.7 -1.9,-0.4 -2.4,-3.4 -4,-8 -2.7,-8 -5.4,-8.7 -4.7,-10.7 1.3,-3.3 20.5,-1.3 21.7,-5 0.4,-1.4 -1.8,-3.9 -4.3,-5 -6.8,-2.7 -12.3,6.1 -20.7,4 -0.5,-0.1 -5.8,-1.5 -6.7,-5 -1.9,-7.8 21.3,-18.4 20,-21 -0.6,-1.2 -6,-0.3 -10.7,2 -7.1,3.5 -7.7,7.8 -12.7,8.7 -4.4,0.7 -10.1,-1.6 -11,-5 -1.7,-6.5 15.6,-14.7 13.7,-19.3 -0.6,-1.5 -3,-2.1 -4.7,-2 -6.3,0.3 -7.6,11 -17.3,15 -2.1,0.9 -3.6,1 -4.3,1 -4,0.1 -7.1,-2.2 -10.5,-4.7 z"
   id="path80" />
			<path
   fill="#ffffff"
   d="m 789.8,537.7 c -2.6,0.8 -3.3,5.3 -3.3,6 3.7,1.1 8.1,2.8 12.7,5.3 10.1,5.6 16.1,12.4 19,15.7 10.8,12.4 15.1,25.8 17,33.7 3.4,-1.4 6.9,-2.9 10.3,-4.3 -0.4,-2.5 -1.1,-6.3 -2.7,-10.7 -4.8,-13.4 -13.8,-21.3 -20.3,-27 -4.6,-4 -11.7,-9.4 -21.7,-14 -2.8,-1.7 -5.2,-2.9 -7,-3.7 -2.4,-1.1 -3.2,-1.3 -4,-1 z"
   id="path82" />
			<g
   id="g88">
				<path
   fill="#1d1d1b"
   d="m 763.4,584.4 v 0 c -3.6,2.2 -8.5,5.6 -13.5,10.3 -5.1,4.8 -7.6,7.3 -7.2,10.3 0.7,5 8.9,9.4 16.2,8.9 5.9,-0.4 9.7,-4 11.7,-5.9 8.6,-8.1 7.7,-18.8 7.2,-22.1"
   id="path84" />
				<path
   fill="#ffffff"
   d="m 766.5,582.7 v 0 c -2.4,1.8 -5.8,4.6 -9.2,8.4 -3.4,4 -5.2,6 -4.9,8.4 0.5,4.1 6,7.7 11,7.2 4,-0.4 6.5,-3.2 7.9,-4.8 5.8,-6.6 5.2,-15.4 4.9,-18.1"
   id="path86" />
			</g>
			<path
   fill="#1d1d1b"
   d="m 791.7,580.9 c -2.9,-2.2 -7,0.3 -7.4,0.6 -2.3,1.4 -3.2,3.7 -3.8,5.2 -0.5,1.3 -1,2.4 -0.7,3.8 0,0.1 0.4,2.1 2,3.3 2.6,1.9 6.5,0.3 8.7,-1.5 0.8,-0.7 3.5,-2.8 3.4,-6.3 0,-0.6 -0.1,-3.5 -2.2,-5.1 z"
   id="path90" />
			<path
   fill="#1d1d1b"
   d="m 789.5,602.8 c -3.3,0.1 -5.4,2.4 -5.7,2.8 -0.4,0.5 -2.9,3.3 -1.9,6.8 0.9,3.5 4.4,4.7 4.8,4.8 4.3,1.4 7.9,-1.8 8.4,-2.2 0.5,-0.4 3.7,-3.4 2.9,-6.7 -0.5,-2.1 -2.4,-3.3 -3.6,-4 -0.9,-0.5 -2.6,-1.6 -4.9,-1.5 z"
   id="path92" />
		</g>
		<g
   id="XMLID_1_">
			<g
   id="g100">
				<path
   fill="#ffffff"
   d="m 848.7,228.6 c 15.6,20.5 10.2,41.7 -14.4,48.5 -12,3.3 -25.8,0.5 -38.7,0.6 -16.1,0.1 -32.7,-2 -48.3,0.9 -15.7,2.9 -26.9,14.8 -32.1,30.4 -21,63.7 -94.3,326.3 -157.8,487.8 l -9.6,-3.8 c 1.6,-4 3.2,-9.4 5.3,-16.3 15.7,-51.8 103.3,-352.4 118.2,-434 1.1,-6.2 4.9,-27.4 16,-53.1 6.7,-15.5 13,-30.1 25.6,-44.3 3,-3.4 40.2,-44 90.2,-38.8 7.7,0.7 31.6,3.6 45.6,22.1 z"
   id="path96" />
				<path
   fill="#ffffff"
   d="m 547.8,793 9.6,3.8 c -2.3,5.9 -4.6,11.6 -6.9,17.3 -16.3,40 -41.5,93.6 -96.2,123.5 -42.3,23.1 -84.8,22.5 -98.8,21.8 -55.4,-2.8 -85.6,-20.7 -107.1,-39.5 -12.2,-10.6 -27.3,-29.2 -39.9,-50.9 -20.1,-34.7 -26.1,-66.1 -27.3,-74.5 -0.4,-2.5 -2.2,-17 -2.2,-17 -0.2,-1 -3,-16.4 0.5,-50.5 0.4,-4.2 1.3,-11.1 6.5,-16.2 4.5,-4.3 11.1,-6.3 19.1,-5.7 23.7,1.6 47.7,2.5 70.9,7.1 83,16.3 163.8,40 238.8,80.3 22.6,11.9 27.4,14.9 33,0.5 z"
   id="path98" />
			</g>
		</g>
		<path
   fill="#1d1d1b"
   d="m 226.4,736.2 c 4.1,-12.3 99.1,7 177.2,33.9 11.9,4.1 105.9,36.8 102.5,51.9 -1.1,4.9 -12.3,6.6 -21.9,7.3 -44,-7.6 -80.9,-16.1 -109.2,-23.3 -50.2,-12.8 -77.2,-22.6 -104.9,-37.8 -19.4,-10.7 -46,-25.2 -43.7,-32 z"
   id="path103" />
		<path
   fill="#1d1d1b"
   d="m 231.6,742 c -1.3,-1.1 -2.7,-2.6 -2.4,-3.8 2.1,-7.6 70.5,5.1 75.8,6.1 35.9,6.8 61.8,14.8 88.8,23.2 55.7,17.4 84.8,20.6 110,47.1 2.4,2.5 4.2,4.7 5.5,6.1 -0.6,1.3 -1.6,3.1 -3.4,4.8 -3.5,3.2 -7.8,5.2 -22.5,3.4 -7.8,-1 -15.1,-0.1 -25.6,-1.5 -7,-0.9 -12.4,-2.1 -14.8,-2.6 C 396.1,814.6 362.4,804.3 362.4,804.3 285.6,780 263.8,766.6 249,755.8 241.3,750.4 235.4,745.3 231.6,742 Z"
   id="path105" />
		<path
   fill="#1d1d1b"
   d="m 420.1,762.4 c -14.2,-5.4 -71.6,-26.8 -153,-39.2 -67.2,-10.2 -72,-4.1 -72.9,-1.8 -2.6,7 16,19.9 28.7,28.7 12.7,8.8 30.3,19.1 82.9,38.3 20.9,7.6 39.8,14.4 66.5,21.9 16.6,4.6 36.4,10.1 62.8,14.6 18.9,3.2 44.3,6.5 74.7,7.3 7.3,-1.7 15.3,-4.7 16.4,-10 3.6,-18.2 -75,-47.9 -106.1,-59.8 z"
   id="path107" />
		<path
   fill="#ffffff"
   d="m 240.9,741.8 c 2.4,-8.2 77.3,5.1 139.4,23.2 65.8,19.2 139.1,50.3 136.6,58.8 -2.5,8.5 -81.7,-6 -147.6,-26 -60.6,-18.4 -130.8,-47.8 -128.4,-56 z"
   id="path109" />
		<path
   fill="#1d1d1b"
   d="m 367.8,732.3 c -0.1,1 -0.5,3.7 -0.3,7.4 0.6,8.3 4.3,14.8 7.5,19.3 1,0.4 2.6,0.9 4.4,0.7 9.3,-0.8 14.7,-16.7 18.5,-26.6 8.1,-21.1 17.4,-36.2 28.8,-54.6 14.1,-22.8 21.6,-27 24.4,-43.5 1.1,-6.8 2.9,-18.7 -4.3,-27.8 -6.8,-8.6 -18.4,-10.6 -22.3,-11.1 -2.5,-0.3 -6.2,-0.7 -10.3,0.3 -8,2.1 -14.7,8.4 -18.9,18.4 -16,37.9 -25.3,77 -27.5,117.5 z"
   id="path111" />
		<path
   fill="#1d1d1b"
   d="m 296.1,573.7 c -2.7,-6.1 -7.6,-17.1 -3,-28.8 5.9,-15.1 22.7,-18.9 24.4,-19.2 3.2,-0.7 11.8,-1.9 20.7,2.2 7.9,3.7 12.6,10 18.5,20.7 11.3,20.5 17.7,39.8 22.1,56.1 2.6,9.3 5.6,20.3 8.1,35.4 2.1,12.3 5.3,31.7 4.4,56.8 -0.5,15.3 -2.6,36.3 -9.6,60.5 -2.6,2.8 -6.3,6 -9.6,5.2 -7.3,-1.8 -7.3,-21 -10.3,-42.1 -5,-24.5 -11.1,-44.4 -16.2,-59 -3.8,-10.7 -7.4,-20.9 -14,-34 -5.2,-10.3 -10.8,-21.2 -20.7,-34 -8.1,-10.2 -11.3,-11.8 -14.8,-19.8 z"
   id="path113" />
		<path
   fill="#1d1d1b"
   d="m 395.7,491.8 c -0.2,-0.3 -0.4,-0.8 -0.7,-1.5 -2.3,-4.6 -3.5,-8.3 -3.7,-8.9 -1.6,-4.3 -10.9,-15.5 -23.2,-14.5 -8,0.7 -15.2,6 -17.7,12.3 -2.9,7.2 -2.2,15.3 -0.4,22.7 2.9,12.4 8.6,23.8 14.3,35.1 8.8,17.6 17.6,35.3 26.5,52.9 19.1,-27.1 35.5,-51 50,-71.9 4.7,-6.8 13,-18.8 9.7,-31.4 -2.7,-10.1 -11.5,-14.9 -12.5,-15.5 -11.7,-6.2 -26,-1.2 -34,6.6 -5.3,5.1 -7.4,10.9 -8.3,14.1 z"
   id="path115" />
		<path
   fill="#ffffff"
   d="m 383.1,704 c 0.3,-55.1 -13.7,-106.5 -39.3,-154.9 -2.5,-4.8 -7.5,-9.1 -12.3,-11.6 -8.2,-4.1 -18.7,-0.5 -24.3,6.8 -6.2,8 -6.3,17.9 0.8,27.3 19.8,26.4 36.2,54.5 47.2,85.7 10,28.4 14.8,57.7 17.1,87.6 0.2,2.6 2.6,5 3.9,7.5 1.4,-2.6 3.7,-5.1 4,-7.8 1.3,-13.6 2,-27.1 2.9,-40.6 z"
   id="path117" />
		<path
   fill="#ffffff"
   d="m 375.2,738.5 c -0.1,2.4 -0.6,4.9 -0.2,7.2 0.5,3.1 1.7,6.1 2.6,9.1 2,-2.4 4.7,-4.5 5.8,-7.2 6.9,-16.7 12.2,-34.3 20.4,-50.3 10,-19.3 22.1,-37.6 33.9,-55.9 9.5,-14.8 3.4,-32.4 -13,-35.7 -10.8,-2.1 -20.4,4.5 -25.6,18.3 -13.8,37 -22,75 -23.9,114.5 z"
   id="path119" />
		<path
   fill="#ffffff"
   d="m 396.4,502.4 c 0,0 0.7,1.5 -1.9,-2.7 -2.6,-4.2 -11.7,-16.1 -20.6,-16 -5.2,0.1 -10.8,3.5 -12.9,8.7 -2,5.2 -1.4,11 0,16.4 2.3,9 6.6,17.3 10.9,25.6 6.7,12.9 13.4,25.8 20.1,38.7 11.9,-17.1 23.9,-34.3 35.8,-51.4 4.6,-6.7 9.4,-13.7 10.5,-21.7 1,-7.6 -3.6,-17.5 -10.5,-19.8 -8.3,-2.7 -19.5,6.7 -25.5,14.5 -6,7.8 -5.9,7.7 -5.9,7.7 z"
   id="path121" />
		<path
   fill="#1d1d1b"
   d="m 690.2,998.5 c -0.1,-0.1 -0.4,-0.3 -2.2,0 -2.1,0.4 -3.1,0.6 -3.2,1 -0.1,0.8 3.1,2.8 4.7,1.7 0.8,-0.7 1.2,-2.2 0.7,-2.7 z"
   id="path123" />
	</g>
</g>
<g
   id="Branco"
   display="none"
   transform="translate(-166.6,-195.84406)">
	<g
   display="inline"
   id="g211">
		<path
   fill="#ffffff"
   d="m 536.6,787.4 c 16.9,-55.7 34.3,-109.1 49.2,-163.1 30,-108.8 58.5,-218.1 88,-327 11,-40.5 33,-73.4 71.4,-92.7 30,-15.1 61.8,-17.9 91.8,-2.5 9.1,4.6 24.9,13.5 31.4,31.8 1,2.9 8.1,24 -3.3,40.2 -10.3,14.5 -29.3,16.3 -44.3,17.7 -13.1,1.3 -13.6,-1.4 -39.3,-1.3 -18.6,0.1 -28.1,0.1 -35.6,4.7 -8.3,5.2 -14.2,14.3 -19.2,28.4 -21.1,59.4 -123.1,387.6 -123.1,387.6 -1.7,5.2 -47.5,131 -53.1,141 -15.7,28.1 -39.5,70.8 -89.3,98.2 -8.6,4.7 -77.5,41.1 -155.8,15 C 202.8,931.2 154.3,813 168.8,729.5 c 2,-11.1 4.8,-20.3 7.4,-27.3 9.2,-5.3 17,-7 22.1,-7.6 2.9,-0.4 5.2,-0.3 10,-0.4 9,-0.2 16.2,0.4 21.5,0.9 50.6,4.4 88.3,11.8 88.3,11.8 28.6,5.4 60.8,13.2 95.4,24.9 49.1,16.7 90.2,36.7 123.1,55.6 z"
   id="path128" />
		<g
   id="g180">
			<path
   fill="#ffffff"
   d="m 655.6,883.2 c -2.5,-0.6 -4.8,-1.1 -5.7,0 -1.7,2 2,7.6 5.9,13.9 11.4,18.1 6,11.2 14.3,23.6 8.9,13.3 13.3,20 19.2,26.8 4.4,5.1 8.4,10.6 12.8,15.7 0,0 2.1,3.1 6.4,9.3 1.5,2.2 2.6,3.8 2.5,5.9 -0.1,2.5 -1.5,4.4 -2.2,5.4 -1.1,1.5 -2.5,2.7 -4.9,4.1 -1.7,1 -4.3,2.3 -10.3,4.1 -5.7,1.7 -7.1,1.6 -10,3.3 -2.1,1.3 -4.7,2.8 -4.8,5.2 -0.1,2.5 2.4,4.5 4.1,5.4 1.4,0.7 2.8,0.8 5.5,0.9 1.6,0.1 2.4,0 3,-0.2 0.3,-0.1 0.5,-0.1 0.7,-0.2 0.5,-0.2 0.6,-0.4 0.8,-0.3 0.3,0.1 0.4,0.4 0.5,0.6 0.4,0.7 1.3,1 2.6,1.4 1.1,0.3 2,0.4 2.2,0.4 3.3,0.1 6,-0.6 6,-0.6 2.9,-0.8 7.9,-1.7 15,-3 1.8,-0.5 4.5,-1.1 7.7,-1.6 0.8,-0.1 4.1,-0.6 9,-0.6 7.8,-0.1 9.1,0.9 12.8,-0.2 1.8,-0.5 4.3,-1.4 6.4,-3.7 4.6,-5.2 2.4,-13.6 1.7,-16 -1.6,-6 -3.6,-5.4 -6.9,-13.3 -2.1,-5.1 -2.9,-9.6 -3.9,-15.3 -0.8,-4.2 -0.8,-5.8 -1.5,-11.3 -1.2,-10 -2.1,-13.2 -3,-19.2 -0.8,-5.8 -1.5,-14.1 -1,-24.6 0.1,-1 0.2,-2.5 -0.7,-3.7 -3.6,-5.3 -17,4.1 -34.7,1.4 -12.7,-2 -20.4,-7 -49.5,-13.6 z"
   id="path130" />
			<path
   fill="#ffffff"
   d="m 728.7,973.7 c 0,-0.9 -0.5,-1.5 -1.3,-2.5 -1.8,-2.4 -3.4,-5 -5.2,-7.4 -1.2,-1.6 -2.1,-3.4 -4.1,-6.9 -3.7,-6.6 -6.4,-12.4 -15.3,-29.3 -5.8,-10.9 -9.5,-16.4 -13.8,-27.3 -1.3,-3.2 -1.4,-6.3 -2.9,-7.8 -1.3,-1.3 -3.9,-1.4 -6.8,-2.4 -12.5,-4.4 -13.5,-5 -14.2,-4.4 -3.2,2.7 9.5,23.6 19.8,38.1 5.9,8.3 17.5,23.6 23.9,32.9 5,7.3 3.5,6.2 6.8,10.7 1.9,2.6 3.4,4.6 3.7,6.5 0.7,4.4 -5.3,7.9 -4.6,8.9 0.6,0.8 5.2,-2 8.9,-4.2 3.7,-2.2 5.1,-3.4 5.1,-4.9 z"
   id="path132" />
			<path
   fill="#ffffff"
   d="m 701.5,897.5 c -1.5,2.1 -0.1,7 4.2,16 13.7,28.4 14.3,30.3 14.9,31.2 0.1,0.2 0.2,0.3 0.2,0.4 1.8,2.7 4.9,11.1 7.6,16.1 0,0 1.6,3 3.2,6.1 1.5,2.9 2.6,4.5 2.9,7.1 0.1,1.1 0.4,2 0.1,2.6 -1.6,3.1 -8.6,6.3 -11.6,7.9 -10,5.3 -15.5,8.3 -21.6,8.3 -1,0 -3.7,-0.1 -4.9,1.6 -1,1.3 -1,3.5 -0.1,4.7 1.7,2.1 6.1,0.6 13.2,-1.1 7,-1.7 14.7,-3.5 22.4,-4.2 10.2,-0.8 13.6,0.9 16.3,-2.1 2.9,-3.3 2.2,-9.3 0.9,-12.9 -1.1,-3 -2.7,-4.8 -3.6,-5.8 -3.7,-4.5 -4.3,-8.7 -8,-28 -3.3,-17.6 -3.1,-13.8 -4,-20.4 -2.3,-16.3 -1,-23.1 -5.9,-26.2 -0.1,-0.1 -0.3,-0.2 -0.6,-0.3 -8.5,-4.5 -22.2,-6 -25.6,-1 z"
   id="path134" />
			<path
   fill="#ffffff"
   d="m 761,673.2 c -3.9,20.6 -5.1,38.1 -5.3,50.9 -0.4,22.9 2,41 3.7,53.5 1.7,12.1 3.7,23.2 6.6,38.7 3.5,18.6 5.2,28 5.9,30.3 2.9,10.1 5.2,16.3 5.3,26.8 0.1,11.6 -2.9,16.2 -4.2,18 -2.8,3.8 -7,6.5 -14,8.6 -18.7,5.7 -39.9,2.1 -49.7,0 -14.8,-1.4 -27.2,-3.7 -36.7,-5.9 -15.8,-3.7 -23.7,-7.2 -39.6,-14.3 -5.1,-2.3 -7.8,-3.6 -9.8,-6.6 -4.6,-6.7 -1,-13.6 2,-32.5 1.9,-12 0.4,-9.1 3.2,-32.2 1.6,-12.8 2.4,-19.2 3.5,-25.1 5.8,-30.1 23.1,-68.5 33.4,-81.4 1,-1.3 4.6,-5.5 4.8,-11.4 0.2,-4.9 -2,-8.7 -3,-10.3 -6.7,-11.6 -11.9,-24.1 -18.4,-35.9 -1.4,-2.5 -8.9,-17.1 -12.8,-30.6 -7.1,-25.2 -10.7,-63.1 20.5,-73.2 13.7,-4.4 32.2,-3.2 42.9,7.6 5.7,5.8 8.5,14.4 10,18.6 2.1,6 2.6,10.4 3.6,18.2 5.3,41.6 5.4,41.4 5.3,43.7 -0.4,6.8 0,12.9 0.6,25 0.1,2.4 0.4,6.9 3.6,10.7 0.7,0.9 3.5,4.2 7.6,4.7 1.8,0.2 3.7,-0.1 5.7,-0.5 1.3,-0.2 2.4,-0.5 3.2,-0.7 0.2,4.7 2.9,8.9 6.9,10.6 5.2,2.2 11.8,0 15.2,-5.3 z"
   id="path136" />
			<path
   fill="#ffffff"
   d="m 765,550.3 c -9,7.2 -13.6,15.2 -15.9,19.2 -4,7 -5.8,12.8 -7.7,19.2 -2.6,8.4 -3.7,15 -4.1,17.3 -2.3,14.9 -1.1,25.7 -0.7,28.4 1,8.3 1.6,12.6 4.8,16.6 2.5,3.1 4.8,4.1 4.9,6.9 0.1,3.2 -2.8,5.1 -7.6,10.3 -1.9,2.1 -4.5,5.2 -7.3,9.3 9.1,3.6 18.3,7.2 27.4,10.8 0.3,-2.2 0.9,-4.9 2,-7.9 0.8,-2.2 1.8,-4.1 2.7,-5.7 3.3,-3.3 5.6,-6.1 7.1,-8.1 3.1,-4.1 3.7,-5.7 6.9,-9.1 1.8,-1.9 3.2,-3.2 6.2,-5.7 4.6,-3.9 6.1,-4.5 7.1,-4.9 1.2,-0.4 2.7,-0.4 5.7,-0.6 3.6,-0.1 4.5,0.1 6.9,0 3.1,-0.1 5.8,-0.2 8.6,-1.5 0.6,-0.3 6.7,-3.2 7.9,-9.5 0.5,-2.8 -0.1,-5 -1,-8 -0.3,-1 -0.7,-2.2 -1.7,-3.2 -0.2,-0.2 -0.2,-0.2 -0.2,-0.2 -0.9,-1.7 8.7,-8.6 9.8,-9.3 2.3,-1.6 5.7,-3.8 10.1,-6.2 0.6,-8.2 0.4,-22.4 -7.6,-36.6 -10.6,-18.8 -33.8,-35.3 -50.9,-30 -5.3,2 -9.6,5.5 -13.4,8.5 z"
   id="path138" />
			<path
   fill="#ffffff"
   d="m 664.6,721.5 c -2.6,5.2 -4,9.7 -4.8,12.5 -6.4,12 -9.6,21 -11.3,26.4 -0.4,1.4 -1.1,3.7 -1.9,6.5 -1.6,5.9 -2.7,11.3 -4.1,18.2 -3,14.8 -6.1,29.8 -7,47.6 -0.2,4.1 -0.5,12.5 -1.3,25.7 -0.3,4.1 -1.9,7.6 -0.7,9.7 3.1,5.4 13.2,6.5 22.7,10 22.2,8.3 40,10.7 52,12.3 28.2,3.7 40.7,1 46.6,-0.7 1.1,-0.3 3.8,-0.2 6.3,-2 5,-3.6 5.3,-11.1 5.2,-14.8 -2.7,-11.6 -5.9,-26.3 -8.9,-43.5 -4.4,-24.8 -6.5,-43.5 -7.1,-48.9 -2.6,-23.8 -4.2,-37.8 -3.6,-56.9 0.6,-17.3 2.8,-31.6 4.7,-41.5 0.4,-2.8 -1.2,-5.4 -3.7,-6.2 -2.1,-0.7 -4.5,0 -6,1.8 -2.5,0.7 -5.1,1.3 -7.6,2 -2.8,-0.3 -7.5,-1.1 -12.5,-3.9 -2.3,-1.3 -6.5,-3.6 -9.2,-8.1 -3.3,-5.5 -2.8,-11.4 -2.6,-13.6 1.7,-21.5 -4.1,-56.2 -5.8,-65.2 -3.1,-16.4 -6.5,-33.4 -18.3,-37.5 -5.2,-1.8 -11.8,-1.1 -16.3,2.3 -12.2,9.1 -6.4,35.3 -4,46.3 0.3,1.4 2.6,9.4 7.3,25.3 3.4,11.5 4.9,16.4 5.7,19 6.3,20.5 7,20.9 7.8,23.1 0.7,2 1.1,3.5 1.2,3.9 0.5,2.2 4.3,10.3 4.7,11.3 3,7.4 -17,18.2 -27.5,38.9 z"
   id="path140" />
			<path
   fill="#ffffff"
   d="m 655.3,553.8 c -2.6,0.6 -6.6,1.9 -9.8,5.3 -2.2,2.3 -5.1,6.9 -4.4,20.4 0.2,5.3 0.9,10.4 4.4,24.1 2.5,9.6 4.7,16.9 6.2,22.1 10.5,24.2 18,41.7 21.2,50.2 0.8,2.2 2.9,7.9 6.1,8.1 1.5,0.1 2.9,-1 3.7,-2.2 1.9,-3 -0.1,-7.1 -2,-11.3 -2.5,-5.7 -4.1,-11.8 -6.6,-17.5 -3.4,-7.7 -5.3,-13.4 -8.4,-22.6 -4.5,-13.6 -6.7,-24.4 -7.9,-30.5 -2.1,-10.6 -3.5,-17.8 -3.7,-27.8 0,-7.6 0.6,-13.9 1.2,-18.3 z"
   id="path142" />
			<path
   fill="#ffffff"
   d="m 663.3,740.3 c -2.4,-1 -4.8,0.2 -6.2,1 -4.9,2.5 -6.6,7.8 -7.1,9.4 -0.8,2.3 -1.5,4.6 -0.7,7.3 0.7,2.4 2.6,5 5.3,5.8 5.1,1.6 9.6,-4.1 10.3,-5.1 0.2,-0.2 4,-5.4 2.5,-11.8 -0.3,-1.6 -1.1,-5.4 -4.1,-6.6 z"
   id="path144" />
			<path
   fill="#ffffff"
   d="m 649.9,786.3 c -3,-1 -6.3,0.3 -8.2,1.9 -2.7,2.3 -3.2,5.5 -3.6,8.9 -0.5,3.4 -0.8,5.8 0.7,8 2.2,3.1 7.1,4 10.9,2.4 5.2,-2.2 5.9,-8.3 6,-9.2 0.5,-4.3 -1.1,-10.5 -5.8,-12 z"
   id="path146" />
			<path
   fill="#ffffff"
   d="m 646,832.8 c -2.4,-1 -4.9,0.2 -6.3,0.9 -4.9,2.4 -6.6,7.4 -7.2,9.1 -0.8,2.2 -1.5,4.4 -0.7,7 0.7,2.3 2.6,4.8 5.3,5.6 5.1,1.5 9.7,-3.9 10.4,-4.9 0.2,-0.2 4,-5.2 2.6,-11.4 -0.3,-1.6 -1.1,-5.2 -4.1,-6.3 z"
   id="path148" />
			<path
   fill="#ffffff"
   d="m 779.2,551.3 c -6.8,3.4 -11,7.8 -13,10 -3.3,3.5 -5.2,6.5 -7.4,9.8 -1.5,2.3 -4.8,7.7 -7.9,15.3 -1.8,4.4 -5.3,13.9 -6.9,26.6 -0.5,4.5 -0.6,7.8 -0.7,14.3 0,2.1 -0.2,13.1 2.1,17.6 0.8,1.6 3.3,5.3 3.5,5.6 0,0 0.4,0.5 0.4,0.6 l 0.1,0.1 v 0 c 1.6,2 3,2.4 3.7,4.5 0.7,2.1 0.3,5 -3,10 -6,8.9 -14.3,13.9 -14,14.4 0.3,0.4 5,-3.2 8.7,-2 0.7,0.2 1.8,0.5 2.9,1.1 1.6,0.8 2.8,1.8 3.5,2.6 1.6,-6 4.1,-9.9 6,-12.3 1.9,-2.3 5.3,-5.9 8.2,-9.6 4.3,-5.3 3.7,-5.2 6.2,-7.9 5.3,-5.7 10.4,-8.5 11.8,-9.2 4.3,-2.2 6.5,-3.4 9.2,-3.3 3.2,0.1 5.7,1.4 10,0.4 1.2,-0.3 2.1,-0.6 2.8,-0.9 3.6,-1.4 5.9,-2.3 6.9,-4.7 1.1,-2.4 0.5,-5.7 -1.1,-7.8 -1,-1.3 -1.6,-1.1 -2,-2 -1.1,-2.7 3.6,-7 8.2,-11.3 2.4,-2.2 4.8,-4.4 8.7,-6.9 4.7,-3 5.6,-2.5 7.1,-4 6.1,-5.9 0.3,-21.2 -0.2,-22.4 -3.1,-7.9 -9.5,-12.7 -22,-22.4 -11.4,-8.9 -15.8,-10.1 -19.8,-10 -4.4,-0.1 -8.1,1.8 -12,3.8 z"
   id="path150" />
			<path
   fill="#ffffff"
   d="m 791.3,598.5 c -5,0.2 -8,3.6 -8.5,4.2 -0.6,0.7 -4.3,4.9 -2.8,10.2 1.4,5.2 6.5,7 7.2,7.2 6.4,2.1 11.8,-2.7 12.5,-3.3 0.7,-0.7 5.5,-5 4.3,-10 -0.8,-3.2 -3.6,-4.9 -5.3,-6 -1.3,-0.9 -3.9,-2.4 -7.4,-2.3 z"
   id="path152" />
			<path
   fill="#ffffff"
   d="m 768.6,568 c -2.7,-1.9 -6.4,0.3 -6.8,0.5 -2.1,1.3 -2.9,3.2 -3.5,4.5 -0.5,1.1 -0.9,2.1 -0.7,3.3 0,0.1 0.4,1.8 1.8,2.8 2.4,1.6 6,0.2 8,-1.3 0.7,-0.6 3.2,-2.5 3.2,-5.5 0,-0.4 0,-2.9 -2,-4.3 z"
   id="path154" />
			<path
   fill="#ffffff"
   d="m 743.4,614.3 c 0.9,-0.7 2.7,0.8 9.7,4.8 5,2.9 6.2,3.3 7.1,3.5 3.9,1 7.2,0.1 9.1,-0.3 2.5,-0.6 5.3,-1.3 7.8,-3.7 2.8,-2.6 3.3,-5.5 4.4,-5.3 0.9,0.2 1.7,2.3 1.5,4.3 -0.8,6.5 -12.6,9.6 -14.1,10 -1.3,0.3 -3.4,0.9 -6.3,0.8 -4.7,-0.1 -8,-1.5 -11.5,-3.2 -3.2,-1.5 -5.1,-2.5 -6.5,-4.8 -1.3,-2 -2.2,-5.4 -1.2,-6.1 z"
   id="path156" />
			<path
   fill="#ffffff"
   d="m 782.8,535.4 c 2,-6.7 5.2,-15.7 10.7,-25.7 5.1,-9.4 9.9,-15.6 15.3,-22.7 10.6,-13.8 19.2,-21.5 21.7,-23.8 5.3,-4.7 7.9,-7 10.3,-8.2 14.5,-7.1 32.2,1.6 40.3,5.6 4.3,2.1 19.7,10.7 32.7,29 8.9,12.6 11,23.8 14,37 0,0 4,17.8 -0.7,26.1 -1.8,3.3 -4.3,6.3 -4.3,6.3 -1.5,1.8 -2.6,2.9 -3,3.3 -2,2.1 -2.6,15.4 -6.3,21 -3.2,4.8 -9.7,5.6 -15.3,6.3 -3.7,0.5 -5,0 -22.7,-0.7 -4.3,-0.2 -6.4,0.2 -8.8,1.6 -3.1,1.8 -3.6,3.7 -5.6,5 -2,1.4 -2.9,0.4 -6.2,1.3 -2.8,0.8 -3.1,1.8 -10.9,7.4 -3.5,2.6 -5.1,3.5 -7.4,4.2 -1.7,0.5 -4.5,1.2 -6.2,-0.1 -1.9,-1.4 -1.7,-4.4 -1.6,-6.5 0.3,-13.7 -14.9,-30.2 -17,-32.5 -7.5,-8.1 -15.3,-12.3 -22.1,-16 -6.6,-3.5 -12.5,-5.8 -16.8,-7.2 3.2,-3.5 6.6,-7.1 9.9,-10.7 z"
   id="path158" />
			<path
   fill="#ffffff"
   d="m 661.2,541.1 c 7.2,2.4 14.3,4.7 21.5,7.1 6.9,-6.8 9.8,-13.5 11.1,-17.3 3.5,-10.4 1.8,-19 -1.1,-33.2 -1.2,-6 -2.8,-11.3 -6.3,-16.6 -0.8,-1.3 -6.8,-10.3 -10.5,-9 -2.3,0.8 -2.8,5.1 -3,7.3 -1.4,6.1 -3.8,15.1 -7.6,25.7 -8.4,23.4 -17.6,37.8 -14.1,40.2 1,0.5 3.5,0.3 10,-4.2 z"
   id="path160" />
			<path
   fill="#ffffff"
   d="m 677.2,483.7 c 2.8,0 5,7.3 7.9,16.6 0,0 2.6,8.4 3,19.4 0.1,1.9 0.1,3.6 -0.4,5.7 -0.3,1.5 -0.4,2 -2.8,7 -1.7,3.6 -1.5,4.3 -2.7,5.3 -1.6,1.3 -3,0.9 -5.9,1.4 -5.5,0.9 -6.6,4.2 -8.4,3.5 -2.4,-0.8 -1.7,-7.4 -0.5,-23.5 0.6,-8.6 0.6,-9.4 0.7,-10 0,0 0,-0.2 0.1,-0.4 3.8,-24.8 9,-25 9,-25 z"
   id="path162" />
			<path
   fill="#ffffff"
   d="m 657.1,542.6 c -2.5,3.7 -8,5.7 -9.7,4.2 -1.1,-1 -0.3,-3.3 4.7,-15.7 5.4,-13.4 6.3,-15.2 6.9,-15.1 0.9,0.2 -0.7,5.1 -0.7,15.5 0.1,6 0.6,8.5 -1.2,11.1 z"
   id="path164" />
			<path
   fill="#ffffff"
   d="m 800.1,533 c -3.5,-2.6 -3.9,-4 -4,-4.7 -0.2,-1.9 0.9,-3.4 1.3,-4 5.7,-7.9 5.7,-17.6 19.3,-34 4.8,-5.8 9,-9.6 12,-12.3 8.9,-8.1 13.4,-12.1 17.7,-13.7 10.7,-3.9 21.4,1.1 30,5.2 3.9,1.8 19.5,9.6 28.8,25.5 6.3,10.7 9.7,25 10.3,27.5 0.1,0.4 0.2,0.7 0.2,0.8 1.8,8 3.9,16.8 0.5,24.1 -1.8,4 -3.7,3.9 -6.6,10 -1.7,3.5 -2.1,5.6 -2.2,6.4 -0.6,3.6 0.2,4.5 -0.4,7.3 -0.7,3.4 -2.9,6.2 -4.7,7.6 -1.6,1.3 -4.2,2.7 -11.7,3 -13.1,0.5 -20.6,-3.6 -25,0.3 -0.5,0.4 -1.8,1.7 -4,3.3 -2.6,1.9 -4,2.9 -5.3,2.7 -1.9,-0.4 -2.4,-3.4 -4,-8 -2.7,-8 -5.4,-8.7 -4.7,-10.7 1.3,-3.3 20.5,-1.3 21.7,-5 0.4,-1.4 -1.8,-3.9 -4.3,-5 -6.8,-2.7 -12.3,6.1 -20.7,4 -0.5,-0.1 -5.8,-1.5 -6.7,-5 -1.9,-7.8 21.3,-18.4 20,-21 -0.6,-1.2 -6,-0.3 -10.7,2 -7.1,3.5 -7.7,7.8 -12.7,8.7 -4.4,0.7 -10.1,-1.6 -11,-5 -1.7,-6.5 15.6,-14.7 13.7,-19.3 -0.6,-1.5 -3,-2.1 -4.7,-2 -6.3,0.3 -7.6,11 -17.3,15 -2.1,0.9 -3.6,1 -4.3,1 -4,0.1 -7.1,-2.2 -10.5,-4.7 z"
   id="path166" />
			<path
   fill="#ffffff"
   d="m 789.8,537.7 c -2.6,0.8 -3.3,5.3 -3.3,6 3.7,1.1 8.1,2.8 12.7,5.3 10.1,5.6 16.1,12.4 19,15.7 10.8,12.4 15.1,25.8 17,33.7 3.4,-1.4 6.9,-2.9 10.3,-4.3 -0.4,-2.5 -1.1,-6.3 -2.7,-10.7 -4.8,-13.4 -13.8,-21.3 -20.3,-27 -4.6,-4 -11.7,-9.4 -21.7,-14 -2.8,-1.7 -5.2,-2.9 -7,-3.7 -2.4,-1.1 -3.2,-1.3 -4,-1 z"
   id="path168" />
			<g
   id="g174">
				<path
   fill="#ffffff"
   d="m 763.4,584.4 v 0 c -3.6,2.2 -8.5,5.6 -13.5,10.3 -5.1,4.8 -7.6,7.3 -7.2,10.3 0.7,5 8.9,9.4 16.2,8.9 5.9,-0.4 9.7,-4 11.7,-5.9 8.6,-8.1 7.7,-18.8 7.2,-22.1"
   id="path170" />
				<path
   fill="#ffffff"
   d="m 766.5,582.7 v 0 c -2.4,1.8 -5.8,4.6 -9.2,8.4 -3.4,4 -5.2,6 -4.9,8.4 0.5,4.1 6,7.7 11,7.2 4,-0.4 6.5,-3.2 7.9,-4.8 5.8,-6.6 5.2,-15.4 4.9,-18.1"
   id="path172" />
			</g>
			<path
   fill="#ffffff"
   d="m 791.7,580.9 c -2.9,-2.2 -7,0.3 -7.4,0.6 -2.3,1.4 -3.2,3.7 -3.8,5.2 -0.5,1.3 -1,2.4 -0.7,3.8 0,0.1 0.4,2.1 2,3.3 2.6,1.9 6.5,0.3 8.7,-1.5 0.8,-0.7 3.5,-2.8 3.4,-6.3 0,-0.6 -0.1,-3.5 -2.2,-5.1 z"
   id="path176" />
			<path
   fill="#ffffff"
   d="m 789.5,602.8 c -3.3,0.1 -5.4,2.4 -5.7,2.8 -0.4,0.5 -2.9,3.3 -1.9,6.8 0.9,3.5 4.4,4.7 4.8,4.8 4.3,1.4 7.9,-1.8 8.4,-2.2 0.5,-0.4 3.7,-3.4 2.9,-6.7 -0.5,-2.1 -2.4,-3.3 -3.6,-4 -0.9,-0.5 -2.6,-1.6 -4.9,-1.5 z"
   id="path178" />
		</g>
		<g
   id="XMLID_4_">
			<g
   id="g186">
				<path
   fill="#ffffff"
   d="m 848.7,228.6 c 15.6,20.5 10.2,41.7 -14.4,48.5 -12,3.3 -25.8,0.5 -38.7,0.6 -16.1,0.1 -32.7,-2 -48.3,0.9 -15.7,2.9 -26.9,14.8 -32.1,30.4 -21,63.7 -94.3,326.3 -157.8,487.8 l -9.6,-3.8 c 1.6,-4 3.2,-9.4 5.3,-16.3 15.7,-51.8 103.3,-352.4 118.2,-434 1.1,-6.2 4.9,-27.4 16,-53.1 6.7,-15.5 13,-30.1 25.6,-44.3 3,-3.4 40.2,-44 90.2,-38.8 7.7,0.7 31.6,3.6 45.6,22.1 z"
   id="path182" />
				<path
   fill="#ffffff"
   d="m 547.8,793 9.6,3.8 c -2.3,5.9 -4.6,11.6 -6.9,17.3 -16.3,40 -41.5,93.6 -96.2,123.5 -42.3,23.1 -84.8,22.5 -98.8,21.8 -55.4,-2.8 -85.6,-20.7 -107.1,-39.5 -12.2,-10.6 -27.3,-29.2 -39.9,-50.9 -20.1,-34.7 -26.1,-66.1 -27.3,-74.5 -0.4,-2.5 -2.2,-17 -2.2,-17 -0.2,-1 -3,-16.4 0.5,-50.5 0.4,-4.2 1.3,-11.1 6.5,-16.2 4.5,-4.3 11.1,-6.3 19.1,-5.7 23.7,1.6 47.7,2.5 70.9,7.1 83,16.3 163.8,40 238.8,80.3 22.6,11.9 27.4,14.9 33,0.5 z"
   id="path184" />
			</g>
		</g>
		<path
   fill="#ffffff"
   d="m 226.4,736.2 c 4.1,-12.3 99.1,7 177.2,33.9 11.9,4.1 105.9,36.8 102.5,51.9 -1.1,4.9 -12.3,6.6 -21.9,7.3 -44,-7.6 -80.9,-16.1 -109.2,-23.3 -50.2,-12.8 -77.2,-22.6 -104.9,-37.8 -19.4,-10.7 -46,-25.2 -43.7,-32 z"
   id="path189" />
		<path
   fill="#ffffff"
   d="m 231.6,742 c -1.3,-1.1 -2.7,-2.6 -2.4,-3.8 2.1,-7.6 70.5,5.1 75.8,6.1 35.9,6.8 61.8,14.8 88.8,23.2 55.7,17.4 84.8,20.6 110,47.1 2.4,2.5 4.2,4.7 5.5,6.1 -0.6,1.3 -1.6,3.1 -3.4,4.8 -3.5,3.2 -7.8,5.2 -22.5,3.4 -7.8,-1 -15.1,-0.1 -25.6,-1.5 -7,-0.9 -12.4,-2.1 -14.8,-2.6 C 396.1,814.6 362.4,804.3 362.4,804.3 285.6,780 263.8,766.6 249,755.8 241.3,750.4 235.4,745.3 231.6,742 Z"
   id="path191" />
		<path
   fill="#ffffff"
   d="m 420.1,762.4 c -14.2,-5.4 -71.6,-26.8 -153,-39.2 -67.2,-10.2 -72,-4.1 -72.9,-1.8 -2.6,7 16,19.9 28.7,28.7 12.7,8.8 30.3,19.1 82.9,38.3 20.9,7.6 39.8,14.4 66.5,21.9 16.6,4.6 36.4,10.1 62.8,14.6 18.9,3.2 44.3,6.5 74.7,7.3 7.3,-1.7 15.3,-4.7 16.4,-10 3.6,-18.2 -75,-47.9 -106.1,-59.8 z"
   id="path193" />
		<path
   fill="#ffffff"
   d="m 240.9,741.8 c 2.4,-8.2 77.3,5.1 139.4,23.2 65.8,19.2 139.1,50.3 136.6,58.8 -2.5,8.5 -81.7,-6 -147.6,-26 -60.6,-18.4 -130.8,-47.8 -128.4,-56 z"
   id="path195" />
		<path
   fill="#ffffff"
   d="m 367.8,732.3 c -0.1,1 -0.5,3.7 -0.3,7.4 0.6,8.3 4.3,14.8 7.5,19.3 1,0.4 2.6,0.9 4.4,0.7 9.3,-0.8 14.7,-16.7 18.5,-26.6 8.1,-21.1 17.4,-36.2 28.8,-54.6 14.1,-22.8 21.6,-27 24.4,-43.5 1.1,-6.8 2.9,-18.7 -4.3,-27.8 -6.8,-8.6 -18.4,-10.6 -22.3,-11.1 -2.5,-0.3 -6.2,-0.7 -10.3,0.3 -8,2.1 -14.7,8.4 -18.9,18.4 -16,37.9 -25.3,77 -27.5,117.5 z"
   id="path197" />
		<path
   fill="#ffffff"
   d="m 296.1,573.7 c -2.7,-6.1 -7.6,-17.1 -3,-28.8 5.9,-15.1 22.7,-18.9 24.4,-19.2 3.2,-0.7 11.8,-1.9 20.7,2.2 7.9,3.7 12.6,10 18.5,20.7 11.3,20.5 17.7,39.8 22.1,56.1 2.6,9.3 5.6,20.3 8.1,35.4 2.1,12.3 5.3,31.7 4.4,56.8 -0.5,15.3 -2.6,36.3 -9.6,60.5 -2.6,2.8 -6.3,6 -9.6,5.2 -7.3,-1.8 -7.3,-21 -10.3,-42.1 -5,-24.5 -11.1,-44.4 -16.2,-59 -3.8,-10.7 -7.4,-20.9 -14,-34 -5.2,-10.3 -10.8,-21.2 -20.7,-34 -8.1,-10.2 -11.3,-11.8 -14.8,-19.8 z"
   id="path199" />
		<path
   fill="#ffffff"
   d="m 395.7,491.8 c -0.2,-0.3 -0.4,-0.8 -0.7,-1.5 -2.3,-4.6 -3.5,-8.3 -3.7,-8.9 -1.6,-4.3 -10.9,-15.5 -23.2,-14.5 -8,0.7 -15.2,6 -17.7,12.3 -2.9,7.2 -2.2,15.3 -0.4,22.7 2.9,12.4 8.6,23.8 14.3,35.1 8.8,17.6 17.6,35.3 26.5,52.9 19.1,-27.1 35.5,-51 50,-71.9 4.7,-6.8 13,-18.8 9.7,-31.4 -2.7,-10.1 -11.5,-14.9 -12.5,-15.5 -11.7,-6.2 -26,-1.2 -34,6.6 -5.3,5.1 -7.4,10.9 -8.3,14.1 z"
   id="path201" />
		<path
   fill="#ffffff"
   d="m 383.1,704 c 0.3,-55.1 -13.7,-106.5 -39.3,-154.9 -2.5,-4.8 -7.5,-9.1 -12.3,-11.6 -8.2,-4.1 -18.7,-0.5 -24.3,6.8 -6.2,8 -6.3,17.9 0.8,27.3 19.8,26.4 36.2,54.5 47.2,85.7 10,28.4 14.8,57.7 17.1,87.6 0.2,2.6 2.6,5 3.9,7.5 1.4,-2.6 3.7,-5.1 4,-7.8 1.3,-13.6 2,-27.1 2.9,-40.6 z"
   id="path203" />
		<path
   fill="#ffffff"
   d="m 375.2,738.5 c -0.1,2.4 -0.6,4.9 -0.2,7.2 0.5,3.1 1.7,6.1 2.6,9.1 2,-2.4 4.7,-4.5 5.8,-7.2 6.9,-16.7 12.2,-34.3 20.4,-50.3 10,-19.3 22.1,-37.6 33.9,-55.9 9.5,-14.8 3.4,-32.4 -13,-35.7 -10.8,-2.1 -20.4,4.5 -25.6,18.3 -13.8,37 -22,75 -23.9,114.5 z"
   id="path205" />
		<path
   fill="#ffffff"
   d="m 396.4,502.4 c 0,0 0.7,1.5 -1.9,-2.7 -2.6,-4.2 -11.7,-16.1 -20.6,-16 -5.2,0.1 -10.8,3.5 -12.9,8.7 -2,5.2 -1.4,11 0,16.4 2.3,9 6.6,17.3 10.9,25.6 6.7,12.9 13.4,25.8 20.1,38.7 11.9,-17.1 23.9,-34.3 35.8,-51.4 4.6,-6.7 9.4,-13.7 10.5,-21.7 1,-7.6 -3.6,-17.5 -10.5,-19.8 -8.3,-2.7 -19.5,6.7 -25.5,14.5 -6,7.8 -5.9,7.7 -5.9,7.7 z"
   id="path207" />
		<path
   fill="#ffffff"
   d="m 690.2,998.5 c -0.1,-0.1 -0.4,-0.3 -2.2,0 -2.1,0.4 -3.1,0.6 -3.2,1 -0.1,0.8 3.1,2.8 4.7,1.7 0.8,-0.7 1.2,-2.2 0.7,-2.7 z"
   id="path209" />
	</g>
</g>
<g
   id="Preto"
   display="none"
   transform="translate(-166.6,-195.84406)">
	<g
   display="inline"
   id="g297">
		<path
   d="m 536.6,787.4 c 16.9,-55.7 34.3,-109.1 49.2,-163.1 30,-108.8 58.5,-218.1 88,-327 11,-40.5 33,-73.4 71.4,-92.7 30,-15.1 61.8,-17.9 91.8,-2.5 9.1,4.6 24.9,13.5 31.4,31.8 1,2.9 8.1,24 -3.3,40.2 -10.3,14.5 -29.3,16.3 -44.3,17.7 -13.1,1.3 -13.6,-1.4 -39.3,-1.3 -18.6,0.1 -28.1,0.1 -35.6,4.7 -8.3,5.2 -14.2,14.3 -19.2,28.4 -21.1,59.4 -123.1,387.6 -123.1,387.6 -1.7,5.2 -47.5,131 -53.1,141 -15.7,28.1 -39.5,70.8 -89.3,98.2 -8.6,4.7 -77.5,41.1 -155.8,15 C 202.8,931.2 154.3,813 168.8,729.5 c 2,-11.1 4.8,-20.3 7.4,-27.3 9.2,-5.3 17,-7 22.1,-7.6 2.9,-0.4 5.2,-0.3 10,-0.4 9,-0.2 16.2,0.4 21.5,0.9 50.6,4.4 88.3,11.8 88.3,11.8 28.6,5.4 60.8,13.2 95.4,24.9 49.1,16.7 90.2,36.7 123.1,55.6 z"
   id="path214" />
		<g
   id="g266">
			<path
   d="m 655.6,883.2 c -2.5,-0.6 -4.8,-1.1 -5.7,0 -1.7,2 2,7.6 5.9,13.9 11.4,18.1 6,11.2 14.3,23.6 8.9,13.3 13.3,20 19.2,26.8 4.4,5.1 8.4,10.6 12.8,15.7 0,0 2.1,3.1 6.4,9.3 1.5,2.2 2.6,3.8 2.5,5.9 -0.1,2.5 -1.5,4.4 -2.2,5.4 -1.1,1.5 -2.5,2.7 -4.9,4.1 -1.7,1 -4.3,2.3 -10.3,4.1 -5.7,1.7 -7.1,1.6 -10,3.3 -2.1,1.3 -4.7,2.8 -4.8,5.2 -0.1,2.5 2.4,4.5 4.1,5.4 1.4,0.7 2.8,0.8 5.5,0.9 1.6,0.1 2.4,0 3,-0.2 0.3,-0.1 0.5,-0.1 0.7,-0.2 0.5,-0.2 0.6,-0.4 0.8,-0.3 0.3,0.1 0.4,0.4 0.5,0.6 0.4,0.7 1.3,1 2.6,1.4 1.1,0.3 2,0.4 2.2,0.4 3.3,0.1 6,-0.6 6,-0.6 2.9,-0.8 7.9,-1.7 15,-3 1.8,-0.5 4.5,-1.1 7.7,-1.6 0.8,-0.1 4.1,-0.6 9,-0.6 7.8,-0.1 9.1,0.9 12.8,-0.2 1.8,-0.5 4.3,-1.4 6.4,-3.7 4.6,-5.2 2.4,-13.6 1.7,-16 -1.6,-6 -3.6,-5.4 -6.9,-13.3 -2.1,-5.1 -2.9,-9.6 -3.9,-15.3 -0.8,-4.2 -0.8,-5.8 -1.5,-11.3 -1.2,-10 -2.1,-13.2 -3,-19.2 -0.8,-5.8 -1.5,-14.1 -1,-24.6 0.1,-1 0.2,-2.5 -0.7,-3.7 -3.6,-5.3 -17,4.1 -34.7,1.4 -12.7,-2 -20.4,-7 -49.5,-13.6 z"
   id="path216" />
			<path
   d="m 728.7,973.7 c 0,-0.9 -0.5,-1.5 -1.3,-2.5 -1.8,-2.4 -3.4,-5 -5.2,-7.4 -1.2,-1.6 -2.1,-3.4 -4.1,-6.9 -3.7,-6.6 -6.4,-12.4 -15.3,-29.3 -5.8,-10.9 -9.5,-16.4 -13.8,-27.3 -1.3,-3.2 -1.4,-6.3 -2.9,-7.8 -1.3,-1.3 -3.9,-1.4 -6.8,-2.4 -12.5,-4.4 -13.5,-5 -14.2,-4.4 -3.2,2.7 9.5,23.6 19.8,38.1 5.9,8.3 17.5,23.6 23.9,32.9 5,7.3 3.5,6.2 6.8,10.7 1.9,2.6 3.4,4.6 3.7,6.5 0.7,4.4 -5.3,7.9 -4.6,8.9 0.6,0.8 5.2,-2 8.9,-4.2 3.7,-2.2 5.1,-3.4 5.1,-4.9 z"
   id="path218" />
			<path
   d="m 701.5,897.5 c -1.5,2.1 -0.1,7 4.2,16 13.7,28.4 14.3,30.3 14.9,31.2 0.1,0.2 0.2,0.3 0.2,0.4 1.8,2.7 4.9,11.1 7.6,16.1 0,0 1.6,3 3.2,6.1 1.5,2.9 2.6,4.5 2.9,7.1 0.1,1.1 0.4,2 0.1,2.6 -1.6,3.1 -8.6,6.3 -11.6,7.9 -10,5.3 -15.5,8.3 -21.6,8.3 -1,0 -3.7,-0.1 -4.9,1.6 -1,1.3 -1,3.5 -0.1,4.7 1.7,2.1 6.1,0.6 13.2,-1.1 7,-1.7 14.7,-3.5 22.4,-4.2 10.2,-0.8 13.6,0.9 16.3,-2.1 2.9,-3.3 2.2,-9.3 0.9,-12.9 -1.1,-3 -2.7,-4.8 -3.6,-5.8 -3.7,-4.5 -4.3,-8.7 -8,-28 -3.3,-17.6 -3.1,-13.8 -4,-20.4 -2.3,-16.3 -1,-23.1 -5.9,-26.2 -0.1,-0.1 -0.3,-0.2 -0.6,-0.3 -8.5,-4.5 -22.2,-6 -25.6,-1 z"
   id="path220" />
			<path
   d="m 761,673.2 c -3.9,20.6 -5.1,38.1 -5.3,50.9 -0.4,22.9 2,41 3.7,53.5 1.7,12.1 3.7,23.2 6.6,38.7 3.5,18.6 5.2,28 5.9,30.3 2.9,10.1 5.2,16.3 5.3,26.8 0.1,11.6 -2.9,16.2 -4.2,18 -2.8,3.8 -7,6.5 -14,8.6 -18.7,5.7 -39.9,2.1 -49.7,0 -14.8,-1.4 -27.2,-3.7 -36.7,-5.9 -15.8,-3.7 -23.7,-7.2 -39.6,-14.3 -5.1,-2.3 -7.8,-3.6 -9.8,-6.6 -4.6,-6.7 -1,-13.6 2,-32.5 1.9,-12 0.4,-9.1 3.2,-32.2 1.6,-12.8 2.4,-19.2 3.5,-25.1 5.8,-30.1 23.1,-68.5 33.4,-81.4 1,-1.3 4.6,-5.5 4.8,-11.4 0.2,-4.9 -2,-8.7 -3,-10.3 -6.7,-11.6 -11.9,-24.1 -18.4,-35.9 -1.4,-2.5 -8.9,-17.1 -12.8,-30.6 -7.1,-25.2 -10.7,-63.1 20.5,-73.2 13.7,-4.4 32.2,-3.2 42.9,7.6 5.7,5.8 8.5,14.4 10,18.6 2.1,6 2.6,10.4 3.6,18.2 5.3,41.6 5.4,41.4 5.3,43.7 -0.4,6.8 0,12.9 0.6,25 0.1,2.4 0.4,6.9 3.6,10.7 0.7,0.9 3.5,4.2 7.6,4.7 1.8,0.2 3.7,-0.1 5.7,-0.5 1.3,-0.2 2.4,-0.5 3.2,-0.7 0.2,4.7 2.9,8.9 6.9,10.6 5.2,2.2 11.8,0 15.2,-5.3 z"
   id="path222" />
			<path
   d="m 765,550.3 c -9,7.2 -13.6,15.2 -15.9,19.2 -4,7 -5.8,12.8 -7.7,19.2 -2.6,8.4 -3.7,15 -4.1,17.3 -2.3,14.9 -1.1,25.7 -0.7,28.4 1,8.3 1.6,12.6 4.8,16.6 2.5,3.1 4.8,4.1 4.9,6.9 0.1,3.2 -2.8,5.1 -7.6,10.3 -1.9,2.1 -4.5,5.2 -7.3,9.3 9.1,3.6 18.3,7.2 27.4,10.8 0.3,-2.2 0.9,-4.9 2,-7.9 0.8,-2.2 1.8,-4.1 2.7,-5.7 3.3,-3.3 5.6,-6.1 7.1,-8.1 3.1,-4.1 3.7,-5.7 6.9,-9.1 1.8,-1.9 3.2,-3.2 6.2,-5.7 4.6,-3.9 6.1,-4.5 7.1,-4.9 1.2,-0.4 2.7,-0.4 5.7,-0.6 3.6,-0.1 4.5,0.1 6.9,0 3.1,-0.1 5.8,-0.2 8.6,-1.5 0.6,-0.3 6.7,-3.2 7.9,-9.5 0.5,-2.8 -0.1,-5 -1,-8 -0.3,-1 -0.7,-2.2 -1.7,-3.2 -0.2,-0.2 -0.2,-0.2 -0.2,-0.2 -0.9,-1.7 8.7,-8.6 9.8,-9.3 2.3,-1.6 5.7,-3.8 10.1,-6.2 0.6,-8.2 0.4,-22.4 -7.6,-36.6 -10.6,-18.8 -33.8,-35.3 -50.9,-30 -5.3,2 -9.6,5.5 -13.4,8.5 z"
   id="path224" />
			<path
   d="m 664.6,721.5 c -2.6,5.2 -4,9.7 -4.8,12.5 -6.4,12 -9.6,21 -11.3,26.4 -0.4,1.4 -1.1,3.7 -1.9,6.5 -1.6,5.9 -2.7,11.3 -4.1,18.2 -3,14.8 -6.1,29.8 -7,47.6 -0.2,4.1 -0.5,12.5 -1.3,25.7 -0.3,4.1 -1.9,7.6 -0.7,9.7 3.1,5.4 13.2,6.5 22.7,10 22.2,8.3 40,10.7 52,12.3 28.2,3.7 40.7,1 46.6,-0.7 1.1,-0.3 3.8,-0.2 6.3,-2 5,-3.6 5.3,-11.1 5.2,-14.8 -2.7,-11.6 -5.9,-26.3 -8.9,-43.5 -4.4,-24.8 -6.5,-43.5 -7.1,-48.9 -2.6,-23.8 -4.2,-37.8 -3.6,-56.9 0.6,-17.3 2.8,-31.6 4.7,-41.5 0.4,-2.8 -1.2,-5.4 -3.7,-6.2 -2.1,-0.7 -4.5,0 -6,1.8 -2.5,0.7 -5.1,1.3 -7.6,2 -2.8,-0.3 -7.5,-1.1 -12.5,-3.9 -2.3,-1.3 -6.5,-3.6 -9.2,-8.1 -3.3,-5.5 -2.8,-11.4 -2.6,-13.6 1.7,-21.5 -4.1,-56.2 -5.8,-65.2 -3.1,-16.4 -6.5,-33.4 -18.3,-37.5 -5.2,-1.8 -11.8,-1.1 -16.3,2.3 -12.2,9.1 -6.4,35.3 -4,46.3 0.3,1.4 2.6,9.4 7.3,25.3 3.4,11.5 4.9,16.4 5.7,19 6.3,20.5 7,20.9 7.8,23.1 0.7,2 1.1,3.5 1.2,3.9 0.5,2.2 4.3,10.3 4.7,11.3 3,7.4 -17,18.2 -27.5,38.9 z"
   id="path226" />
			<path
   d="m 655.3,553.8 c -2.6,0.6 -6.6,1.9 -9.8,5.3 -2.2,2.3 -5.1,6.9 -4.4,20.4 0.2,5.3 0.9,10.4 4.4,24.1 2.5,9.6 4.7,16.9 6.2,22.1 10.5,24.2 18,41.7 21.2,50.2 0.8,2.2 2.9,7.9 6.1,8.1 1.5,0.1 2.9,-1 3.7,-2.2 1.9,-3 -0.1,-7.1 -2,-11.3 -2.5,-5.7 -4.1,-11.8 -6.6,-17.5 -3.4,-7.7 -5.3,-13.4 -8.4,-22.6 -4.5,-13.6 -6.7,-24.4 -7.9,-30.5 -2.1,-10.6 -3.5,-17.8 -3.7,-27.8 0,-7.6 0.6,-13.9 1.2,-18.3 z"
   id="path228" />
			<path
   d="m 663.3,740.3 c -2.4,-1 -4.8,0.2 -6.2,1 -4.9,2.5 -6.6,7.8 -7.1,9.4 -0.8,2.3 -1.5,4.6 -0.7,7.3 0.7,2.4 2.6,5 5.3,5.8 5.1,1.6 9.6,-4.1 10.3,-5.1 0.2,-0.2 4,-5.4 2.5,-11.8 -0.3,-1.6 -1.1,-5.4 -4.1,-6.6 z"
   id="path230" />
			<path
   d="m 649.9,786.3 c -3,-1 -6.3,0.3 -8.2,1.9 -2.7,2.3 -3.2,5.5 -3.6,8.9 -0.5,3.4 -0.8,5.8 0.7,8 2.2,3.1 7.1,4 10.9,2.4 5.2,-2.2 5.9,-8.3 6,-9.2 0.5,-4.3 -1.1,-10.5 -5.8,-12 z"
   id="path232" />
			<path
   d="m 646,832.8 c -2.4,-1 -4.9,0.2 -6.3,0.9 -4.9,2.4 -6.6,7.4 -7.2,9.1 -0.8,2.2 -1.5,4.4 -0.7,7 0.7,2.3 2.6,4.8 5.3,5.6 5.1,1.5 9.7,-3.9 10.4,-4.9 0.2,-0.2 4,-5.2 2.6,-11.4 -0.3,-1.6 -1.1,-5.2 -4.1,-6.3 z"
   id="path234" />
			<path
   d="m 779.2,551.3 c -6.8,3.4 -11,7.8 -13,10 -3.3,3.5 -5.2,6.5 -7.4,9.8 -1.5,2.3 -4.8,7.7 -7.9,15.3 -1.8,4.4 -5.3,13.9 -6.9,26.6 -0.5,4.5 -0.6,7.8 -0.7,14.3 0,2.1 -0.2,13.1 2.1,17.6 0.8,1.6 3.3,5.3 3.5,5.6 0,0 0.4,0.5 0.4,0.6 l 0.1,0.1 v 0 c 1.6,2 3,2.4 3.7,4.5 0.7,2.1 0.3,5 -3,10 -6,8.9 -14.3,13.9 -14,14.4 0.3,0.4 5,-3.2 8.7,-2 0.7,0.2 1.8,0.5 2.9,1.1 1.6,0.8 2.8,1.8 3.5,2.6 1.6,-6 4.1,-9.9 6,-12.3 1.9,-2.3 5.3,-5.9 8.2,-9.6 4.3,-5.3 3.7,-5.2 6.2,-7.9 5.3,-5.7 10.4,-8.5 11.8,-9.2 4.3,-2.2 6.5,-3.4 9.2,-3.3 3.2,0.1 5.7,1.4 10,0.4 1.2,-0.3 2.1,-0.6 2.8,-0.9 3.6,-1.4 5.9,-2.3 6.9,-4.7 1.1,-2.4 0.5,-5.7 -1.1,-7.8 -1,-1.3 -1.6,-1.1 -2,-2 -1.1,-2.7 3.6,-7 8.2,-11.3 2.4,-2.2 4.8,-4.4 8.7,-6.9 4.7,-3 5.6,-2.5 7.1,-4 6.1,-5.9 0.3,-21.2 -0.2,-22.4 -3.1,-7.9 -9.5,-12.7 -22,-22.4 -11.4,-8.9 -15.8,-10.1 -19.8,-10 -4.4,-0.1 -8.1,1.8 -12,3.8 z"
   id="path236" />
			<path
   d="m 791.3,598.5 c -5,0.2 -8,3.6 -8.5,4.2 -0.6,0.7 -4.3,4.9 -2.8,10.2 1.4,5.2 6.5,7 7.2,7.2 6.4,2.1 11.8,-2.7 12.5,-3.3 0.7,-0.7 5.5,-5 4.3,-10 -0.8,-3.2 -3.6,-4.9 -5.3,-6 -1.3,-0.9 -3.9,-2.4 -7.4,-2.3 z"
   id="path238" />
			<path
   d="m 768.6,568 c -2.7,-1.9 -6.4,0.3 -6.8,0.5 -2.1,1.3 -2.9,3.2 -3.5,4.5 -0.5,1.1 -0.9,2.1 -0.7,3.3 0,0.1 0.4,1.8 1.8,2.8 2.4,1.6 6,0.2 8,-1.3 0.7,-0.6 3.2,-2.5 3.2,-5.5 0,-0.4 0,-2.9 -2,-4.3 z"
   id="path240" />
			<path
   d="m 743.4,614.3 c 0.9,-0.7 2.7,0.8 9.7,4.8 5,2.9 6.2,3.3 7.1,3.5 3.9,1 7.2,0.1 9.1,-0.3 2.5,-0.6 5.3,-1.3 7.8,-3.7 2.8,-2.6 3.3,-5.5 4.4,-5.3 0.9,0.2 1.7,2.3 1.5,4.3 -0.8,6.5 -12.6,9.6 -14.1,10 -1.3,0.3 -3.4,0.9 -6.3,0.8 -4.7,-0.1 -8,-1.5 -11.5,-3.2 -3.2,-1.5 -5.1,-2.5 -6.5,-4.8 -1.3,-2 -2.2,-5.4 -1.2,-6.1 z"
   id="path242" />
			<path
   d="m 782.8,535.4 c 2,-6.7 5.2,-15.7 10.7,-25.7 5.1,-9.4 9.9,-15.6 15.3,-22.7 10.6,-13.8 19.2,-21.5 21.7,-23.8 5.3,-4.7 7.9,-7 10.3,-8.2 14.5,-7.1 32.2,1.6 40.3,5.6 4.3,2.1 19.7,10.7 32.7,29 8.9,12.6 11,23.8 14,37 0,0 4,17.8 -0.7,26.1 -1.8,3.3 -4.3,6.3 -4.3,6.3 -1.5,1.8 -2.6,2.9 -3,3.3 -2,2.1 -2.6,15.4 -6.3,21 -3.2,4.8 -9.7,5.6 -15.3,6.3 -3.7,0.5 -5,0 -22.7,-0.7 -4.3,-0.2 -6.4,0.2 -8.8,1.6 -3.1,1.8 -3.6,3.7 -5.6,5 -2,1.4 -2.9,0.4 -6.2,1.3 -2.8,0.8 -3.1,1.8 -10.9,7.4 -3.5,2.6 -5.1,3.5 -7.4,4.2 -1.7,0.5 -4.5,1.2 -6.2,-0.1 -1.9,-1.4 -1.7,-4.4 -1.6,-6.5 0.3,-13.7 -14.9,-30.2 -17,-32.5 -7.5,-8.1 -15.3,-12.3 -22.1,-16 -6.6,-3.5 -12.5,-5.8 -16.8,-7.2 3.2,-3.5 6.6,-7.1 9.9,-10.7 z"
   id="path244" />
			<path
   d="m 661.2,541.1 c 7.2,2.4 14.3,4.7 21.5,7.1 6.9,-6.8 9.8,-13.5 11.1,-17.3 3.5,-10.4 1.8,-19 -1.1,-33.2 -1.2,-6 -2.8,-11.3 -6.3,-16.6 -0.8,-1.3 -6.8,-10.3 -10.5,-9 -2.3,0.8 -2.8,5.1 -3,7.3 -1.4,6.1 -3.8,15.1 -7.6,25.7 -8.4,23.4 -17.6,37.8 -14.1,40.2 1,0.5 3.5,0.3 10,-4.2 z"
   id="path246" />
			<path
   d="m 677.2,483.7 c 2.8,0 5,7.3 7.9,16.6 0,0 2.6,8.4 3,19.4 0.1,1.9 0.1,3.6 -0.4,5.7 -0.3,1.5 -0.4,2 -2.8,7 -1.7,3.6 -1.5,4.3 -2.7,5.3 -1.6,1.3 -3,0.9 -5.9,1.4 -5.5,0.9 -6.6,4.2 -8.4,3.5 -2.4,-0.8 -1.7,-7.4 -0.5,-23.5 0.6,-8.6 0.6,-9.4 0.7,-10 0,0 0,-0.2 0.1,-0.4 3.8,-24.8 9,-25 9,-25 z"
   id="path248" />
			<path
   d="m 657.1,542.6 c -2.5,3.7 -8,5.7 -9.7,4.2 -1.1,-1 -0.3,-3.3 4.7,-15.7 5.4,-13.4 6.3,-15.2 6.9,-15.1 0.9,0.2 -0.7,5.1 -0.7,15.5 0.1,6 0.6,8.5 -1.2,11.1 z"
   id="path250" />
			<path
   d="m 800.1,533 c -3.5,-2.6 -3.9,-4 -4,-4.7 -0.2,-1.9 0.9,-3.4 1.3,-4 5.7,-7.9 5.7,-17.6 19.3,-34 4.8,-5.8 9,-9.6 12,-12.3 8.9,-8.1 13.4,-12.1 17.7,-13.7 10.7,-3.9 21.4,1.1 30,5.2 3.9,1.8 19.5,9.6 28.8,25.5 6.3,10.7 9.7,25 10.3,27.5 0.1,0.4 0.2,0.7 0.2,0.8 1.8,8 3.9,16.8 0.5,24.1 -1.8,4 -3.7,3.9 -6.6,10 -1.7,3.5 -2.1,5.6 -2.2,6.4 -0.6,3.6 0.2,4.5 -0.4,7.3 -0.7,3.4 -2.9,6.2 -4.7,7.6 -1.6,1.3 -4.2,2.7 -11.7,3 -13.1,0.5 -20.6,-3.6 -25,0.3 -0.5,0.4 -1.8,1.7 -4,3.3 -2.6,1.9 -4,2.9 -5.3,2.7 -1.9,-0.4 -2.4,-3.4 -4,-8 -2.7,-8 -5.4,-8.7 -4.7,-10.7 1.3,-3.3 20.5,-1.3 21.7,-5 0.4,-1.4 -1.8,-3.9 -4.3,-5 -6.8,-2.7 -12.3,6.1 -20.7,4 -0.5,-0.1 -5.8,-1.5 -6.7,-5 -1.9,-7.8 21.3,-18.4 20,-21 -0.6,-1.2 -6,-0.3 -10.7,2 -7.1,3.5 -7.7,7.8 -12.7,8.7 -4.4,0.7 -10.1,-1.6 -11,-5 -1.7,-6.5 15.6,-14.7 13.7,-19.3 -0.6,-1.5 -3,-2.1 -4.7,-2 -6.3,0.3 -7.6,11 -17.3,15 -2.1,0.9 -3.6,1 -4.3,1 -4,0.1 -7.1,-2.2 -10.5,-4.7 z"
   id="path252" />
			<path
   d="m 789.8,537.7 c -2.6,0.8 -3.3,5.3 -3.3,6 3.7,1.1 8.1,2.8 12.7,5.3 10.1,5.6 16.1,12.4 19,15.7 10.8,12.4 15.1,25.8 17,33.7 3.4,-1.4 6.9,-2.9 10.3,-4.3 -0.4,-2.5 -1.1,-6.3 -2.7,-10.7 -4.8,-13.4 -13.8,-21.3 -20.3,-27 -4.6,-4 -11.7,-9.4 -21.7,-14 -2.8,-1.7 -5.2,-2.9 -7,-3.7 -2.4,-1.1 -3.2,-1.3 -4,-1 z"
   id="path254" />
			<g
   id="g260">
				<path
   d="m 763.4,584.4 v 0 c -3.6,2.2 -8.5,5.6 -13.5,10.3 -5.1,4.8 -7.6,7.3 -7.2,10.3 0.7,5 8.9,9.4 16.2,8.9 5.9,-0.4 9.7,-4 11.7,-5.9 8.6,-8.1 7.7,-18.8 7.2,-22.1"
   id="path256" />
				<path
   d="m 766.5,582.7 v 0 c -2.4,1.8 -5.8,4.6 -9.2,8.4 -3.4,4 -5.2,6 -4.9,8.4 0.5,4.1 6,7.7 11,7.2 4,-0.4 6.5,-3.2 7.9,-4.8 5.8,-6.6 5.2,-15.4 4.9,-18.1"
   id="path258" />
			</g>
			<path
   d="m 791.7,580.9 c -2.9,-2.2 -7,0.3 -7.4,0.6 -2.3,1.4 -3.2,3.7 -3.8,5.2 -0.5,1.3 -1,2.4 -0.7,3.8 0,0.1 0.4,2.1 2,3.3 2.6,1.9 6.5,0.3 8.7,-1.5 0.8,-0.7 3.5,-2.8 3.4,-6.3 0,-0.6 -0.1,-3.5 -2.2,-5.1 z"
   id="path262" />
			<path
   d="m 789.5,602.8 c -3.3,0.1 -5.4,2.4 -5.7,2.8 -0.4,0.5 -2.9,3.3 -1.9,6.8 0.9,3.5 4.4,4.7 4.8,4.8 4.3,1.4 7.9,-1.8 8.4,-2.2 0.5,-0.4 3.7,-3.4 2.9,-6.7 -0.5,-2.1 -2.4,-3.3 -3.6,-4 -0.9,-0.5 -2.6,-1.6 -4.9,-1.5 z"
   id="path264" />
		</g>
		<g
   id="XMLID_2_">
			<g
   id="g272">
				<path
   d="m 848.7,228.6 c 15.6,20.5 10.2,41.7 -14.4,48.5 -12,3.3 -25.8,0.5 -38.7,0.6 -16.1,0.1 -32.7,-2 -48.3,0.9 -15.7,2.9 -26.9,14.8 -32.1,30.4 -21,63.7 -94.3,326.3 -157.8,487.8 l -9.6,-3.8 c 1.6,-4 3.2,-9.4 5.3,-16.3 15.7,-51.8 103.3,-352.4 118.2,-434 1.1,-6.2 4.9,-27.4 16,-53.1 6.7,-15.5 13,-30.1 25.6,-44.3 3,-3.4 40.2,-44 90.2,-38.8 7.7,0.7 31.6,3.6 45.6,22.1 z"
   id="path268" />
				<path
   d="m 547.8,793 9.6,3.8 c -2.3,5.9 -4.6,11.6 -6.9,17.3 -16.3,40 -41.5,93.6 -96.2,123.5 -42.3,23.1 -84.8,22.5 -98.8,21.8 -55.4,-2.8 -85.6,-20.7 -107.1,-39.5 -12.2,-10.6 -27.3,-29.2 -39.9,-50.9 -20.1,-34.7 -26.1,-66.1 -27.3,-74.5 -0.4,-2.5 -2.2,-17 -2.2,-17 -0.2,-1 -3,-16.4 0.5,-50.5 0.4,-4.2 1.3,-11.1 6.5,-16.2 4.5,-4.3 11.1,-6.3 19.1,-5.7 23.7,1.6 47.7,2.5 70.9,7.1 83,16.3 163.8,40 238.8,80.3 22.6,11.9 27.4,14.9 33,0.5 z"
   id="path270" />
			</g>
		</g>
		<path
   d="m 226.4,736.2 c 4.1,-12.3 99.1,7 177.2,33.9 11.9,4.1 105.9,36.8 102.5,51.9 -1.1,4.9 -12.3,6.6 -21.9,7.3 -44,-7.6 -80.9,-16.1 -109.2,-23.3 -50.2,-12.8 -77.2,-22.6 -104.9,-37.8 -19.4,-10.7 -46,-25.2 -43.7,-32 z"
   id="path275" />
		<path
   d="m 231.6,742 c -1.3,-1.1 -2.7,-2.6 -2.4,-3.8 2.1,-7.6 70.5,5.1 75.8,6.1 35.9,6.8 61.8,14.8 88.8,23.2 55.7,17.4 84.8,20.6 110,47.1 2.4,2.5 4.2,4.7 5.5,6.1 -0.6,1.3 -1.6,3.1 -3.4,4.8 -3.5,3.2 -7.8,5.2 -22.5,3.4 -7.8,-1 -15.1,-0.1 -25.6,-1.5 -7,-0.9 -12.4,-2.1 -14.8,-2.6 C 396.1,814.6 362.4,804.3 362.4,804.3 285.6,780 263.8,766.6 249,755.8 241.3,750.4 235.4,745.3 231.6,742 Z"
   id="path277" />
		<path
   d="m 420.1,762.4 c -14.2,-5.4 -71.6,-26.8 -153,-39.2 -67.2,-10.2 -72,-4.1 -72.9,-1.8 -2.6,7 16,19.9 28.7,28.7 12.7,8.8 30.3,19.1 82.9,38.3 20.9,7.6 39.8,14.4 66.5,21.9 16.6,4.6 36.4,10.1 62.8,14.6 18.9,3.2 44.3,6.5 74.7,7.3 7.3,-1.7 15.3,-4.7 16.4,-10 3.6,-18.2 -75,-47.9 -106.1,-59.8 z"
   id="path279" />
		<path
   d="m 240.9,741.8 c 2.4,-8.2 77.3,5.1 139.4,23.2 65.8,19.2 139.1,50.3 136.6,58.8 -2.5,8.5 -81.7,-6 -147.6,-26 -60.6,-18.4 -130.8,-47.8 -128.4,-56 z"
   id="path281" />
		<path
   d="m 367.8,732.3 c -0.1,1 -0.5,3.7 -0.3,7.4 0.6,8.3 4.3,14.8 7.5,19.3 1,0.4 2.6,0.9 4.4,0.7 9.3,-0.8 14.7,-16.7 18.5,-26.6 8.1,-21.1 17.4,-36.2 28.8,-54.6 14.1,-22.8 21.6,-27 24.4,-43.5 1.1,-6.8 2.9,-18.7 -4.3,-27.8 -6.8,-8.6 -18.4,-10.6 -22.3,-11.1 -2.5,-0.3 -6.2,-0.7 -10.3,0.3 -8,2.1 -14.7,8.4 -18.9,18.4 -16,37.9 -25.3,77 -27.5,117.5 z"
   id="path283" />
		<path
   d="m 296.1,573.7 c -2.7,-6.1 -7.6,-17.1 -3,-28.8 5.9,-15.1 22.7,-18.9 24.4,-19.2 3.2,-0.7 11.8,-1.9 20.7,2.2 7.9,3.7 12.6,10 18.5,20.7 11.3,20.5 17.7,39.8 22.1,56.1 2.6,9.3 5.6,20.3 8.1,35.4 2.1,12.3 5.3,31.7 4.4,56.8 -0.5,15.3 -2.6,36.3 -9.6,60.5 -2.6,2.8 -6.3,6 -9.6,5.2 -7.3,-1.8 -7.3,-21 -10.3,-42.1 -5,-24.5 -11.1,-44.4 -16.2,-59 -3.8,-10.7 -7.4,-20.9 -14,-34 -5.2,-10.3 -10.8,-21.2 -20.7,-34 -8.1,-10.2 -11.3,-11.8 -14.8,-19.8 z"
   id="path285" />
		<path
   d="m 395.7,491.8 c -0.2,-0.3 -0.4,-0.8 -0.7,-1.5 -2.3,-4.6 -3.5,-8.3 -3.7,-8.9 -1.6,-4.3 -10.9,-15.5 -23.2,-14.5 -8,0.7 -15.2,6 -17.7,12.3 -2.9,7.2 -2.2,15.3 -0.4,22.7 2.9,12.4 8.6,23.8 14.3,35.1 8.8,17.6 17.6,35.3 26.5,52.9 19.1,-27.1 35.5,-51 50,-71.9 4.7,-6.8 13,-18.8 9.7,-31.4 -2.7,-10.1 -11.5,-14.9 -12.5,-15.5 -11.7,-6.2 -26,-1.2 -34,6.6 -5.3,5.1 -7.4,10.9 -8.3,14.1 z"
   id="path287" />
		<path
   d="m 383.1,704 c 0.3,-55.1 -13.7,-106.5 -39.3,-154.9 -2.5,-4.8 -7.5,-9.1 -12.3,-11.6 -8.2,-4.1 -18.7,-0.5 -24.3,6.8 -6.2,8 -6.3,17.9 0.8,27.3 19.8,26.4 36.2,54.5 47.2,85.7 10,28.4 14.8,57.7 17.1,87.6 0.2,2.6 2.6,5 3.9,7.5 1.4,-2.6 3.7,-5.1 4,-7.8 1.3,-13.6 2,-27.1 2.9,-40.6 z"
   id="path289" />
		<path
   d="m 375.2,738.5 c -0.1,2.4 -0.6,4.9 -0.2,7.2 0.5,3.1 1.7,6.1 2.6,9.1 2,-2.4 4.7,-4.5 5.8,-7.2 6.9,-16.7 12.2,-34.3 20.4,-50.3 10,-19.3 22.1,-37.6 33.9,-55.9 9.5,-14.8 3.4,-32.4 -13,-35.7 -10.8,-2.1 -20.4,4.5 -25.6,18.3 -13.8,37 -22,75 -23.9,114.5 z"
   id="path291" />
		<path
   d="m 396.4,502.4 c 0,0 0.7,1.5 -1.9,-2.7 -2.6,-4.2 -11.7,-16.1 -20.6,-16 -5.2,0.1 -10.8,3.5 -12.9,8.7 -2,5.2 -1.4,11 0,16.4 2.3,9 6.6,17.3 10.9,25.6 6.7,12.9 13.4,25.8 20.1,38.7 11.9,-17.1 23.9,-34.3 35.8,-51.4 4.6,-6.7 9.4,-13.7 10.5,-21.7 1,-7.6 -3.6,-17.5 -10.5,-19.8 -8.3,-2.7 -19.5,6.7 -25.5,14.5 -6,7.8 -5.9,7.7 -5.9,7.7 z"
   id="path293" />
		<path
   d="m 690.2,998.5 c -0.1,-0.1 -0.4,-0.3 -2.2,0 -2.1,0.4 -3.1,0.6 -3.2,1 -0.1,0.8 3.1,2.8 4.7,1.7 0.8,-0.7 1.2,-2.2 0.7,-2.7 z"
   id="path295" />
	</g>
</g>
</svg>
