<?xml version="1.0" encoding="UTF-8" standalone="no"?>
<svg
   xmlns:dc="http://purl.org/dc/elements/1.1/"
   xmlns:cc="http://creativecommons.org/ns#"
   xmlns:rdf="http://www.w3.org/1999/02/22-rdf-syntax-ns#"
   xmlns:svg="http://www.w3.org/2000/svg"
   xmlns="http://www.w3.org/2000/svg"
   xmlns:sodipodi="http://sodipodi.sourceforge.net/DTD/sodipodi-0.dtd"
   xmlns:inkscape="http://www.inkscape.org/namespaces/inkscape"
   version="1.1"
   id="Capa_1"
   x="0px"
   y="0px"
   viewBox="0 0 30.000001 30.000001"
   xml:space="preserve"
   sodipodi:docname="truck-v3_30x30.svg"
   inkscape:version="1.0.2 (e86c870879, 2021-01-15)"
   width="30"
   height="30"><metadata
   id="metadata41"><rdf:RDF><cc:Work
       rdf:about=""><dc:format>image/svg+xml</dc:format><dc:type
         rdf:resource="http://purl.org/dc/dcmitype/StillImage" /><dc:title></dc:title></cc:Work></rdf:RDF></metadata><defs
   id="defs39" /><sodipodi:namedview
   pagecolor="#ffffff"
   bordercolor="#666666"
   borderopacity="1"
   objecttolerance="10"
   gridtolerance="10"
   guidetolerance="10"
   inkscape:pageopacity="0"
   inkscape:pageshadow="2"
   inkscape:window-width="1869"
   inkscape:window-height="1224"
   id="namedview37"
   showgrid="false"
   inkscape:zoom="17.422115"
   inkscape:cx="6.9128856"
   inkscape:cy="18.058499"
   inkscape:window-x="0"
   inkscape:window-y="27"
   inkscape:window-maximized="0"
   inkscape:current-layer="Capa_1"
   inkscape:document-rotation="0" />
















<g
   id="g853"
   transform="matrix(0.0635709,0,0,0.0635709,-0.17120783,-0.17074994)"><path
     id="path2-3"
     style="fill:#ffffff;fill-opacity:1"
     d="m 16,93.150391 c 0,84.666669 0,169.333329 0,253.999999 17.259065,0.01 34.518908,-0.0145 51.777486,0.0168 3.656999,0.2314 6.51069,3.49151 7.189311,6.94218 0.246704,1.71986 0.134259,3.47543 0.443359,5.19335 1.045961,7.73998 5.175166,14.98428 11.260415,19.87083 5.810098,4.76144 13.385139,7.31225 20.895429,6.94493 8.4677,-0.33237 16.76603,-4.23515 22.26694,-10.71006 4.36752,-5.04457 7.14768,-11.50836 7.57526,-18.18187 0.072,-1.64856 -0.0138,-3.40512 0.89844,-4.86133 1.68079,-3.13735 5.13553,-5.4749 8.77694,-5.18157 22.92505,-0.0506 45.85028,-0.0133 68.7754,-0.0316 41.6514,0.002 83.30299,-0.0316 124.95423,-0.0784 2.00264,0.1408 4.11305,-0.39974 6.03229,0.35566 3.18395,1.41995 5.13894,4.94943 4.96706,8.39067 0.17626,7.02291 2.82161,13.94251 7.3914,19.28025 5.18215,6.14436 12.79225,10.20734 20.81673,10.90824 8.96342,0.86447 18.27373,-2.30804 24.68813,-8.66461 5.7716,-5.59133 9.36273,-13.55 9.45524,-21.55684 0.01,-1.91564 0.3165,-3.95553 1.65491,-5.42619 1.91512,-2.37527 5.06691,-3.56126 8.07868,-3.27987 12.46764,-0.0537 24.93542,-0.027 37.40313,-0.0303 -0.004,-40.56595 0.0164,-81.13216 -0.0216,-121.69795 -0.17724,-15.28575 -2.71003,-30.74634 -9.11436,-44.71693 -5.77422,-12.70192 -15.13726,-23.94361 -27.21921,-31.06503 -11.48524,-6.83547 -24.99528,-9.85242 -38.29523,-9.59502 -25.59085,-0.0585 -51.18354,0.002 -76.77331,-0.0485 -2.42607,-0.22437 -3.93614,-2.86545 -3.6427,-5.14021 -0.0617,-14.5455 -0.034,-29.09114 -0.0352,-43.636719 -96.73307,0 -193.46615,0 -290.19922,0 0,0.666666 0,1.333333 0,2 z" /><path
     id="path2"
     style="fill:#232323;fill-opacity:1"
     d="m 306.61523,79.158203 c -98.28823,-0.01966 -196.57685,-0.0015 -294.86523,0 -4.1311459,0.0339 -7.8418808,3.788848 -7.730754,7.940968 C 3.9728669,90.974656 4.0182327,94.852627 4,98.729297 4.00369,183.00149 3.99095,267.27397 4.015705,351.54599 c 0.1770429,3.97857 3.7607699,7.50485 7.772262,7.48255 3.130808,0.056 6.264241,-0.003 9.396409,0.0222 13.990625,0 27.98125,0 41.971874,0 0.819119,5.70895 2.353117,11.37465 5.165145,16.44198 5.884766,10.95678 16.70348,19.14902 28.892109,21.69982 11.205776,2.42415 23.363086,0.19685 32.894486,-6.20542 9.8344,-6.48398 16.82275,-17.12842 18.7748,-28.75453 0.19927,-1.06049 0.39778,-2.12112 0.59573,-3.18185 63.45898,0 126.91796,0 190.37695,0 0.81912,5.70895 2.35312,11.37465 5.16514,16.44198 5.88477,10.95678 16.70348,19.14902 28.89211,21.69982 11.20578,2.42415 23.36309,0.19685 32.89449,-6.20542 9.8344,-6.48398 16.82274,-17.12842 18.77479,-28.75453 0.19928,-1.06049 0.39779,-2.12112 0.59573,-3.18185 13.2954,-0.013 26.59221,0.0345 39.88672,-0.0312 3.92959,-0.32604 7.31926,-3.94006 7.21709,-7.91753 0.046,-3.64216 10e-5,-7.28677 0.0194,-10.93012 -0.003,-38.34045 0.0145,-76.68109 -0.0239,-115.02142 -0.0526,-3.96533 -0.26469,-7.88539 -0.61846,-11.86564 -0.26484,-2.7741 -0.59278,-5.53413 -1.00125,-8.18323 -2.30997,-15.21715 -7.364,-30.21905 -16.15735,-42.94925 -0.7096,-1.01641 -1.38262,-1.95177 -2.09237,-2.87847 -1.40324,-1.85671 -3.04667,-3.82721 -4.68577,-5.611 -8.43274,-9.27118 -19.18945,-16.37278 -30.98304,-20.59311 -10.2441,-3.71457 -21.19229,-5.30792 -32.07007,-5.12054 -22.48984,0 -44.97969,0 -67.46953,0 -0.0131,-13.85399 0.0346,-27.70939 -0.0312,-41.562501 -0.32595,-3.929631 -3.94013,-7.319233 -7.91753,-7.217082 -1.21062,-0.06029 -2.42375,-0.01925 -3.63521,-0.01143 z M 22,95.150391 c 93.39974,0 186.79948,0 280.19922,0 0.0166,13.697709 -0.0433,27.397109 0.041,41.093749 0.32359,3.78505 3.39247,7.4501 7.32639,7.65289 2.40423,0.14294 4.81605,-0.009 7.22361,0.0521 24.39118,0.0111 48.78278,-0.0318 73.17367,0.0317 12.47322,0.27572 25.02989,3.64908 35.46246,10.61212 10.19175,6.73468 18.07232,16.6403 23.10061,27.71697 6.4151,13.94864 8.73787,29.44284 8.77366,44.6995 -10e-4,38.68032 0.001,77.36096 1.5e-4,116.04141 -11.79949,0.0154 -23.60052,-0.0404 -35.39904,0.0379 -5.20448,0.33582 -10.2364,4.06376 -11.42255,9.25325 -0.4706,2.56275 -0.17499,5.20698 -0.76435,7.75766 -1.54963,8.15198 -7.03938,15.44092 -14.47236,19.14109 -7.17242,3.64678 -15.97808,3.88006 -23.3145,0.55784 -8.23198,-3.63639 -14.41905,-11.58364 -15.77362,-20.49909 -0.36866,-2.01748 -0.27855,-4.07909 -0.50803,-6.10685 -0.76151,-4.50048 -4.08301,-8.63335 -8.52312,-9.91993 -2.20869,-0.45491 -4.47824,-0.10568 -6.71383,-0.21284 -64.83903,0.13166 -129.67856,0.0751 -194.51745,0.10367 -5.24787,0.23309 -9.96194,4.042 -11.83863,8.86034 -0.86327,2.25271 -0.3934,4.70533 -0.85799,7.0328 -1.21887,8.13906 -6.34716,15.5783 -13.53687,19.58962 -7.11471,4.04259 -16.08038,4.63799 -23.643046,1.48779 -7.979709,-3.24098 -14.235009,-10.45811 -16.170155,-18.86789 -0.592342,-2.37977 -0.719369,-4.83927 -0.826457,-7.27611 -0.624809,-4.31678 -3.539366,-8.33359 -7.581958,-10.04542 -2.244068,-0.95335 -4.713484,-0.81668 -7.093855,-0.79424 -14.78099,0 -29.561979,0 -44.342969,0 0,-82.66667 0,-165.33333 0,-247.999999 0.666667,0 1.333333,0 2,0 z" /><g
     id="g1029"
     transform="matrix(0.52847892,-0.05226718,0.05226718,0.52847892,56.972076,168.98731)"><path
       class="st0"
       d="m 311.5207,253.08284 c -11.6,-4.4 -58.5,-21.9 -125.1,-32 -54.9,-8.3 -58.9,-3.4 -59.6,-1.5 -2.1,5.8 13.1,16.3 23.5,23.5 10.4,7.2 24.8,15.6 67.8,31.3 17.1,6.2 32.6,11.8 54.4,17.9 13.5,3.8 29.8,8.2 51.4,11.9 15.5,2.6 36.2,5.3 61.1,6 6,-1.4 12.5,-3.8 13.4,-8.2 2.8,-14.7 -61.4,-39.2 -86.9,-48.9 z"
       id="path83"
       style="fill:#232323" /><path
       class="st3"
       d="m 165.1207,236.28284 c 2,-6.7 63.2,4.2 113.9,19 53.8,15.7 113.8,41.1 111.7,48 -2.1,6.9 -66.8,-4.9 -120.6,-21.2 -49.6,-15.1 -107,-39.1 -105,-45.8 z"
       id="path85"
       style="fill:#ef8e13" /></g><g
     id="g1011"
     transform="matrix(0.68905515,-0.08670533,0.08670533,0.68905515,30.972448,77.739966)"><path
       class="st0"
       d="m 221.59536,308.26628 c 0,0.8 -0.4,3.1 -0.2,6 0.5,6.8 3.5,12.1 6.1,15.8 0.9,0.3 2.1,0.7 3.6,0.6 7.6,-0.6 12,-13.7 15.1,-21.7 6.6,-17.2 14.2,-29.6 23.5,-44.7 11.5,-18.7 17.7,-22.1 19.9,-35.6 0.9,-5.6 2.4,-15.3 -3.5,-22.7 -5.6,-7 -15,-8.7 -18.2,-9.1 -2.1,-0.3 -5,-0.6 -8.4,0.3 -6.5,1.7 -12,6.9 -15.5,15.1 -13,30.9 -20.6,63 -22.4,96 z"
       id="path87"
       style="fill:#232323" /><path
       class="st0"
       d="m 162.89536,178.66628 c -2.2,-5 -6.2,-14 -2.4,-23.5 4.9,-12.3 18.6,-15.4 19.9,-15.7 2.6,-0.5 9.6,-1.6 16.9,1.8 6.5,3 10.3,8.2 15.1,16.9 9.3,16.8 14.4,32.6 18.1,45.9 2.1,7.6 4.5,16.6 6.6,29 1.7,10 4.3,25.9 3.6,46.5 -0.4,12.5 -2.2,29.6 -7.8,49.5 -2.1,2.3 -5.1,4.9 -7.8,4.2 -6,-1.4 -5.9,-17.2 -8.4,-34.4 -4.1,-20 -9.1,-36.3 -13.3,-48.3 -3.1,-8.8 -6.1,-17.1 -11.5,-27.8 -4.3,-8.4 -8.8,-17.4 -16.9,-27.8 -6.6,-8.5 -9.2,-9.8 -12.1,-16.3 z"
       id="path89"
       style="fill:#232323" /><path
       class="st0"
       d="m 244.39536,111.66628 c -0.1,-0.2 -0.3,-0.7 -0.6,-1.2 -1.8,-3.8 -2.8,-6.8 -3,-7.2 -1.3,-3.5 -8.9,-12.7 -19,-11.9 -6.6,0.5 -12.4,4.9 -14.5,10 -2.4,5.9 -1.8,12.5 -0.3,18.6 2.4,10.1 7.1,19.4 11.7,28.7 7.2,14.4 14.4,28.8 21.6,43.3 15.6,-22.2 29.1,-41.7 40.9,-58.8 3.9,-5.6 10.7,-15.4 7.9,-25.7 -2.2,-8.3 -9.4,-12.2 -10.3,-12.7 -9.6,-5.1 -21.2,-1 -27.8,5.4 -4.2,4.1 -5.9,8.9 -6.6,11.5 z"
       id="path91"
       style="fill:#232323" /><path
       class="st3"
       d="m 234.09536,285.16628 c 0.2,-45 -11.2,-87.1 -32.2,-126.6 -2.1,-3.9 -6.1,-7.5 -10.1,-9.5 -6.7,-3.4 -15.3,-0.4 -19.9,5.5 -5.1,6.6 -5.1,14.6 0.7,22.3 16.2,21.6 29.6,44.6 38.6,70.1 8.2,23.2 12.1,47.2 14,71.6 0.2,2.1 2.1,4.1 3.2,6.1 1.1,-2.1 3,-4.2 3.2,-6.4 1.2,-11 1.8,-22.1 2.5,-33.1 z"
       id="path93"
       style="fill:#ef8e13" /><path
       class="st3"
       d="m 227.59536,313.46628 c -0.1,2 -0.5,4 -0.2,5.9 0.4,2.5 1.4,5 2.1,7.5 1.6,-2 3.9,-3.7 4.8,-5.9 5.6,-13.7 10,-28 16.7,-41.1 8.2,-15.8 18.1,-30.7 27.7,-45.7 7.8,-12.1 2.8,-26.5 -10.6,-29.2 -8.8,-1.7 -16.6,3.7 -20.9,15 -11.4,30 -18,61.2 -19.6,93.5 z"
       id="path95"
       style="fill:#ef8e13" /><path
       class="st3"
       d="m 244.99536,120.36628 c 0,0 0.6,1.2 -1.6,-2.2 -2.1,-3.5 -9.6,-13.2 -16.8,-13.1 -4.2,0.1 -8.9,2.8 -10.5,7.1 -1.7,4.2 -1.2,9 0,13.4 1.9,7.4 5.4,14.2 8.9,20.9 5.5,10.5 11,21.1 16.4,31.6 9.8,-14 19.5,-28 29.3,-42.1 3.8,-5.5 7.7,-11.2 8.6,-17.8 0.9,-6.2 -2.9,-14.3 -8.6,-16.2 -6.8,-2.2 -15.9,5.5 -20.8,11.9 -4.9,6.4 -4.9,6.5 -4.9,6.5 z"
       id="path97"
       style="fill:#ef8e13" /></g></g></svg>
